<?xml version="1.0" standalone="no"?>
<!DOCTYPE svg PUBLIC "-//W3C//DTD SVG 1.1//EN" "http://www.w3.org/Graphics/SVG/1.1/DTD/svg11.dtd" >
<svg xmlns="http://www.w3.org/2000/svg">
<metadata>
Created by FontPrep 20130207 at Wed May  7 15:15:05 2014
 By Shajed Evan
Copyright (c) Mark Simonson, 2005. All rights reserved.
</metadata>
<defs>
<font id="77f1c682604b6b0472d490a8e6c22d18" horiz-adv-x='1024' >
  <font-face 
    font-family="ProximaNova-RegularIt"
    font-weight="400"
    font-style="italic"
    font-stretch="normal"
    units-per-em="2048"
    panose-1="2 0 5 6 3 0 0 2 0 4"
    ascent="1618"
    descent="-430"
    x-height="989"
    cap-height="1366"
    bbox="-463 -545 2343 1817.02"
    underline-thickness="40"
    underline-position="-231"
    unicode-range="U+000D-FB04"
  />
<missing-glyph horiz-adv-x="1038" 
d="M854 -123v1602h-590v-1602h590zM920 -184h-719v1724h719v-1724z" />
    <glyph glyph-name="f_f_j" unicode="ffj" horiz-adv-x="1622" 
d="M240 0h-154l188 856h-163l30 133h164l17 76q72 322 329 321q131 0 215 -83l-82 -93q-49 49 -127 50q-141 0 -182 -195l-16 -76h200l-30 -133h-201zM1543 1130q-43 0 -69 26t-26 71t37 78t78 33t69 -28q28 -26 27 -70q0 -44 -37 -77t-79 -33zM1022 -401q-162 0 -236 86
l74 110q53 -70 141 -69q139 0 181 178l241 1085h154l-242 -1085q-67 -305 -313 -305zM1237 1260q-141 0 -182 -195l-17 -76h201l-31 -135h-200l-189 -854h-153l188 854h-164l31 135h164l16 76q72 322 324 321q102 0 178 -47l-60 -110q-39 31 -106 31z" />
    <glyph glyph-name="f_j" unicode="fj" horiz-adv-x="1042" 
d="M962 1130q-42 0 -69 26t-27 71t37 78t78 33t69 -28q28 -26 28 -70t-38 -77q-36 -33 -78 -33zM440 -401q-162 0 -235 86l74 110q53 -70 141 -69q139 0 180 178l242 1085h153l-241 -1085q-68 -305 -314 -305zM657 1260q-141 0 -182 -195l-16 -76h200l-30 -135h-201
l-188 -854h-154l188 854h-163l30 135h164l17 76q72 322 323 321q102 0 178 -47l-59 -110q-39 31 -107 31z" />
    <glyph glyph-name="f_f" unicode="ff" horiz-adv-x="1161" 
d="M819 0h-153l188 856h-164l31 133h164l16 76q72 322 330 321q131 0 215 -83l-82 -93q-49 49 -127 50q-141 0 -182 -195l-17 -76h201l-31 -133h-200zM240 0h-154l188 856h-163l30 133h164l17 76q72 322 329 321q131 0 215 -83l-82 -93q-49 49 -127 50q-141 0 -182 -195
l-16 -76h200l-30 -133h-201z" />
    <glyph glyph-name="fi" unicode="fi" horiz-adv-x="1042" 
d="M776 0h-153l219 989h153zM962 1130q-42 0 -69 26t-27 71t37 78t78 33t69 -28q28 -26 28 -70t-38 -77q-36 -33 -78 -33zM657 1260q-141 0 -182 -195l-16 -76h200l-30 -135h-201l-188 -854h-154l188 854h-163l30 135h164l17 76q72 322 323 321q102 0 178 -47l-59 -110
q-39 31 -107 31z" />
    <glyph glyph-name="fl" unicode="fl" horiz-adv-x="1042" 
d="M776 0h-153l301 1366h153zM657 1260q-141 0 -182 -195l-16 -76h200l-30 -135h-201l-188 -854h-154l188 854h-163l30 135h164l17 76q72 322 323 321q102 0 178 -47l-59 -110q-39 31 -107 31z" />
    <glyph glyph-name="f_f_i" unicode="ffi" horiz-adv-x="1622" 
d="M240 0h-154l188 856h-163l30 133h164l17 76q72 322 329 321q131 0 215 -83l-82 -93q-49 49 -127 50q-141 0 -182 -195l-16 -76h200l-30 -133h-201zM1358 0h-154l219 989h154zM1543 1130q-43 0 -69 26t-26 71t37 78t78 33t69 -28q28 -26 27 -70q0 -44 -37 -77t-79 -33z
M1237 1260q-141 0 -182 -195l-17 -76h201l-31 -135h-200l-189 -854h-153l188 854h-164l31 135h164l16 76q72 322 324 321q102 0 178 -47l-60 -110q-39 31 -106 31z" />
    <glyph glyph-name="f_f_l" unicode="ffl" horiz-adv-x="1622" 
d="M240 0h-154l188 856h-163l30 133h164l17 76q72 322 329 321q131 0 215 -83l-82 -93q-49 49 -127 50q-141 0 -182 -195l-16 -76h200l-30 -133h-201zM1358 0h-154l301 1366h154zM1237 1260q-141 0 -182 -195l-17 -76h201l-31 -135h-200l-189 -854h-153l188 854h-164l31 135
h164l16 76q72 322 324 321q102 0 178 -47l-60 -110q-39 31 -106 31z" />
    <glyph glyph-name="f_b" unicode="fb" horiz-adv-x="1757" 
d="M1135 113q164 0 270 139t106 326q0 137 -75 218q-76 81 -201 81q-90 -1 -170 -49t-133 -121l-96 -435q39 -72 118 -116t181 -43zM1155 -25q-115 1 -204 49t-140 132l-35 -156h-153l301 1366h153l-114 -518q135 166 317 166t288 -109t105 -299q-1 -252 -145 -442
t-373 -189zM657 1260q-141 0 -182 -195l-16 -76h200l-30 -135h-201l-188 -854h-154l188 854h-163l30 135h164l17 76q72 322 323 321q102 0 178 -47l-59 -110q-39 31 -107 31z" />
    <glyph glyph-name="f_h" unicode="fh" horiz-adv-x="1710" 
d="M1446 717q0 160 -205 160q-156 0 -305 -158l-160 -719h-153l301 1366h153l-114 -520q176 168 350 168q133 0 214 -65t81 -181q0 -41 -13 -82l-149 -686h-154l142 649q12 55 12 68zM657 1260q-141 0 -182 -195l-16 -76h200l-30 -135h-201l-188 -854h-154l188 854h-163
l30 135h164l17 76q72 322 323 321q102 0 178 -47l-59 -110q-39 31 -107 31z" />
    <glyph glyph-name="f_k" unicode="fk" horiz-adv-x="1634" 
d="M1493 0h-186l-263 451l-206 -168l-62 -283h-153l301 1366h153l-196 -895l626 518h203l-539 -448zM657 1260q-141 0 -182 -195l-16 -76h200l-30 -135h-201l-188 -854h-154l188 854h-163l30 135h164l17 76q72 322 323 321q102 0 178 -47l-59 -110q-39 31 -107 31z" />
    <glyph glyph-name=".notdef" horiz-adv-x="1038" 
d="M854 -123v1602h-590v-1602h590zM920 -184h-719v1724h719v-1724z" />
    <glyph glyph-name=".null" horiz-adv-x="0" 
 />
    <glyph glyph-name=".null" horiz-adv-x="0" 
 />
    <glyph glyph-name="nonmarkingreturn" horiz-adv-x="681" 
 />
    <glyph glyph-name="CR" unicode="&#xd;" horiz-adv-x="0" 
 />
    <glyph glyph-name="space" unicode=" " horiz-adv-x="528" 
 />
    <glyph glyph-name="exclam" unicode="!" horiz-adv-x="471" 
d="M152 205q46 0 76 -31t30 -77q0 -45 -37 -81t-84 -36t-77 30t-30 76q0 47 38 83q37 36 84 36zM272 383h-129l187 983h192z" />
    <glyph glyph-name="quotedbl" unicode="&#x22;" horiz-adv-x="702" 
d="M614 844h-75q39 397 42 438t32 73q30 31 70 31t65 -24q44 -44 12 -109zM471 1316q0 -22 -10 -63l-148 -409h-75q39 397 42 438t33 73q31 31 71 31t64 -24t23 -46z" />
    <glyph glyph-name="numbersign" unicode="#" horiz-adv-x="1208" 
d="M643 479l227 408h-225l-227 -408h225zM504 0h-125l207 371h-228l-204 -371h-127l206 371h-219l60 108h219l227 408h-221l55 106h226l204 373h127l-206 -373h227l205 373h125l-207 -373h219l-53 -106h-224l-229 -408h227l-57 -108h-229z" />
    <glyph glyph-name="dollar" unicode="$" horiz-adv-x="1214" 
d="M414 1012q0 -62 52 -106t157 -89l94 420h-21q-118 1 -200 -67t-82 -158zM909 366q0 83 -54 130t-157 92l-102 -461h12q147 0 225 78q76 78 76 161zM231 989q1 162 139 280t345 117q23 0 35 -2l43 189h125l-46 -203q227 -49 336 -199l-116 -118q-90 123 -254 166
l-101 -449q143 -59 249 -138t106 -239q0 -159 -134 -289t-364 -129l-33 2l-39 -182h-125l43 195q-133 25 -238 85t-161 144l117 123q113 -158 315 -201l111 494q-210 83 -281 164q-72 82 -72 190z" />
    <glyph glyph-name="percent" unicode="%" horiz-adv-x="1497" 
d="M494 815q89 0 161 82t72 203q0 78 -53 130t-142 52t-160 -81t-71 -202q0 -78 52 -131t141 -53zM848 1110q0 -174 -108 -286t-246 -111q-140 0 -228 77t-88 199q0 174 108 286q108 111 247 111t227 -76t88 -200zM1043 78q89 0 161 82t72 202q0 78 -53 130t-143 53
q-90 0 -160 -81t-70 -202q0 -78 52 -131t141 -53zM1043 -25q-138 0 -227 77t-89 200q0 174 109 286t247 112t227 -78q89 -77 89 -199q0 -174 -109 -286t-247 -112zM262 0h-110l1173 1366h113z" />
    <glyph glyph-name="ampersand" unicode="&#x26;" horiz-adv-x="1312" 
d="M547 1016q0 -76 37 -180q166 61 251 123t85 167q0 66 -42 103t-117 37t-145 -68t-69 -182zM475 102q123 0 270 117q-98 137 -145 225q-76 127 -121 228q-131 -59 -203 -136t-72 -194q0 -116 74 -178t197 -62zM387 1016q0 154 112 262t254 108t228 -64t86 -181
q0 -149 -103 -235q-103 -85 -241 -137q-29 -11 -94 -38q90 -185 233 -403q129 139 217 299l119 -70q-139 -211 -262 -338q66 -94 166 -219h-195q-51 63 -88 115q-183 -139 -369 -139t-302 88q-116 90 -116 266t126 287q101 89 276 161q-47 135 -47 238z" />
    <glyph glyph-name="quotesingle" unicode="'" horiz-adv-x="407" 
d="M471 1316q0 -22 -10 -63l-148 -409h-75q39 397 42 438t33 73q31 31 71 31t64 -24t23 -46z" />
    <glyph glyph-name="parenleft" unicode="(" horiz-adv-x="507" 
d="M51 174q0 328 136 644t391 585l79 -78q-444 -580 -444 -1196q0 -215 76 -475l-109 -62q-129 254 -129 582z" />
    <glyph glyph-name="parenright" unicode=")" horiz-adv-x="507" 
d="M455 820q1 -328 -137 -642t-392 -586l-78 78q444 580 445 1194q0 217 -76 477l109 62q129 -255 129 -583z" />
    <glyph glyph-name="asterisk" unicode="*" horiz-adv-x="696" 
d="M459 797h-94l65 239l-227 -102l-27 82l232 84l-183 127l64 73l168 -145l39 231h96l-68 -239l228 104l26 -84l-229 -84l182 -127l-65 -73l-168 145z" />
    <glyph glyph-name="plus" unicode="+" horiz-adv-x="1021" 
d="M991 637h-391l-98 -436h-117l96 436h-391l23 106h393l92 424h119l-94 -424h393z" />
    <glyph glyph-name="comma" unicode="," horiz-adv-x="471" 
d="M153 205q49 0 79 -32q30 -33 30 -107t-68 -168t-167 -146l-64 68q137 70 172 172h-16q-37 0 -63 24t-26 70q0 45 38 82q37 37 85 37z" />
    <glyph glyph-name="hyphen" unicode="-" horiz-adv-x="614" 
d="M537 428h-492l29 135h491z" />
    <glyph glyph-name="period" unicode="." horiz-adv-x="471" 
d="M152 205q46 0 76 -31t30 -77q0 -45 -37 -81t-84 -36t-77 30t-30 76q0 47 38 83q37 36 84 36z" />
    <glyph glyph-name="slash" unicode="/" horiz-adv-x="606" 
d="M4 -41h-127l805 1448h129z" />
    <glyph glyph-name="zero" unicode="0" horiz-adv-x="1253" 
d="M293 496q0 -166 72 -268t213 -101q141 0 247 120t159 287q52 166 52 334t-69 268q-70 99 -211 99t-249 -120t-161 -286q-53 -167 -53 -333zM556 -25q-202 1 -318 143t-117 390q0 156 45 310t126 282q81 127 205 207t267 79q213 0 330 -141q116 -141 116 -371t-74 -428
q-74 -199 -226 -335t-354 -136z" />
    <glyph glyph-name="one" unicode="1" horiz-adv-x="694" 
d="M424 0h-170l252 1141l-270 -232l-80 105l419 352h150z" />
    <glyph glyph-name="two" unicode="2" horiz-adv-x="1204" 
d="M981 1032q0 88 -82 146t-213 57q-207 0 -350 -133l-80 121q78 75 196 119t244 44q195 0 330 -93t135 -265q0 -222 -262 -454q-129 -114 -266 -208t-332 -214h668l-31 -152h-938l37 166q384 237 542 353t231 190q73 75 122 155t49 168z" />
    <glyph glyph-name="three" unicode="3" horiz-adv-x="1140" 
d="M1008 399q0 -178 -140 -301t-334 -123t-339 79t-201 206l123 96q51 -106 161 -168t248 -61q138 0 226 81t88 206q0 94 -80 152t-206 58t-148 -1l34 155q22 -2 174 -2t246 62t94 168t-85 168t-226 61q-197 0 -346 -135l-72 117q174 170 430 169q211 0 341 -91t130 -245
t-112 -249q-112 -96 -256 -109q110 -24 180 -100t70 -193z" />
    <glyph glyph-name="four" unicode="4" horiz-adv-x="1142" 
d="M711 496l159 712l-637 -712h478zM774 0h-170l76 346h-649l35 154l765 866h244l-194 -870h192l-31 -150h-192z" />
    <glyph glyph-name="five" unicode="5" horiz-adv-x="1208" 
d="M569 -25q-356 0 -497 273l129 102q102 -223 377 -223q143 0 242 94q100 93 100 225t-86 200t-231 69q-145 0 -275 -99l-113 56l154 694h835l-33 -152h-665l-100 -450q114 92 286 92t289 -102t117 -295t-150 -339t-379 -145z" />
    <glyph glyph-name="six" unicode="6" horiz-adv-x="1210" 
d="M584 127q145 0 244 103q100 102 100 228t-83 190t-220 65q-193 0 -344 -168q-4 -37 -5 -99q0 -143 82 -231t226 -88zM1106 496q0 -213 -152 -367t-375 -154q-223 1 -345 133t-121 371q0 310 161 596q78 137 212 224t298 87q283 0 412 -204l-115 -115q-88 168 -307 168
q-180 0 -296 -151t-169 -363q-10 -31 -10 -41q61 68 170 121t223 53q182 0 298 -97t116 -261z" />
    <glyph glyph-name="seven" unicode="7" horiz-adv-x="1054" 
d="M330 0h-197l813 1214h-727l35 152h932l-27 -117z" />
    <glyph glyph-name="eight" unicode="8" horiz-adv-x="1189" 
d="M557 127q133 0 231 70t98 172t-81 168q-82 66 -180 92q-166 -10 -275 -85q-108 -75 -108 -187t91 -171t224 -59zM408 995q0 -77 78 -139t169 -82q158 10 255 76q98 66 98 164t-86 158t-211 60t-214 -64q-89 -65 -89 -173zM1059 365q1 -170 -147 -280t-359 -110
q-211 -1 -351 91t-140 250t111 263q112 105 302 144q-98 39 -168 114t-69 175q0 180 147 277t337 97t330 -90q138 -90 138 -240t-106 -246t-281 -122q106 -49 181 -130t75 -193z" />
    <glyph glyph-name="nine" unicode="9" horiz-adv-x="1210" 
d="M1012 915q0 143 -81 233t-226 89q-145 0 -245 -103q-100 -102 -102 -228q0 -126 85 -192t221 -65q188 0 346 168q2 18 2 98zM712 1389q222 -1 344 -133t122 -371q0 -313 -163 -596q-79 -137 -213 -224t-298 -88q-283 0 -412 205l115 115q88 -168 307 -168q338 0 477 555
q-63 -68 -172 -122t-221 -54q-182 0 -299 98t-117 262q0 211 154 366t376 155z" />
    <glyph glyph-name="colon" unicode=":" horiz-adv-x="471" 
d="M315 778q-47 0 -77 31t-29 78q0 47 36 82t83 35q46 0 76 -31t30 -77t-36 -82t-83 -36zM152 205q46 0 76 -31t30 -77q0 -45 -37 -81t-84 -36t-77 30t-30 76q0 47 38 83q37 36 84 36z" />
    <glyph glyph-name="semicolon" unicode=";" horiz-adv-x="471" 
d="M315 778q-47 0 -77 31t-29 78q0 47 36 82t83 35q46 0 76 -31t30 -77t-36 -82t-83 -36zM153 205q49 0 79 -32q30 -33 30 -107t-68 -168t-167 -146l-64 68q137 70 172 172h-16q-37 0 -63 24t-26 70q0 45 38 82q37 37 85 37z" />
    <glyph glyph-name="less" unicode="&#x3c;" horiz-adv-x="1021" 
d="M891 184l-805 447l27 108l1001 449l-31 -135l-854 -375l689 -371z" />
    <glyph glyph-name="equal" unicode="=" horiz-adv-x="1021" 
d="M946 432h-903l25 107h903zM1034 827h-903l25 109h903z" />
    <glyph glyph-name="greater" unicode="&#x3e;" horiz-adv-x="1021" 
d="M989 631l-1001 -447l30 135l854 371l-688 375l27 123l803 -449z" />
    <glyph glyph-name="question" unicode="?" horiz-adv-x="946" 
d="M360 -20q-46 0 -76 30t-30 76q0 47 37 83t84 36t77 -31t30 -78q0 -48 -38 -82q-37 -34 -84 -34zM340 526q0 80 50 142t122 99q72 38 144 75t121 91q50 54 50 130t-65 124q-66 48 -184 48q-182 0 -314 -131l-78 115q180 168 412 167q180 0 296 -82t116 -217
q0 -102 -54 -177q-54 -74 -130 -118q-78 -44 -154 -82q-182 -90 -183 -196q0 -47 37 -82l-137 -53q-49 67 -49 147z" />
    <glyph glyph-name="at" unicode="@" horiz-adv-x="1603" 
d="M745 289q178 0 306 184l59 283q-20 59 -74 105t-137 46q-150 0 -256 -120t-106 -271q0 -100 56 -164t152 -63zM762 -143q-279 0 -464 185t-185 458q1 328 245 568t568 239q285 1 465 -187t180 -463q-1 -227 -107 -355t-247 -128q-82 0 -133 48q-50 48 -54 118l-2 12
q-55 -78 -142 -128t-181 -50q-141 0 -228 92q-86 92 -86 242q-1 210 147 362t334 152q94 0 163 -45t100 -115l26 127h139l-116 -555q-4 -26 -4 -60t28 -62t68 -27q78 0 150 92t71 280q0 254 -161 417t-418 163q-296 0 -516 -222t-220 -511q0 -248 167 -414t421 -166
q199 0 381 115l37 -53q-201 -129 -426 -129z" />
    <glyph glyph-name="A" unicode="A" horiz-adv-x="1347" 
d="M963 455l-129 735l-451 -735h580zM1219 0h-187l-53 303h-682l-186 -303h-203l850 1366h211z" />
    <glyph glyph-name="B" unicode="B" horiz-adv-x="1288" 
d="M678 152q139 0 218 78t79 178q1 100 -59 157t-160 58h-402l-104 -471h428zM813 774q139 0 204 75t65 167t-61 145q-60 53 -147 53h-387l-98 -440h424zM682 0h-633l301 1366h568q152 0 250 -88t98 -228t-94 -244t-224 -120q88 -23 145 -103q56 -81 56 -177
q0 -166 -121 -286t-346 -120z" />
    <glyph glyph-name="C" unicode="C" horiz-adv-x="1384" 
d="M768 -25q-288 0 -467 165q-178 165 -178 433q0 180 64 335q125 299 417 422q138 58 312 58t317 -85q143 -86 215 -236l-162 -63q-119 233 -405 233q-229 0 -403 -184t-175 -471q0 -203 125 -329t331 -126t371 156l125 -95q-199 -213 -487 -213z" />
    <glyph glyph-name="D" unicode="D" horiz-adv-x="1433" 
d="M543 152q293 0 473 181t180 441q0 188 -121 314t-301 126h-287l-237 -1062h293zM514 0h-465l301 1366h457q233 0 400 -166t167 -418q0 -299 -206 -529q-101 -113 -271 -183t-383 -70z" />
    <glyph glyph-name="E" unicode="E" horiz-adv-x="1165" 
d="M944 0h-895l301 1366h895l-33 -152h-725l-98 -440h711l-33 -151h-713l-104 -471h727z" />
    <glyph glyph-name="F" unicode="F" horiz-adv-x="1126" 
d="M219 0h-170l301 1366h895l-33 -152h-725l-98 -440h711l-33 -151h-713z" />
    <glyph glyph-name="G" unicode="G" horiz-adv-x="1460" 
d="M765 -25q-292 0 -467 166t-175 432q0 351 227 583t553 233q187 0 325 -82t214 -217l-154 -72q-53 104 -163 162t-244 57q-231 0 -405 -188t-173 -467q0 -205 126 -330t329 -125t364 145l64 279h-471l33 151h641l-111 -501q-221 -226 -513 -226z" />
    <glyph glyph-name="H" unicode="H" horiz-adv-x="1458" 
d="M1188 0h-170l137 627h-799l-137 -627h-170l301 1366h170l-129 -588h799l129 588h170z" />
    <glyph glyph-name="I" unicode="I" horiz-adv-x="489" 
d="M219 0h-170l301 1366h170z" />
    <glyph glyph-name="J" unicode="J" horiz-adv-x="972" 
d="M324 -25q-120 0 -218 44t-151 128l102 123q80 -143 258 -143q123 0 201 77t107 210l211 952h170l-211 -954q-96 -437 -469 -437z" />
    <glyph glyph-name="K" unicode="K" horiz-adv-x="1230" 
d="M1085 0h-198l-389 623l-179 -164l-100 -459h-170l301 1366h170l-153 -690l747 690h223l-712 -649z" />
    <glyph glyph-name="L" unicode="L" horiz-adv-x="1058" 
d="M854 0h-805l301 1366h170l-270 -1214h637z" />
    <glyph glyph-name="M" unicode="M" horiz-adv-x="1656" 
d="M1386 0h-169l253 1149l-718 -1149h-70l-211 1149l-252 -1149h-170l301 1366h236l192 -1053l658 1053h252z" />
    <glyph glyph-name="N" unicode="N" horiz-adv-x="1449" 
d="M1180 0h-164l-551 1114l-246 -1114h-170l301 1366h174l545 -1094l242 1094h170z" />
    <glyph glyph-name="O" unicode="O" horiz-adv-x="1566" 
d="M764 127q236 0 406 188t171 467q0 211 -131 333t-329 122q-240 0 -409 -187t-169 -468q0 -213 131 -334t330 -121zM754 -25q-272 0 -452 161q-179 161 -179 437q0 342 224 579t544 237q272 0 451 -161t180 -435q0 -344 -224 -581t-544 -237z" />
    <glyph glyph-name="P" unicode="P" horiz-adv-x="1202" 
d="M729 694q156 0 243 88t87 217q0 91 -65 153t-163 62h-344l-116 -520h358zM858 1366q172 0 276 -103t103 -261q0 -158 -116 -302q-57 -72 -163 -114t-243 -43h-377l-119 -543h-170l301 1366h508z" />
    <glyph glyph-name="Q" unicode="Q" horiz-adv-x="1566" 
d="M764 127q115 0 223 51l-160 230l136 73l153 -219q104 90 165 225q60 135 60 295q0 211 -131 333t-329 122q-240 0 -409 -187t-169 -468q0 -213 131 -334t330 -121zM754 -25q-272 0 -452 161q-179 161 -179 437q0 342 224 579t544 237q272 0 451 -161t180 -435
q0 -203 -84 -376t-230 -286l86 -121l-137 -73l-80 112q-153 -74 -323 -74z" />
    <glyph glyph-name="R" unicode="R" horiz-adv-x="1245" 
d="M731 692q154 0 241 87t87 216q0 95 -71 157t-161 62h-340l-116 -522h360zM852 1366q156 0 272 -98t115 -273q0 -175 -123 -303t-321 -141l245 -551h-188l-229 543h-287l-117 -543h-170l301 1366h502z" />
    <glyph glyph-name="S" unicode="S" horiz-adv-x="1200" 
d="M586 -25q-180 0 -331 69t-222 175l117 123q72 -100 190 -158t263 -57q144 0 221 78t77 164t-70 140q-69 54 -169 92t-200 82t-169 121q-70 77 -70 185q0 162 138 280t346 117q157 0 289 -57t204 -158l-117 -118q-66 90 -172 137t-223 47t-200 -68q-82 -69 -82 -147
t70 -128t168 -89q100 -39 200 -84t170 -125t69 -188q0 -174 -134 -304t-363 -129z" />
    <glyph glyph-name="T" unicode="T" horiz-adv-x="1167" 
d="M557 0h-170l268 1214h-432l33 152h1036l-32 -152h-435z" />
    <glyph glyph-name="U" unicode="U" horiz-adv-x="1433" 
d="M691 -25q-255 0 -395 123t-140 332q0 39 10 100l184 836h170l-182 -831q-10 -41 -10 -86q0 -143 95 -233t270 -89q175 0 275 103q99 103 142 305l184 831h170l-182 -834q-60 -272 -198 -414t-393 -143z" />
    <glyph glyph-name="V" unicode="V" horiz-adv-x="1347" 
d="M668 0h-211l-248 1366h184l201 -1180l723 1180h203z" />
    <glyph glyph-name="W" unicode="W" horiz-adv-x="1808" 
d="M1278 0h-184l-58 1102l-544 -1102h-185l-88 1366h184l50 -1139l565 1139h143l60 -1139l555 1139h192z" />
    <glyph glyph-name="X" unicode="X" horiz-adv-x="1335" 
d="M1198 0h-192l-316 578l-557 -578h-219l688 711l-356 655h194l291 -543l516 543h221l-649 -676z" />
    <glyph glyph-name="Y" unicode="Y" horiz-adv-x="1282" 
d="M616 0h-170l127 578l-364 788h186l285 -635l563 635h211l-711 -788z" />
    <glyph glyph-name="Z" unicode="Z" horiz-adv-x="1198" 
d="M987 0h-999l30 141l994 1073h-756l33 152h985l-29 -141l-997 -1073h774z" />
    <glyph glyph-name="bracketleft" unicode="[" horiz-adv-x="497" 
d="M264 -389h-381l396 1778h380l-24 -113h-262l-344 -1552h262z" />
    <glyph glyph-name="backslash" unicode="\" horiz-adv-x="606" 
d="M365 -41l-164 1448h121l163 -1448h-120z" />
    <glyph glyph-name="bracketright" unicode="]" horiz-adv-x="497" 
d="M217 -389h-379l25 113h260l346 1552h-262l24 113h381z" />
    <glyph glyph-name="asciicircum" unicode="^" horiz-adv-x="884" 
d="M885 682h-121l-150 571l-403 -571h-133l497 684h117z" />
    <glyph glyph-name="underscore" unicode="_" horiz-adv-x="1155" 
d="M1006 -195h-1166l27 113h1165z" />
    <glyph glyph-name="grave" unicode="`" horiz-adv-x="462" 
d="M604 1139h-117l-280 295h160z" />
    <glyph glyph-name="a" unicode="a" horiz-adv-x="1177" 
d="M621 877q-165 1 -271 -139t-106 -326q0 -137 76 -218t200 -81q88 0 170 48t131 120l99 436q-39 70 -118 115t-181 45zM600 1014q113 0 204 -48t140 -132l35 155h154l-220 -989h-153l31 141q-133 -166 -317 -166t-288 109t-104 299q0 255 144 443t374 188z" />
    <glyph glyph-name="b" unicode="b" horiz-adv-x="1177" 
d="M555 113q164 0 270 139t107 326q0 137 -76 218t-201 81q-90 -1 -170 -49t-133 -121l-96 -435q39 -72 118 -116t181 -43zM575 -25q-115 1 -203 49t-141 132l-34 -156h-154l301 1366h154l-115 -518q135 166 317 166t288 -109q105 -109 106 -299q0 -252 -145 -442t-374 -189
z" />
    <glyph glyph-name="c" unicode="c" horiz-adv-x="1013" 
d="M538 -25q-204 0 -330 119t-126 324q0 246 162 421t408 175t358 -185l-117 -88q-76 135 -253 135t-288 -134q-111 -136 -110 -322q0 -147 87 -227t228 -80t244 116l88 -102q-147 -152 -351 -152z" />
    <glyph glyph-name="d" unicode="d" horiz-adv-x="1177" 
d="M621 877q-165 1 -271 -139t-106 -326q0 -137 76 -218t200 -81q88 0 170 48t131 120l99 436q-39 70 -118 115t-181 45zM600 1014q113 0 204 -48t140 -132l119 532h154l-304 -1366h-153l31 141q-133 -166 -317 -166t-288 109t-104 299q0 255 144 443t374 188z" />
    <glyph glyph-name="e" unicode="e" horiz-adv-x="1153" 
d="M926 596q0 127 -79 209t-217 82t-243 -97q-104 -98 -129 -233h664q4 16 4 39zM578 102q162 0 282 97l51 -107q-147 -117 -358 -117t-341 119t-130 320q0 248 162 424t395 176q193 0 309 -121t117 -311q0 -61 -16 -138h-807l-2 -47q0 -123 88 -209t250 -86z" />
    <glyph glyph-name="f" unicode="f" horiz-adv-x="579" 
d="M240 0h-154l188 856h-163l30 133h164l17 76q72 322 329 321q131 0 215 -83l-82 -93q-49 49 -127 50q-141 0 -182 -195l-16 -76h200l-30 -133h-201z" />
    <glyph glyph-name="g" unicode="g" horiz-adv-x="1175" 
d="M518 127q82 0 164 45t139 113l94 428q-41 76 -125 120t-182 44q-162 -1 -264 -137t-102 -294t74 -239q74 -80 202 -80zM434 -401q-303 0 -442 168l98 104q100 -145 342 -145q264 0 332 303l29 129q-133 -168 -336 -168q-166 0 -272 104q-105 104 -105 305q0 246 143 430
t373 185q98 0 194 -50t152 -130l35 155h153l-212 -960q-95 -430 -484 -430z" />
    <glyph glyph-name="h" unicode="h" horiz-adv-x="1130" 
d="M866 717q0 160 -204 160q-156 0 -306 -158l-159 -719h-154l301 1366h154l-115 -520q176 168 350 168q133 0 214 -65t81 -181q0 -41 -12 -82l-150 -686h-153l141 649q12 55 12 68z" />
    <glyph glyph-name="i" unicode="i" horiz-adv-x="460" 
d="M197 0h-154l219 989h154zM382 1130q-42 0 -69 26t-27 71t38 78t78 33t68 -28q28 -26 28 -70t-37 -77t-79 -33z" />
    <glyph glyph-name="j" unicode="j" horiz-adv-x="460" 
d="M382 1130q-42 0 -69 26t-27 71t38 78t78 33t68 -28q28 -26 28 -70t-37 -77t-79 -33zM-139 -401q-162 0 -236 86l74 110q51 -70 141 -69q139 0 180 178l242 1085h154l-242 -1085q-67 -305 -313 -305z" />
    <glyph glyph-name="k" unicode="k" horiz-adv-x="1052" 
d="M913 0h-186l-262 451l-207 -168l-61 -283h-154l301 1366h154l-197 -895l627 518h202l-538 -448z" />
    <glyph glyph-name="l" unicode="l" horiz-adv-x="460" 
d="M197 0h-154l301 1366h154z" />
    <glyph glyph-name="m" unicode="m" horiz-adv-x="1654" 
d="M1223 877q-137 0 -271 -156l-159 -721h-154l147 664q8 53 9 71q-2 61 -46 101t-126 41q-131 0 -267 -156l-159 -721h-154l219 989h154l-33 -143q145 168 311 168q119 0 187 -64t67 -121v-4q154 188 344 189q109 0 185 -66t75 -180q0 -20 -10 -82l-151 -686h-154l145 664
q8 41 9 59q-1 72 -49 113t-119 41z" />
    <glyph glyph-name="n" unicode="n" horiz-adv-x="1128" 
d="M866 717q0 82 -54 121t-140 39q-168 0 -316 -156l-159 -721h-154l219 989h154l-33 -143q176 168 350 168q133 0 214 -65t81 -181q0 -41 -12 -82l-152 -686h-153l143 649q12 55 12 68z" />
    <glyph glyph-name="o" unicode="o" 
d="M552 113q152 0 262 138q110 139 110 299t-78 244t-230 83t-262 -139q-111 -138 -110 -318q0 -141 78 -224t230 -83zM547 -25q-221 0 -343 120t-122 319q0 240 159 420t380 180t343 -121t121 -320q-1 -240 -159 -419t-379 -179z" />
    <glyph glyph-name="p" unicode="p" 
d="M555 113q164 0 270 139t107 326q0 137 -76 218t-201 81q-90 -1 -170 -49t-133 -121l-96 -435q39 -72 118 -116t181 -43zM575 -25q-115 1 -203 49t-141 132l-118 -533h-154l303 1366h154l-33 -141q135 166 317 166t288 -109q105 -109 106 -299q0 -252 -145 -442t-374 -189
z" />
    <glyph glyph-name="q" unicode="q" 
d="M621 877q-165 1 -271 -139t-106 -326q0 -137 76 -218t200 -81q88 0 170 48t131 120l99 436q-39 70 -118 115t-181 45zM600 1014q113 0 204 -48t140 -132l35 155h154l-304 -1366h-153l115 518q-133 -166 -317 -166t-288 109t-104 299q0 255 144 443t374 188z" />
    <glyph glyph-name="r" unicode="r" horiz-adv-x="675" 
d="M622 860q-68 0 -144 -47q-77 -47 -128 -115l-153 -698h-154l219 989h154l-35 -151q78 88 162 130t207 42l-35 -158q-25 8 -93 8z" />
    <glyph glyph-name="s" unicode="s" horiz-adv-x="952" 
d="M424 -25q-279 0 -418 175l98 106q44 -64 134 -110t193 -46t165 52t63 112q0 60 -53 100t-130 68q-78 28 -154 58t-129 86t-54 133q1 129 101 217t274 88q123 0 224 -46t153 -116l-88 -100q-35 55 -120 96t-179 41t-152 -43q-58 -42 -59 -100q0 -58 53 -94t130 -64
t154 -59q77 -32 130 -90t53 -138q1 -135 -105 -231t-284 -95z" />
    <glyph glyph-name="t" unicode="t" horiz-adv-x="602" 
d="M340 -25q-225 0 -225 181q0 27 6 57l143 643h-164l31 133h164l59 271h154l-59 -271h200l-31 -133h-200l-135 -610q-4 -25 -4 -41q0 -92 98 -92q57 0 94 32l18 -122q-61 -48 -149 -48z" />
    <glyph glyph-name="u" unicode="u" horiz-adv-x="1128" 
d="M262 272q0 -160 205 -159q150 0 305 155l158 721h153l-219 -989h-153l32 143q-176 -168 -348 -168q-135 0 -215 65t-80 181q0 31 11 82l151 686h154l-144 -647q-10 -51 -10 -70z" />
    <glyph glyph-name="v" unicode="v" horiz-adv-x="1003" 
d="M475 0h-168l-192 989h161l148 -811l510 811h172z" />
    <glyph glyph-name="w" unicode="w" horiz-adv-x="1503" 
d="M1053 0h-154l-82 795l-434 -795h-154l-96 989h154l65 -788l434 788h136l84 -788l413 788h168z" />
    <glyph glyph-name="x" unicode="x" horiz-adv-x="995" 
d="M862 0h-170l-209 406l-387 -406h-182l489 508l-249 481h170l190 -377l360 377h185l-467 -481z" />
    <glyph glyph-name="y" unicode="y" horiz-adv-x="1003" 
d="M55 -258q82 0 148 98l100 154l-188 995h161l148 -811l510 811h172l-762 -1190q-129 -201 -309 -200q-74 -1 -129 22l53 137q37 -16 96 -16z" />
    <glyph glyph-name="z" unicode="z" horiz-adv-x="966" 
d="M750 0h-754l24 119l701 735h-537l31 135h746l-27 -117l-705 -739h549z" />
    <glyph glyph-name="braceleft" unicode="{" horiz-adv-x="532" 
d="M203 -389q-92 0 -161 61t-69 158q0 31 7 55l94 422q4 25 4 53t-22 58q-22 31 -58 31l25 102q106 0 137 141l92 420q31 137 114 207t203 70h125l-24 -113h-125q-135 0 -172 -164l-101 -444q-31 -143 -131 -181q59 -31 60 -110q0 -37 -8 -70l-93 -420q-4 -25 -4 -43
q0 -53 33 -87t84 -33h113l-27 -113h-96z" />
    <glyph glyph-name="bar" unicode="|" horiz-adv-x="432" 
d="M313 -41h-112v1448h112v-1448z" />
    <glyph glyph-name="braceright" unicode="}" horiz-adv-x="532" 
d="M330 1389q92 1 160 -61t67 -159q0 -33 -6 -57l-94 -420q-4 -26 -4 -54q-1 -28 21 -58t58 -29l-22 -102q-109 0 -139 -142l-92 -420q-31 -137 -114 -207t-204 -69h-125l25 113h127q135 0 170 161l100 447q31 143 133 180q-59 31 -59 111q0 37 8 69l92 420q4 25 4 43
q0 51 -34 86t-85 35h-112l26 113h99z" />
    <glyph glyph-name="asciitilde" unicode="~" horiz-adv-x="1030" 
d="M496 1255q-74 0 -139 -106t-107 -285l-111 15q106 485 365 485q78 0 122 -40t56 -98t20 -116q19 -138 101 -137q75 -1 141 107t105 286l114 -14q-113 -485 -366 -486q-95 0 -141 60t-51 135q-5 74 -30 134t-79 60z" />
    <glyph glyph-name="nbspace" unicode="&#xa0;" horiz-adv-x="528" 
 />
    <glyph glyph-name="exclamdown" unicode="&#xa1;" horiz-adv-x="471" 
d="M328 1010q46 0 76 -30t30 -77t-36 -83t-83 -36t-77 31t-29 78q0 47 36 82t83 35zM195 606h127l-185 -983h-192z" />
    <glyph glyph-name="cent" unicode="&#xa2;" horiz-adv-x="1013" 
d="M242 420q0 -113 51 -187t139 -102l166 741q-162 -18 -259 -148t-97 -304zM82 418q0 244 158 418t389 178l33 143h120l-34 -153q176 -33 262 -175l-117 -88q-55 96 -176 127l-168 -755h2q147 0 250 116l88 -102q-147 -152 -352 -152h-17l-41 -180h-121l43 197
q-147 34 -233 146t-86 280z" />
    <glyph glyph-name="sterling" unicode="&#xa3;" horiz-adv-x="1060" 
d="M197 946q0 176 145 308t352 132q150 0 270 -68t152 -177l-155 -66q-17 74 -91 121t-188 47t-207 -86q-94 -86 -94 -225q0 -90 64 -196q32 -52 42 -77h301l-24 -110h-248v-17q0 -100 -69 -194t-154 -145q53 16 107 16t156 -42q101 -42 159 -42q109 0 186 82l43 -137
q-111 -96 -222 -96q-110 0 -238 46q-128 48 -217 48t-226 -82l-33 127q147 59 248 168q100 109 100 221q0 14 -4 47h-303l25 110h235q-8 13 -36 61q-76 128 -76 226z" />
    <glyph glyph-name="currency" unicode="&#xa4;" horiz-adv-x="1224" 
d="M683 1026q-155 0 -261 -120t-105 -266q0 -146 85 -225t234 -79t255 119t106 260t-79 226q-80 85 -235 85zM595 195q-169 0 -296 104l-203 -166l-86 107l201 161q-53 90 -53 213q0 233 159 394l-116 151l106 84l117 -151q129 76 274 75q193 0 320 -106l203 166l84 -103
l-203 -166q55 -100 55 -215q0 -229 -160 -389l115 -143l-106 -86l-115 145q-127 -75 -296 -75z" />
    <glyph glyph-name="yen" unicode="&#xa5;" horiz-adv-x="1282" 
d="M623 0h-170l55 250h-520l24 108h518l50 220h-519l25 106h444l-315 682h186l285 -635l563 635h211l-614 -682h432l-23 -106h-505l-50 -220h506l-24 -108h-504z" />
    <glyph glyph-name="brokenbar" unicode="&#xa6;" horiz-adv-x="432" 
d="M313 760h-112v647h112v-647zM313 -41h-112v647h112v-647z" />
    <glyph glyph-name="section" unicode="&#xa7;" horiz-adv-x="958" 
d="M735 628q0 64 -51 106q-51 40 -141 73q-139 -17 -209 -71t-70 -125t58 -109t192 -84q115 30 168 88t53 122zM893 652q0 -91 -66 -171t-188 -116q141 -76 141 -209q0 -134 -105 -228t-278 -94q-291 0 -440 166l98 94q51 -68 143 -108t193 -39q102 0 168 54q66 55 66 121
q1 66 -53 106t-130 68t-150 60t-128 88q-53 58 -53 150t76 169q77 77 221 101q-186 72 -187 226q-1 120 101 208t270 88q268 0 399 -153l-92 -84q-94 123 -301 123q-98 0 -160 -47t-63 -109q0 -62 53 -102q53 -39 130 -66q77 -28 153 -58t129 -88t53 -150z" />
    <glyph glyph-name="dieresis" unicode="&#xa8;" horiz-adv-x="557" 
d="M326 1244q0 -38 -33 -70t-71 -33t-64 25t-25 64q0 38 33 70t72 31q40 -1 64 -25t24 -62zM748 1244q0 -38 -32 -70t-71 -33t-63 25t-25 64q0 38 32 70t71 31q40 -1 64 -25t24 -62z" />
    <glyph glyph-name="copyright" unicode="&#xa9;" horiz-adv-x="1593" 
d="M782 248q-164 0 -270 108q-106 109 -106 273q0 205 147 349t336 144q219 0 319 -164l-63 -45q-76 141 -260 142q-154 0 -279 -123t-125 -301q0 -133 88 -224q89 -91 229 -91t236 96l39 -58q-127 -106 -291 -106zM1481 684q1 266 -189 454t-456 189q-266 0 -454 -188
q-188 -189 -187 -455q0 -266 187 -454q188 -188 454 -189q266 1 456 189t189 454zM1544 684q0 -293 -208 -500t-500 -207t-498 207q-207 207 -207 500t206 500t499 207q292 0 500 -207t208 -500z" />
    <glyph glyph-name="ordfeminine" unicode="&#xaa;" horiz-adv-x="839" 
d="M443 651q-117 0 -191 72q-74 71 -74 219t100 266t252 119q152 0 228 -110l18 94h119l-143 -643h-119l22 94q-94 -111 -212 -111zM301 952q-1 -204 191 -204q96 0 184 100l65 293q-57 90 -194 90q-102 0 -174 -87q-72 -86 -72 -192z" />
    <glyph glyph-name="guillemotleft" unicode="&#xab;" horiz-adv-x="899" 
d="M745 129h-145l-246 369l410 362h162l-418 -373zM451 129h-146l-246 369l410 362h162l-418 -373z" />
    <glyph glyph-name="logicalnot" unicode="&#xac;" horiz-adv-x="1032" 
d="M1059 936l-113 -504h-112l88 395h-791l25 109h903z" />
    <glyph glyph-name="uni00AD" unicode="&#xad;" horiz-adv-x="614" 
d="M537 428h-492l29 135h491z" />
    <glyph glyph-name="registered" unicode="&#xae;" horiz-adv-x="1011" 
d="M756 1059q0 41 -24 63t-60 21h-125l-41 -185h137q47 0 80 30t33 71zM682 1200q59 0 101 -36t42 -102t-51 -113q-51 -48 -112 -48l90 -199h-78l-86 197h-94l-43 -197h-66l109 498h188zM981 952q0 156 -111 266q-112 110 -268 110t-264 -110q-108 -108 -109 -265
q0 -157 110 -267q109 -110 265 -111q156 1 266 111t111 266zM172 952q0 180 127 308t307 126q180 0 307 -126t127 -307t-128 -308t-308 -127t-306 127t-126 307z" />
    <glyph glyph-name="macron" unicode="&#xaf;" horiz-adv-x="743" 
d="M891 1171h-741l20 99h741z" />
    <glyph glyph-name="degree" unicode="&#xb0;" horiz-adv-x="593" 
d="M588 1137q0 61 -45 106t-107 45t-105 -45q-44 -45 -44 -107t43 -106t104 -45q61 0 108 45q46 46 46 107zM686 1136q0 -102 -73 -176t-176 -74t-176 74q-73 72 -73 176t73 177t176 73t176 -74t73 -176z" />
    <glyph glyph-name="plusminus" unicode="&#xb1;" horiz-adv-x="1021" 
d="M852 0h-903l22 106h903zM997 664h-393l-96 -439h-117l96 439h-393l25 106h393l92 424h119l-94 -424h393z" />
    <glyph glyph-name="twosuperior" unicode="&#xb2;" horiz-adv-x="794" 
d="M782 1462q0 64 -51 98t-123 33q-139 0 -229 -96l-57 82q111 115 290 115q121 0 208 -56t87 -174t-130 -232t-388 -269h412l-23 -101h-596l23 101q317 188 447 292t130 207z" />
    <glyph glyph-name="threesuperior" unicode="&#xb3;" horiz-adv-x="794" 
d="M834 1083q0 -83 -83 -159t-219 -76q-240 0 -327 149l82 70q82 -119 241 -119q84 0 132 46t48 108t-54 97q-56 34 -126 34t-84 -2l23 102q57 -4 134 -4t127 37t50 98q0 62 -55 96t-133 33q-119 0 -221 -88l-47 80q119 109 264 109t231 -54t86 -150q0 -94 -63 -152
t-164 -66q66 -12 112 -59t46 -130z" />
    <glyph glyph-name="acute" unicode="&#xb4;" horiz-adv-x="462" 
d="M670 1434l-412 -295h-121l369 295h164z" />
    <glyph glyph-name="mu" unicode="&#xb5;" horiz-adv-x="1155" 
d="M436 109q90 0 180 45t150 108l162 727h153l-168 -758q-27 -119 70 -118q20 0 41 4l-18 -133q-45 -8 -84 -9q-182 0 -172 177q-172 -176 -355 -177q-141 1 -184 99l-102 -451h-154l309 1366h154l-146 -649q-26 -115 24 -173t140 -58z" />
    <glyph glyph-name="paragraph" unicode="&#xb6;" horiz-adv-x="919" 
d="M162 988q0 144 116 260q116 118 281 118h406l-349 -1571h-92l328 1479h-182l-328 -1479h-92l192 867q-116 0 -198 91t-82 235z" />
    <glyph glyph-name="periodcentered" unicode="&#xb7;" horiz-adv-x="471" 
d="M229 389q-47 0 -77 30t-29 77q0 47 36 83q36 35 83 35q46 0 76 -30t30 -78q0 -47 -36 -82t-83 -35z" />
    <glyph glyph-name="cedilla" unicode="&#xb8;" horiz-adv-x="419" 
d="M39 -391q-139 0 -221 78l55 73q68 -72 170 -71q59 1 92 27t33 69q0 61 -76 61q-41 0 -72 -34l-59 38l102 173h93l-84 -136q30 23 76 23t79 -32t33 -100t-62 -119q-62 -50 -159 -50z" />
    <glyph glyph-name="onesuperior" unicode="&#xb9;" horiz-adv-x="481" 
d="M438 862h-123l142 651l-160 -135l-59 78l272 225h108z" />
    <glyph glyph-name="ordmasculine" unicode="&#xba;" horiz-adv-x="829" 
d="M299 954q1 -204 201 -204q98 0 167 85t69 185t-52 152q-50 52 -148 52t-168 -84q-70 -86 -69 -186zM858 1020q0 -144 -110 -256t-256 -113q-148 0 -232 81q-84 82 -84 226t110 256t257 113q147 0 231 -81q84 -82 84 -226z" />
    <glyph glyph-name="guillemotright" unicode="&#xbb;" horiz-adv-x="899" 
d="M453 860h145l246 -368l-410 -363h-162l418 373zM158 860h145l246 -368l-410 -363h-162l418 373z" />
    <glyph glyph-name="onequarter" unicode="&#xbc;" horiz-adv-x="1576" 
d="M1399 1366l-1176 -1366h-112l1173 1366h115zM1217 305l88 397l-365 -397h277zM1436 205h-119l-45 -205h-121l45 205h-401l18 90l469 524h170l-113 -514h117zM369 547h-123l141 651l-160 -135l-59 78l272 225h109z" />
    <glyph glyph-name="onehalf" unicode="&#xbd;" horiz-adv-x="1652" 
d="M1399 1366l-1176 -1366h-112l1173 1366h115zM1448 600q0 63 -51 97t-123 34q-139 0 -230 -96l-57 82q111 115 291 114q121 0 208 -56t87 -173q0 -118 -130 -232t-388 -270h411l-22 -100h-596l22 100q318 188 448 292t130 208zM369 547h-123l141 651l-160 -135l-59 78
l272 225h109z" />
    <glyph glyph-name="threequarters" unicode="&#xbe;" horiz-adv-x="1798" 
d="M764 767q0 -83 -83 -159t-218 -76q-240 0 -328 150l82 70q82 -119 242 -119q84 0 132 46q48 47 48 109t-55 96t-125 34t-84 -3l22 103q57 -4 134 -4t127 37t50 98t-54 95q-56 34 -134 34q-119 0 -221 -88l-47 80q119 108 264 108q146 0 232 -54t86 -150t-64 -152
q-64 -57 -164 -66q66 -12 112 -59t46 -130zM1620 1366l-1176 -1366h-112l1173 1366h115zM1440 305l88 397l-365 -397h277zM1659 205h-119l-45 -205h-121l45 205h-401l18 90l469 524h170l-112 -514h116z" />
    <glyph glyph-name="questiondown" unicode="&#xbf;" horiz-adv-x="806" 
d="M582 1010q46 0 76 -31t30 -78t-37 -82t-84 -35t-77 30t-30 77t38 83q37 36 84 36zM600 464q0 -80 -50 -142q-50 -60 -121 -100t-143 -77q-172 -89 -171 -215q-1 -82 65 -130t185 -48q178 0 315 133l76 -116q-180 -168 -412 -168q-180 0 -296 83t-116 218q0 86 38 154
t96 106q133 89 221 131q164 80 164 178q0 49 -33 84l135 55q47 -66 47 -146z" />
    <glyph glyph-name="Agrave" unicode="&#xc0;" horiz-adv-x="1347" 
d="M1006 1481h-117l-281 295h160zM963 455l-129 735l-451 -735h580zM1219 0h-187l-53 303h-682l-186 -303h-203l850 1366h211z" />
    <glyph glyph-name="Aacute" unicode="&#xc1;" horiz-adv-x="1347" 
d="M1300 1776l-411 -295h-121l369 295h163zM963 455l-129 735l-451 -735h580zM1219 0h-187l-53 303h-682l-186 -303h-203l850 1366h211z" />
    <glyph glyph-name="Acircumflex" unicode="&#xc2;" horiz-adv-x="1347" 
d="M963 455l-129 735l-451 -735h580zM1219 0h-187l-53 303h-682l-186 -303h-203l850 1366h211zM1161 1481h-100l-123 217l-211 -217h-109l261 295h147z" />
    <glyph glyph-name="Atilde" unicode="&#xc3;" horiz-adv-x="1347" 
d="M1034 1477q-51 -1 -86 29t-50 65t-43 65t-64 29q-86 0 -125 -176h-95q55 274 234 274q51 1 86 -29t50 -65t43 -65t65 -29q82 0 127 176h94q-60 -274 -236 -274zM963 455l-129 735l-451 -735h580zM1219 0h-187l-53 303h-682l-186 -303h-203l850 1366h211z" />
    <glyph glyph-name="Adieresis" unicode="&#xc4;" horiz-adv-x="1347" 
d="M963 455l-129 735l-451 -735h580zM1219 0h-187l-53 303h-682l-186 -303h-203l850 1366h211zM797 1586q0 -38 -33 -70t-71 -33q-37 -1 -63 25t-26 64t33 70t72 31t63 -25t25 -62zM1219 1586q0 -38 -32 -70t-71 -33q-40 -1 -64 25t-24 64t32 70t71 31t63 -25t25 -62z" />
    <glyph glyph-name="Aring" unicode="&#xc5;" horiz-adv-x="1347" 
d="M799 1607q-1 -50 29 -81t80 -31t90 39t40 90t-28 81q-29 30 -80 30t-91 -39t-40 -89zM933 1817q85 1 136 -51t51 -137t-66 -151t-150 -65q-85 0 -136 51t-51 135t65 151q66 67 151 67zM963 455l-129 735l-451 -735h580zM1219 0h-187l-53 303h-682l-186 -303h-203
l850 1366h211z" />
    <glyph glyph-name="AE" unicode="&#xc6;" horiz-adv-x="1939" 
d="M924 455l157 725l-606 -725h449zM1718 0h-895l66 303h-531l-254 -303h-200l1153 1366h962l-32 -152h-725l-99 -440h711l-33 -151h-713l-104 -471h727z" />
    <glyph glyph-name="Ccedilla" unicode="&#xc7;" horiz-adv-x="1384" 
d="M627 -391q-139 0 -221 78l55 73q68 -72 170 -71q59 1 92 27t33 69q0 61 -76 61q-41 0 -72 -34l-59 38l80 136q-227 37 -367 194q-139 158 -139 393q0 180 64 335q125 299 417 422q138 58 312 58t317 -85q143 -86 215 -236l-162 -63q-119 233 -405 233q-229 0 -403 -184
t-175 -471q0 -203 125 -329t331 -126t371 156l125 -95q-199 -213 -501 -213q-27 0 -39 2l-56 -90q31 23 77 23t79 -32t33 -100t-62 -119q-62 -50 -159 -50z" />
    <glyph glyph-name="Egrave" unicode="&#xc8;" horiz-adv-x="1165" 
d="M942 1481h-117l-280 295h160zM944 0h-895l301 1366h895l-33 -152h-725l-98 -440h711l-33 -151h-713l-104 -471h727z" />
    <glyph glyph-name="Eacute" unicode="&#xc9;" horiz-adv-x="1165" 
d="M944 0h-895l301 1366h895l-33 -152h-725l-98 -440h711l-33 -151h-713l-104 -471h727zM1235 1776l-412 -295h-121l369 295h164z" />
    <glyph glyph-name="Ecircumflex" unicode="&#xca;" horiz-adv-x="1165" 
d="M944 0h-895l301 1366h895l-33 -152h-725l-98 -440h711l-33 -151h-713l-104 -471h727zM1094 1481h-101l-123 217l-211 -217h-108l260 295h147z" />
    <glyph glyph-name="Edieresis" unicode="&#xcb;" horiz-adv-x="1165" 
d="M944 0h-895l301 1366h895l-33 -152h-725l-98 -440h711l-33 -151h-713l-104 -471h727zM729 1586q0 -38 -33 -70q-32 -32 -70 -33t-64 25t-26 64t34 70q32 32 71 31q39 0 64 -24q24 -25 24 -63zM1151 1586q0 -38 -32 -70t-71 -33q-40 -1 -64 25t-24 64t32 70t71 31t63 -25
t25 -62z" />
    <glyph glyph-name="Igrave" unicode="&#xcc;" horiz-adv-x="489" 
d="M578 1481h-117l-281 295h160zM219 0h-170l301 1366h170z" />
    <glyph glyph-name="Iacute" unicode="&#xcd;" horiz-adv-x="489" 
d="M872 1776l-411 -295h-121l369 295h163zM219 0h-170l301 1366h170z" />
    <glyph glyph-name="Icircumflex" unicode="&#xce;" horiz-adv-x="489" 
d="M219 0h-170l301 1366h170zM733 1481h-100l-123 217l-211 -217h-109l261 295h147z" />
    <glyph glyph-name="Idieresis" unicode="&#xcf;" horiz-adv-x="489" 
d="M219 0h-170l301 1366h170zM367 1586q0 -38 -33 -70t-71 -33q-37 -1 -63 25t-26 64t33 70t72 31t63 -25t25 -62zM788 1586q0 -38 -32 -70t-70 -33q-40 -1 -64 25t-24 64t32 70t71 31t63 -25t24 -62z" />
    <glyph glyph-name="Eth" unicode="&#xd0;" horiz-adv-x="1490" 
d="M600 152q293 0 473 181t180 441q0 188 -120 315q-121 126 -302 125h-286l-103 -460h346l-30 -142h-348l-103 -460h293zM571 0h-465l136 612h-197l31 142h196l136 612h456q232 0 400 -166t168 -418q0 -296 -206 -529q-102 -113 -272 -183t-383 -70z" />
    <glyph glyph-name="Ntilde" unicode="&#xd1;" horiz-adv-x="1449" 
d="M1180 0h-164l-551 1114l-246 -1114h-170l301 1366h174l545 -1094l242 1094h170zM1085 1477q-51 -1 -86 29t-50 65t-43 65t-64 29q-86 0 -125 -176h-94q55 274 233 274q51 1 86 -29t50 -65t43 -65t65 -29q84 0 127 176h94q-60 -274 -236 -274z" />
    <glyph glyph-name="Ograve" unicode="&#xd2;" horiz-adv-x="1566" 
d="M764 127q236 0 406 188t171 467q0 211 -131 333t-329 122q-240 0 -409 -187t-169 -468q0 -213 131 -334t330 -121zM754 -25q-272 0 -452 161q-179 161 -179 437q0 342 224 579t544 237q272 0 451 -161t180 -435q0 -344 -224 -581t-544 -237zM1118 1481h-117l-280 295h160
z" />
    <glyph glyph-name="Oacute" unicode="&#xd3;" horiz-adv-x="1566" 
d="M764 127q236 0 406 188t171 467q0 211 -131 333t-329 122q-240 0 -409 -187t-169 -468q0 -213 131 -334t330 -121zM754 -25q-272 0 -452 161q-179 161 -179 437q0 342 224 579t544 237q272 0 451 -161t180 -435q0 -344 -224 -581t-544 -237zM1411 1776l-412 -295h-120
l368 295h164z" />
    <glyph glyph-name="Ocircumflex" unicode="&#xd4;" horiz-adv-x="1566" 
d="M764 127q236 0 406 188t171 467q0 211 -131 333t-329 122q-240 0 -409 -187t-169 -468q0 -213 131 -334t330 -121zM754 -25q-272 0 -452 161q-179 161 -179 437q0 342 224 579t544 237q272 0 451 -161t180 -435q0 -344 -224 -581t-544 -237zM1274 1481h-100l-123 217
l-211 -217h-109l260 295h148z" />
    <glyph glyph-name="Otilde" unicode="&#xd5;" horiz-adv-x="1566" 
d="M1145 1477q-51 -1 -86 29t-50 65t-43 65t-65 29q-86 0 -125 -176h-94q55 274 233 274q51 1 86 -29t51 -65t43 -65q28 -30 64 -29q82 0 127 176h94q-59 -274 -235 -274zM764 127q236 0 406 188t171 467q0 211 -131 333t-329 122q-240 0 -409 -187t-169 -468
q0 -213 131 -334t330 -121zM754 -25q-272 0 -452 161q-179 161 -179 437q0 342 224 579t544 237q272 0 451 -161t180 -435q0 -344 -224 -581t-544 -237z" />
    <glyph glyph-name="Odieresis" unicode="&#xd6;" horiz-adv-x="1566" 
d="M764 127q236 0 406 188t171 467q0 211 -131 333t-329 122q-240 0 -409 -187t-169 -468q0 -213 131 -334t330 -121zM754 -25q-272 0 -452 161q-179 161 -179 437q0 342 224 579t544 237q272 0 451 -161t180 -435q0 -344 -224 -581t-544 -237zM907 1586q0 -38 -33 -70
q-32 -32 -70 -33t-64 25t-26 64t34 70t72 31q38 0 63 -24q24 -25 24 -63zM1329 1586q0 -38 -32 -70q-33 -32 -71 -33t-63 25t-25 64t32 70t71 31q39 0 64 -24q24 -25 24 -63z" />
    <glyph glyph-name="multiply" unicode="&#xd7;" horiz-adv-x="1021" 
d="M776 307l-235 301l-375 -307l-68 82l379 307l-235 301l86 70l231 -301l377 307l65 -82l-374 -309l233 -301z" />
    <glyph glyph-name="Oslash" unicode="&#xd8;" horiz-adv-x="1566" 
d="M303 582q0 -178 92 -293l770 862q-117 86 -284 86q-240 0 -409 -187t-169 -468zM764 127q236 0 406 188t171 467q0 178 -102 301l-772 -864q119 -92 297 -92zM754 -25q-229 0 -398 117l-84 -92h-135l142 160q-156 162 -156 413q0 342 224 579t544 237q223 0 387 -111
l80 88h135l-137 -152q166 -166 166 -421q0 -344 -224 -581t-544 -237z" />
    <glyph glyph-name="Ugrave" unicode="&#xd9;" horiz-adv-x="1433" 
d="M1051 1481h-117l-281 295h160zM691 -25q-255 0 -395 123t-140 332q0 39 10 100l184 836h170l-182 -831q-10 -41 -10 -86q0 -143 95 -233t270 -89q175 0 275 103q99 103 142 305l184 831h170l-182 -834q-60 -272 -198 -414t-393 -143z" />
    <glyph glyph-name="Uacute" unicode="&#xda;" horiz-adv-x="1433" 
d="M691 -25q-255 0 -395 123t-140 332q0 39 10 100l184 836h170l-182 -831q-10 -41 -10 -86q0 -143 95 -233t270 -89q175 0 275 103q99 103 142 305l184 831h170l-182 -834q-60 -272 -198 -414t-393 -143zM1346 1776l-412 -295h-121l369 295h164z" />
    <glyph glyph-name="Ucircumflex" unicode="&#xdb;" horiz-adv-x="1433" 
d="M691 -25q-255 0 -395 123t-140 332q0 39 10 100l184 836h170l-182 -831q-10 -41 -10 -86q0 -143 95 -233t270 -89q175 0 275 103q99 103 142 305l184 831h170l-182 -834q-60 -272 -198 -414t-393 -143zM1204 1481h-100l-123 217l-211 -217h-108l260 295h147z" />
    <glyph glyph-name="Udieresis" unicode="&#xdc;" horiz-adv-x="1433" 
d="M691 -25q-255 0 -395 123t-140 332q0 39 10 100l184 836h170l-182 -831q-10 -41 -10 -86q0 -143 95 -233t270 -89q175 0 275 103q99 103 142 305l184 831h170l-182 -834q-60 -272 -198 -414t-393 -143zM840 1586q0 -38 -33 -70t-71 -33t-64 25t-25 64q0 38 33 70t72 31
q40 -1 64 -25t24 -62zM1262 1586q0 -38 -32 -70t-71 -33t-63 25t-25 64q0 38 32 70t71 31q40 -1 64 -25t24 -62z" />
    <glyph glyph-name="Yacute" unicode="&#xdd;" horiz-adv-x="1282" 
d="M1268 1776l-412 -295h-121l369 295h164zM616 0h-170l127 578l-364 788h186l285 -635l563 635h211l-711 -788z" />
    <glyph glyph-name="Thorn" unicode="&#xde;" horiz-adv-x="1202" 
d="M674 451q158 0 245 89q87 90 87 198t-68 170t-160 63h-346l-115 -520h357zM825 1122q152 0 255 -103q104 -103 104 -264t-121 -302q-59 -70 -163 -112t-238 -42h-377l-66 -299h-170l301 1366h170l-53 -244h358z" />
    <glyph glyph-name="germandbls" unicode="&#xdf;" horiz-adv-x="1222" 
d="M1145 297q1 -129 -103 -225t-262 -96t-256 42q-98 43 -180 140l96 98q121 -156 326 -156q102 0 164 54t61 114q0 62 -51 98t-123 60q-73 24 -145 54q-72 28 -123 81t-51 130t40 134t98 90t116 60t97 61q40 34 40 85q1 52 -61 90t-150 38t-160 -61t-96 -166l-225 -1022
h-154l225 1022q37 162 147 263t263 101t262 -70t109 -177q0 -74 -41 -128q-40 -54 -100 -85t-118 -59q-141 -68 -141 -152t175 -144q73 -25 146 -55t124 -85q51 -56 51 -134z" />
    <glyph glyph-name="agrave" unicode="&#xe0;" horiz-adv-x="1177" 
d="M836 1139h-117l-281 295h160zM621 877q-165 1 -271 -139t-106 -326q0 -137 76 -218t200 -81q88 0 170 48t131 120l99 436q-39 70 -118 115t-181 45zM600 1014q113 0 204 -48t140 -132l35 155h154l-220 -989h-153l31 141q-133 -166 -317 -166t-288 109t-104 299
q0 255 144 443t374 188z" />
    <glyph glyph-name="aacute" unicode="&#xe1;" horiz-adv-x="1177" 
d="M1126 1434l-411 -295h-121l369 295h163zM621 877q-165 1 -271 -139t-106 -326q0 -137 76 -218t200 -81q88 0 170 48t131 120l99 436q-39 70 -118 115t-181 45zM600 1014q113 0 204 -48t140 -132l35 155h154l-220 -989h-153l31 141q-133 -166 -317 -166t-288 109t-104 299
q0 255 144 443t374 188z" />
    <glyph glyph-name="acircumflex" unicode="&#xe2;" horiz-adv-x="1177" 
d="M989 1139h-100l-123 217l-211 -217h-109l261 295h147zM621 877q-165 1 -271 -139t-106 -326q0 -137 76 -218t200 -81q88 0 170 48t131 120l99 436q-39 70 -118 115t-181 45zM600 1014q113 0 204 -48t140 -132l35 155h154l-220 -989h-153l31 141q-133 -166 -317 -166
t-288 109t-104 299q0 255 144 443t374 188z" />
    <glyph glyph-name="atilde" unicode="&#xe3;" horiz-adv-x="1177" 
d="M864 1135q-51 -1 -86 29t-50 65t-43 65t-64 29q-86 0 -125 -176h-95q55 274 234 274q51 1 86 -29t50 -65t43 -65t65 -29q84 0 127 176h94q-60 -274 -236 -274zM621 877q-165 1 -271 -139t-106 -326q0 -137 76 -218t200 -81q88 0 170 48t131 120l99 436q-39 70 -118 115
t-181 45zM600 1014q113 0 204 -48t140 -132l35 155h154l-220 -989h-153l31 141q-133 -166 -317 -166t-288 109t-104 299q0 255 144 443t374 188z" />
    <glyph glyph-name="adieresis" unicode="&#xe4;" horiz-adv-x="1177" 
d="M625 1244q0 -38 -33 -70t-71 -33q-37 -1 -63 25t-26 64t33 70t72 31t63 -25t25 -62zM1047 1244q0 -38 -32 -70t-71 -33q-40 -1 -64 25t-24 64t32 70t71 31t63 -25t25 -62zM621 877q-165 1 -271 -139t-106 -326q0 -137 76 -218t200 -81q88 0 170 48t131 120l99 436
q-39 70 -118 115t-181 45zM600 1014q113 0 204 -48t140 -132l35 155h154l-220 -989h-153l31 141q-133 -166 -317 -166t-288 109t-104 299q0 255 144 443t374 188z" />
    <glyph glyph-name="aring" unicode="&#xe5;" horiz-adv-x="1177" 
d="M635 1300q-1 -50 29 -82q30 -30 80 -30t91 39q39 39 39 90t-28 81q-29 30 -80 30t-91 -40q-40 -38 -40 -88zM740 1106q-85 0 -136 51t-51 135t65 151q66 67 151 67t136 -52q51 -51 51 -136t-65 -151q-66 -65 -151 -65zM621 877q-165 1 -271 -139t-106 -326
q0 -137 76 -218t200 -81q88 0 170 48t131 120l99 436q-39 70 -118 115t-181 45zM600 1014q113 0 204 -48t140 -132l35 155h154l-220 -989h-153l31 141q-133 -166 -317 -166t-288 109t-104 299q0 255 144 443t374 188z" />
    <glyph glyph-name="ae" unicode="&#xe6;" horiz-adv-x="1921" 
d="M1694 596q0 129 -75 210t-212 81t-243 -97q-105 -98 -130 -233h656q4 16 4 39zM474 -25q-184 0 -288 109t-104 299q0 254 144 442t374 189q113 0 204 -48t140 -132l35 155h154l-37 -168q61 80 155 136t203 57q184 0 284 -115t99 -309q0 -82 -18 -146h-799q-2 -8 -2 -47
q0 -123 87 -207t246 -84t277 97l53 -111q-157 -117 -319 -117t-261 73t-134 194l-54 -242h-153l31 141q-133 -166 -317 -166zM621 877q-165 1 -271 -139t-106 -326q0 -137 76 -218t200 -81q88 0 170 48t131 120l99 436q-39 70 -118 115t-181 45z" />
    <glyph glyph-name="ccedilla" unicode="&#xe7;" horiz-adv-x="1013" 
d="M424 -391q-139 0 -221 78l55 73q68 -72 170 -71q59 1 92 27t33 69q0 61 -76 61q-41 0 -71 -34l-60 38l80 136q-158 32 -251 144t-93 288q0 246 162 421t408 175t358 -185l-117 -88q-76 135 -253 135t-288 -134q-111 -136 -110 -322q0 -147 87 -227t228 -80t244 116
l88 -102q-147 -152 -352 -152h-25l-55 -88q31 23 77 23t78 -32q33 -32 33 -100q1 -68 -61 -119q-62 -50 -160 -50z" />
    <glyph glyph-name="egrave" unicode="&#xe8;" horiz-adv-x="1153" 
d="M842 1139h-117l-281 295h160zM926 596q0 127 -79 209t-217 82t-243 -97q-104 -98 -129 -233h664q4 16 4 39zM578 102q162 0 282 97l51 -107q-147 -117 -358 -117t-341 119t-130 320q0 248 162 424t395 176q193 0 309 -121t117 -311q0 -61 -16 -138h-807l-2 -47
q0 -123 88 -209t250 -86z" />
    <glyph glyph-name="eacute" unicode="&#xe9;" horiz-adv-x="1153" 
d="M926 596q0 127 -79 209t-217 82t-243 -97q-104 -98 -129 -233h664q4 16 4 39zM578 102q162 0 282 97l51 -107q-147 -117 -358 -117t-341 119t-130 320q0 248 162 424t395 176q193 0 309 -121t117 -311q0 -61 -16 -138h-807l-2 -47q0 -123 88 -209t250 -86zM1137 1434
l-412 -295h-121l369 295h164z" />
    <glyph glyph-name="ecircumflex" unicode="&#xea;" horiz-adv-x="1153" 
d="M926 596q0 127 -79 209t-217 82t-243 -97q-104 -98 -129 -233h664q4 16 4 39zM578 102q162 0 282 97l51 -107q-147 -117 -358 -117t-341 119t-130 320q0 248 162 424t395 176q193 0 309 -121t117 -311q0 -61 -16 -138h-807l-2 -47q0 -123 88 -209t250 -86zM993 1139h-100
l-123 217l-211 -217h-108l260 295h147z" />
    <glyph glyph-name="edieresis" unicode="&#xeb;" horiz-adv-x="1153" 
d="M926 596q0 127 -79 209t-217 82t-243 -97q-104 -98 -129 -233h664q4 16 4 39zM578 102q162 0 282 97l51 -107q-147 -117 -358 -117t-341 119t-130 320q0 248 162 424t395 176q193 0 309 -121t117 -311q0 -61 -16 -138h-807l-2 -47q0 -123 88 -209t250 -86zM631 1244
q0 -38 -33 -70t-71 -33q-37 -1 -63 25t-26 64t33 70t72 31t63 -25t25 -62zM1053 1244q0 -38 -32 -70t-71 -33q-40 -1 -64 25t-24 64t32 70t71 31t63 -25t25 -62z" />
    <glyph glyph-name="igrave" unicode="&#xec;" horiz-adv-x="460" 
d="M489 1139h-116l-281 295h160zM197 0h-154l219 989h154z" />
    <glyph glyph-name="iacute" unicode="&#xed;" horiz-adv-x="460" 
d="M197 0h-154l219 989h154zM784 1434l-411 -295h-121l369 295h163z" />
    <glyph glyph-name="icircumflex" unicode="&#xee;" horiz-adv-x="460" 
d="M197 0h-154l219 989h154zM643 1139h-100l-123 217l-211 -217h-109l260 295h148z" />
    <glyph glyph-name="idieresis" unicode="&#xef;" horiz-adv-x="460" 
d="M197 0h-154l219 989h154zM279 1244q0 -38 -33 -70t-71 -33q-37 -1 -63 25t-26 64t33 70t72 31t63 -25t25 -62zM700 1244q0 -38 -32 -70t-70 -33q-40 -1 -64 25t-24 64t32 70t70 31q38 0 64 -24q24 -25 24 -63z" />
    <glyph glyph-name="eth" unicode="&#xf0;" 
d="M550 113q148 0 258 129t110 311q0 117 -78 204t-229 87t-261 -125t-108 -307q0 -133 80 -216t228 -83zM1090 630q0 -282 -155 -468t-394 -187q-205 0 -333 119t-128 303q0 244 150 414q151 170 362 170q109 0 202 -54t140 -165q-63 197 -246 381l-323 -96l-23 81l274 82
q-68 57 -133 109l109 117q111 -82 199 -174l233 69l23 -82l-193 -57q236 -280 236 -562z" />
    <glyph glyph-name="ntilde" unicode="&#xf1;" horiz-adv-x="1128" 
d="M850 1135q-51 -1 -86 29t-50 65t-43 65t-65 29q-86 0 -125 -176h-94q55 274 234 274q51 1 86 -29t50 -65t43 -65t64 -29q82 0 127 176h94q-59 -274 -235 -274zM866 717q0 82 -54 121t-140 39q-168 0 -316 -156l-159 -721h-154l219 989h154l-33 -143q176 168 350 168
q133 0 214 -65t81 -181q0 -41 -12 -82l-152 -686h-153l143 649q12 55 12 68z" />
    <glyph glyph-name="ograve" unicode="&#xf2;" 
d="M846 1139h-117l-280 295h159zM552 113q152 0 262 138q110 139 110 299t-78 244t-230 83t-262 -139q-111 -138 -110 -318q0 -141 78 -224t230 -83zM547 -25q-221 0 -343 120t-122 319q0 240 159 420t380 180t343 -121t121 -320q-1 -240 -159 -419t-379 -179z" />
    <glyph glyph-name="oacute" unicode="&#xf3;" 
d="M552 113q152 0 262 138q110 139 110 299t-78 244t-230 83t-262 -139q-111 -138 -110 -318q0 -141 78 -224t230 -83zM547 -25q-221 0 -343 120t-122 319q0 240 159 420t380 180t343 -121t121 -320q-1 -240 -159 -419t-379 -179zM1137 1434l-412 -295h-121l369 295h164z
" />
    <glyph glyph-name="ocircumflex" unicode="&#xf4;" 
d="M552 113q152 0 262 138q110 139 110 299t-78 244t-230 83t-262 -139q-111 -138 -110 -318q0 -141 78 -224t230 -83zM547 -25q-221 0 -343 120t-122 319q0 240 159 420t380 180t343 -121t121 -320q-1 -240 -159 -419t-379 -179zM997 1139h-100l-123 217l-211 -217h-108
l260 295h147z" />
    <glyph glyph-name="otilde" unicode="&#xf5;" 
d="M874 1135q-51 -1 -86 29t-50 65t-43 65t-64 29q-86 0 -125 -176h-94q55 274 233 274q51 1 86 -29t50 -65t43 -65t65 -29q82 0 127 176h94q-60 -274 -236 -274zM552 113q152 0 262 138q110 139 110 299t-78 244t-230 83t-262 -139q-111 -138 -110 -318q0 -141 78 -224
t230 -83zM547 -25q-221 0 -343 120t-122 319q0 240 159 420t380 180t343 -121t121 -320q-1 -240 -159 -419t-379 -179z" />
    <glyph glyph-name="odieresis" unicode="&#xf6;" 
d="M552 113q152 0 262 138q110 139 110 299t-78 244t-230 83t-262 -139q-111 -138 -110 -318q0 -141 78 -224t230 -83zM547 -25q-221 0 -343 120t-122 319q0 240 159 420t380 180t343 -121t121 -320q-1 -240 -159 -419t-379 -179zM635 1244q0 -38 -33 -70t-71 -33
q-37 -1 -63 25t-26 64t33 70t72 31t63 -25t25 -62zM1057 1244q0 -38 -32 -70t-71 -33q-40 -1 -64 25t-24 64t32 70t71 31t63 -25t25 -62z" />
    <glyph glyph-name="divide" unicode="&#xf7;" horiz-adv-x="1046" 
d="M645 983q-39 0 -65 26q-26 25 -25 63q0 38 31 69q32 31 70 31t63 -26t25 -65t-30 -69t-69 -29zM473 203q-39 -1 -65 25t-25 64q0 38 31 68q32 30 70 29q38 1 63 -25t25 -65t-30 -68q-30 -28 -69 -28zM1018 637h-928l23 106h927z" />
    <glyph glyph-name="oslash" unicode="&#xf8;" 
d="M244 420q0 -92 35 -162l552 547q-78 72 -202 72q-165 -1 -275 -139t-110 -318zM539 113q165 0 275 138t110 318q0 98 -41 170l-555 -551q76 -75 211 -75zM82 414q0 240 159 420t392 180q188 0 307 -101l78 76h119l-140 -137q88 -113 88 -279q-1 -241 -159 -419t-391 -179
q-195 0 -318 107l-82 -82h-119l146 143q-80 106 -80 271z" />
    <glyph glyph-name="ugrave" unicode="&#xf9;" horiz-adv-x="1128" 
d="M823 1139h-116l-281 295h160zM262 272q0 -160 205 -159q150 0 305 155l158 721h153l-219 -989h-153l32 143q-176 -168 -348 -168q-135 0 -215 65t-80 181q0 31 11 82l151 686h154l-144 -647q-10 -51 -10 -70z" />
    <glyph glyph-name="uacute" unicode="&#xfa;" horiz-adv-x="1128" 
d="M262 272q0 -160 205 -159q150 0 305 155l158 721h153l-219 -989h-153l32 143q-176 -168 -348 -168q-135 0 -215 65t-80 181q0 31 11 82l151 686h154l-144 -647q-10 -51 -10 -70zM1116 1434l-411 -295h-121l368 295h164z" />
    <glyph glyph-name="ucircumflex" unicode="&#xfb;" horiz-adv-x="1128" 
d="M262 272q0 -160 205 -159q150 0 305 155l158 721h153l-219 -989h-153l32 143q-176 -168 -348 -168q-135 0 -215 65t-80 181q0 31 11 82l151 686h154l-144 -647q-10 -51 -10 -70zM977 1139h-100l-123 217l-211 -217h-109l260 295h148z" />
    <glyph glyph-name="udieresis" unicode="&#xfc;" horiz-adv-x="1128" 
d="M262 272q0 -160 205 -159q150 0 305 155l158 721h153l-219 -989h-153l32 143q-176 -168 -348 -168q-135 0 -215 65t-80 181q0 31 11 82l151 686h154l-144 -647q-10 -51 -10 -70zM614 1244q0 -38 -32 -70t-71 -33q-38 -1 -64 25q-25 26 -25 64t33 70t71 31q38 0 64 -24
q24 -25 24 -63zM1036 1244q0 -38 -32 -70t-70 -33q-39 -1 -64 25q-24 26 -24 64t32 70t70 31q38 0 64 -24q24 -25 24 -63z" />
    <glyph glyph-name="yacute" unicode="&#xfd;" horiz-adv-x="1003" 
d="M1049 1434l-412 -295h-121l369 295h164zM55 -258q82 0 148 98l100 154l-188 995h161l148 -811l510 811h172l-762 -1190q-129 -201 -309 -200q-74 -1 -129 22l53 137q37 -16 96 -16z" />
    <glyph glyph-name="thorn" unicode="&#xfe;" 
d="M555 113q164 0 270 139t107 326q0 137 -76 218t-201 81q-90 -1 -170 -49t-133 -121l-96 -435q39 -72 118 -116t181 -43zM575 -25q-115 1 -203 49t-141 132l-118 -533h-154l385 1743h154l-115 -518q135 166 317 166t288 -109q105 -109 106 -299q0 -252 -145 -442
t-374 -189z" />
    <glyph glyph-name="ydieresis" unicode="&#xff;" horiz-adv-x="1003" 
d="M547 1244q0 -38 -33 -70t-71 -33q-37 -1 -63 25t-26 64t33 70t72 31t63 -25t25 -62zM969 1244q0 -38 -32 -70t-71 -33q-40 -1 -64 25t-24 64t32 70t71 31t63 -25t25 -62zM55 -258q82 0 148 98l100 154l-188 995h161l148 -811l510 811h172l-762 -1190q-129 -201 -309 -200
q-74 -1 -129 22l53 137q37 -16 96 -16z" />
    <glyph glyph-name="Amacron" unicode="&#x100;" horiz-adv-x="1347" 
d="M1268 1513h-742l21 99h741zM963 455l-129 735l-451 -735h580zM1219 0h-187l-53 303h-682l-186 -303h-203l850 1366h211z" />
    <glyph glyph-name="amacron" unicode="&#x101;" horiz-adv-x="1177" 
d="M1098 1171h-742l21 99h741zM621 877q-165 1 -271 -139t-106 -326q0 -137 76 -218t200 -81q88 0 170 48t131 120l99 436q-39 70 -118 115t-181 45zM600 1014q113 0 204 -48t140 -132l35 155h154l-220 -989h-153l31 141q-133 -166 -317 -166t-288 109t-104 299
q0 255 144 443t374 188z" />
    <glyph glyph-name="Abreve" unicode="&#x102;" horiz-adv-x="1347" 
d="M870 1444q-108 0 -192 48t-129 132l86 66q74 -148 253 -148t314 148l66 -66q-174 -180 -398 -180zM963 455l-129 735l-451 -735h580zM1219 0h-187l-53 303h-682l-186 -303h-203l850 1366h211z" />
    <glyph glyph-name="abreve" unicode="&#x103;" horiz-adv-x="1177" 
d="M700 1102q-108 0 -192 48t-129 132l86 66q74 -148 253 -148t314 148l66 -66q-174 -180 -398 -180zM621 877q-165 1 -271 -139t-106 -326q0 -137 76 -218t200 -81q88 0 170 48t131 120l99 436q-39 70 -118 115t-181 45zM600 1014q113 0 204 -48t140 -132l35 155h154
l-220 -989h-153l31 141q-133 -166 -317 -166t-288 109t-104 299q0 255 144 443t374 188z" />
    <glyph glyph-name="Aogonek" unicode="&#x104;" horiz-adv-x="1347" 
d="M963 455l-129 735l-451 -735h580zM1087 -381q-73 0 -119 39t-46 109q0 139 143 233h-33l-53 303h-682l-186 -303h-203l850 1366h211l250 -1366h-2q-207 -92 -207 -219q0 -82 88 -82q69 0 112 84l64 -49q-70 -115 -187 -115z" />
    <glyph glyph-name="aogonek" unicode="&#x105;" horiz-adv-x="1177" 
d="M621 877q-165 1 -271 -139t-106 -326q0 -137 76 -218t200 -81q88 0 170 48t131 120l99 436q-39 70 -118 115t-181 45zM784 -381q-72 0 -118 39t-48 109q0 139 144 233h-2l31 141q-133 -166 -317 -166t-288 109t-104 299q0 254 144 442t374 189q113 0 204 -48t140 -132
l35 155h154l-220 -989q-207 -92 -206 -219q0 -82 88 -82q69 0 112 84l64 -49q-70 -115 -187 -115z" />
    <glyph glyph-name="Cacute" unicode="&#x106;" horiz-adv-x="1384" 
d="M768 -25q-288 0 -467 165q-178 165 -178 433q0 180 64 335q125 299 417 422q138 58 312 58t317 -85q143 -86 215 -236l-162 -63q-119 233 -405 233q-229 0 -403 -184t-175 -471q0 -203 125 -329t331 -126t371 156l125 -95q-199 -213 -487 -213zM1415 1786l-411 -295h-121
l368 295h164z" />
    <glyph glyph-name="cacute" unicode="&#x107;" horiz-adv-x="1013" 
d="M538 -25q-204 0 -330 119t-126 324q0 246 162 421t408 175t358 -185l-117 -88q-76 135 -253 135t-288 -134q-111 -136 -110 -322q0 -147 87 -227t228 -80t244 116l88 -102q-147 -152 -351 -152zM1147 1434l-412 -295h-121l369 295h164z" />
    <glyph glyph-name="Ccircumflex" unicode="&#x108;" horiz-adv-x="1384" 
d="M768 -25q-288 0 -467 165q-178 165 -178 433q0 180 64 335q125 299 417 422q138 58 312 58t317 -85q143 -86 215 -236l-162 -63q-119 233 -405 233q-229 0 -403 -184t-175 -471q0 -203 125 -329t331 -126t371 156l125 -95q-199 -213 -487 -213zM1272 1481h-101l-122 217
l-211 -217h-109l260 295h148z" />
    <glyph glyph-name="ccircumflex" unicode="&#x109;" horiz-adv-x="1013" 
d="M538 -25q-204 0 -330 119t-126 324q0 246 162 421t408 175t358 -185l-117 -88q-76 135 -253 135t-288 -134q-111 -136 -110 -322q0 -147 87 -227t228 -80t244 116l88 -102q-147 -152 -351 -152zM1006 1139h-101l-123 217l-211 -217h-108l260 295h147z" />
    <glyph glyph-name="Cdotaccent" unicode="&#x10a;" horiz-adv-x="1384" 
d="M1118 1582q0 -40 -33 -72t-73 -32t-64 26q-24 24 -24 64t32 72t72 31q41 0 66 -24q24 -25 24 -65zM768 -25q-288 0 -467 165q-178 165 -178 433q0 180 64 335q125 299 417 422q138 58 312 58t317 -85q143 -86 215 -236l-162 -63q-119 233 -405 233q-229 0 -403 -184
t-175 -471q0 -203 125 -329t331 -126t371 156l125 -95q-199 -213 -487 -213z" />
    <glyph glyph-name="cdotaccent" unicode="&#x10b;" horiz-adv-x="1013" 
d="M659 1226q0 40 32 72t73 31q42 -1 66 -25t24 -64t-33 -72t-73 -32t-64 26q-24 24 -25 64zM538 -25q-204 0 -330 119t-126 324q0 246 162 421t408 175t358 -185l-117 -88q-76 135 -253 135t-288 -134q-111 -136 -110 -322q0 -147 87 -227t228 -80t244 116l88 -102
q-147 -152 -351 -152z" />
    <glyph glyph-name="Ccaron" unicode="&#x10c;" horiz-adv-x="1384" 
d="M768 -25q-288 0 -467 165q-178 165 -178 433q0 180 64 335q125 299 417 422q138 58 312 58t317 -85q143 -86 215 -236l-162 -63q-119 233 -405 233q-229 0 -403 -184t-175 -471q0 -203 125 -329t331 -126t371 156l125 -95q-199 -213 -487 -213zM1079 1481h-147l-135 295
h100l121 -217l213 217h108z" />
    <glyph glyph-name="ccaron" unicode="&#x10d;" horiz-adv-x="1013" 
d="M538 -25q-204 0 -330 119t-126 324q0 246 162 421t408 175t358 -185l-117 -88q-76 135 -253 135t-288 -134q-111 -136 -110 -322q0 -147 87 -227t228 -80t244 116l88 -102q-147 -152 -351 -152zM813 1139h-147l-136 295h101l121 -217l213 217h108z" />
    <glyph glyph-name="Dcaron" unicode="&#x10e;" horiz-adv-x="1433" 
d="M543 152q293 0 473 181t180 441q0 188 -121 314t-301 126h-287l-237 -1062h293zM514 0h-465l301 1366h457q233 0 400 -166t167 -418q0 -299 -206 -529q-101 -113 -271 -183t-383 -70zM1020 1481h-148l-135 295h101l120 -217l213 217h109z" />
    <glyph glyph-name="dcaron" unicode="&#x10f;" horiz-adv-x="1318" 
d="M621 877q-165 1 -271 -139t-106 -326q0 -137 76 -218t200 -81q88 0 170 48t131 120l99 436q-39 70 -118 115t-181 45zM600 1014q113 0 204 -48t140 -132l119 532h154l-304 -1366h-153l31 141q-133 -166 -317 -166t-288 109t-104 299q0 255 144 443t374 188zM1493 1290
q0 -84 -61 -168t-148 -129l-55 58q53 27 97 71t58 86h-14q-32 0 -54 23t-22 61t32 70q32 31 73 31t67 -28t27 -75z" />
    <glyph glyph-name="Dcroat" unicode="&#x110;" horiz-adv-x="1490" 
d="M600 152q293 0 473 181t180 441q0 188 -120 315q-121 126 -302 125h-286l-103 -460h346l-30 -142h-348l-103 -460h293zM571 0h-465l136 612h-197l31 142h196l136 612h456q232 0 400 -166t168 -418q0 -296 -206 -529q-102 -113 -272 -183t-383 -70z" />
    <glyph glyph-name="dcroat" unicode="&#x111;" horiz-adv-x="1185" 
d="M621 877q-165 1 -271 -139t-106 -326q0 -137 76 -218t200 -81q88 0 170 48t131 120l99 436q-39 70 -118 115t-181 45zM600 1014q113 0 204 -48t140 -132l57 262h-344l17 98h350l39 172h154l-39 -172h108l-16 -98h-115l-242 -1096h-153l31 141q-133 -166 -317 -166
t-288 109t-104 299q0 255 144 443t374 188z" />
    <glyph glyph-name="Emacron" unicode="&#x112;" horiz-adv-x="1165" 
d="M1200 1513h-741l20 99h742zM944 0h-895l301 1366h895l-33 -152h-725l-98 -440h711l-33 -151h-713l-104 -471h727z" />
    <glyph glyph-name="emacron" unicode="&#x113;" horiz-adv-x="1153" 
d="M1104 1171h-742l21 99h741zM926 596q0 127 -79 209t-217 82t-243 -97q-104 -98 -129 -233h664q4 16 4 39zM578 102q162 0 282 97l51 -107q-147 -117 -358 -117t-341 119t-130 320q0 248 162 424t395 176q193 0 309 -121t117 -311q0 -61 -16 -138h-807l-2 -47
q0 -123 88 -209t250 -86z" />
    <glyph glyph-name="Ebreve" unicode="&#x114;" horiz-adv-x="1165" 
d="M805 1444q-109 0 -193 48t-129 132l86 66q74 -148 253 -148t315 148l65 -66q-174 -180 -397 -180zM944 0h-895l301 1366h895l-33 -152h-725l-98 -440h711l-33 -151h-713l-104 -471h727z" />
    <glyph glyph-name="ebreve" unicode="&#x115;" horiz-adv-x="1153" 
d="M707 1102q-109 0 -193 48t-129 132l86 66q74 -148 253 -148t314 148l66 -66q-174 -180 -397 -180zM926 596q0 127 -79 209t-217 82t-243 -97q-104 -98 -129 -233h664q4 16 4 39zM578 102q162 0 282 97l51 -107q-147 -117 -358 -117t-341 119t-130 320q0 248 162 424
t395 176q193 0 309 -121t117 -311q0 -61 -16 -138h-807l-2 -47q0 -123 88 -209t250 -86z" />
    <glyph glyph-name="Edotaccent" unicode="&#x116;" horiz-adv-x="1165" 
d="M944 1586q0 -40 -33 -72t-73 -32t-64 26q-24 24 -24 64t31 72q32 32 73 32t66 -25q24 -25 24 -65zM944 0h-895l301 1366h895l-33 -152h-725l-98 -440h711l-33 -151h-713l-104 -471h727z" />
    <glyph glyph-name="edotaccent" unicode="&#x117;" horiz-adv-x="1153" 
d="M649 1226q0 40 32 72t73 31q42 -1 66 -25t24 -64t-33 -72t-73 -32t-64 26q-24 24 -25 64zM926 596q0 127 -79 209t-217 82t-243 -97q-104 -98 -129 -233h664q4 16 4 39zM578 102q162 0 282 97l51 -107q-147 -117 -358 -117t-341 119t-130 320q0 248 162 424t395 176
q193 0 309 -121t117 -311q0 -61 -16 -138h-807l-2 -47q0 -123 88 -209t250 -86z" />
    <glyph glyph-name="Eogonek" unicode="&#x118;" horiz-adv-x="1165" 
d="M737 -219q0 -82 88 -82q72 0 113 84l63 -49q-70 -115 -186 -115q-72 0 -119 39t-47 109q0 139 144 233h-744l301 1366h895l-33 -152h-725l-98 -440h711l-33 -151h-713l-104 -471h727l-33 -152q-207 -92 -207 -219z" />
    <glyph glyph-name="eogonek" unicode="&#x119;" horiz-adv-x="1153" 
d="M926 596q0 127 -79 209t-217 82t-243 -97q-104 -98 -129 -233h664q4 16 4 39zM578 102q162 0 282 97l51 -107q-74 -59 -182 -92q-207 -92 -207 -219q0 -82 88 -82q70 0 113 84l63 -49q-70 -115 -186 -115q-72 0 -119 39t-47 109q0 121 111 208q-215 6 -339 125t-124 314
q0 248 162 424t395 176q193 0 309 -121t117 -311q0 -61 -16 -138h-807l-2 -47q0 -123 88 -209t250 -86z" />
    <glyph glyph-name="Ecaron" unicode="&#x11a;" horiz-adv-x="1165" 
d="M944 0h-895l301 1366h895l-33 -152h-725l-98 -440h711l-33 -151h-713l-104 -471h727zM899 1481h-147l-136 295h101l121 -217l213 217h108z" />
    <glyph glyph-name="ecaron" unicode="&#x11b;" horiz-adv-x="1153" 
d="M926 596q0 127 -79 209t-217 82t-243 -97q-104 -98 -129 -233h664q4 16 4 39zM578 102q162 0 282 97l51 -107q-147 -117 -358 -117t-341 119t-130 320q0 248 162 424t395 176q193 0 309 -121t117 -311q0 -61 -16 -138h-807l-2 -47q0 -123 88 -209t250 -86zM803 1139h-148
l-135 295h101l120 -217l213 217h109z" />
    <glyph glyph-name="Gcircumflex" unicode="&#x11c;" horiz-adv-x="1460" 
d="M765 -25q-292 0 -467 166t-175 432q0 351 227 583t553 233q187 0 325 -82t214 -217l-154 -72q-53 104 -163 162t-244 57q-231 0 -405 -188t-173 -467q0 -205 126 -330t329 -125t364 145l64 279h-471l33 151h641l-111 -501q-221 -226 -513 -226zM1280 1481h-100l-123 217
l-211 -217h-109l260 295h148z" />
    <glyph glyph-name="gcircumflex" unicode="&#x11d;" horiz-adv-x="1175" 
d="M518 127q82 0 164 45t139 113l94 428q-41 76 -125 120t-182 44q-162 -1 -264 -137t-102 -294t74 -239q74 -80 202 -80zM434 -401q-303 0 -442 168l98 104q100 -145 342 -145q264 0 332 303l29 129q-133 -168 -336 -168q-166 0 -272 104q-105 104 -105 305q0 246 143 430
t373 185q98 0 194 -50t152 -130l35 155h153l-212 -960q-95 -430 -484 -430zM975 1124h-101l-122 217l-211 -217h-109l260 295h148z" />
    <glyph glyph-name="Gbreve" unicode="&#x11e;" horiz-adv-x="1460" 
d="M991 1444q-109 0 -193 48t-128 132l86 66q74 -148 253 -148t314 148l66 -66q-174 -180 -398 -180zM765 -25q-292 0 -467 166t-175 432q0 351 227 583t553 233q187 0 325 -82t214 -217l-154 -72q-53 104 -163 162t-244 57q-231 0 -405 -188t-173 -467q0 -205 126 -330
t329 -125t364 145l64 279h-471l33 151h641l-111 -501q-221 -226 -513 -226z" />
    <glyph glyph-name="gbreve" unicode="&#x11f;" horiz-adv-x="1175" 
d="M688 1102q-108 0 -192 48t-129 132l86 66q74 -148 253 -148t314 148l65 -66q-174 -180 -397 -180zM518 127q82 0 164 45t139 113l94 428q-41 76 -125 120t-182 44q-162 -1 -264 -137t-102 -294t74 -239q74 -80 202 -80zM434 -401q-303 0 -442 168l98 104
q100 -145 342 -145q264 0 332 303l29 129q-133 -168 -336 -168q-166 0 -272 104q-105 104 -105 305q0 246 143 430t373 185q98 0 194 -50t152 -130l35 155h153l-212 -960q-95 -430 -484 -430z" />
    <glyph glyph-name="Gdotaccent" unicode="&#x120;" horiz-adv-x="1460" 
d="M1126 1582q0 -40 -32 -72t-73 -32q-40 0 -65 26q-24 24 -24 64t32 72t72 31q40 0 66 -24q24 -25 24 -65zM765 -25q-292 0 -467 166t-175 432q0 351 227 583t553 233q187 0 325 -82t214 -217l-154 -72q-53 104 -163 162t-244 57q-231 0 -405 -188t-173 -467
q0 -205 126 -330t329 -125t364 145l64 279h-471l33 151h641l-111 -501q-221 -226 -513 -226z" />
    <glyph glyph-name="gdotaccent" unicode="&#x121;" horiz-adv-x="1175" 
d="M825 1240q-1 -40 -33 -72t-72 -32t-65 26q-25 24 -25 64t33 72t73 31q40 0 65 -24q24 -25 24 -65zM518 127q82 0 164 45t139 113l94 428q-41 76 -125 120t-182 44q-162 -1 -264 -137t-102 -294t74 -239q74 -80 202 -80zM434 -401q-303 0 -442 168l98 104
q100 -145 342 -145q264 0 332 303l29 129q-133 -168 -336 -168q-166 0 -272 104q-105 104 -105 305q0 246 143 430t373 185q98 0 194 -50t152 -130l35 155h153l-212 -960q-95 -430 -484 -430z" />
    <glyph glyph-name="Gcommaaccent" unicode="&#x122;" horiz-adv-x="1460" 
d="M765 -25q-292 0 -467 166t-175 432q0 351 227 583t553 233q187 0 325 -82t214 -217l-154 -72q-53 104 -163 162t-244 57q-231 0 -405 -188t-173 -467q0 -205 126 -330t329 -125t364 145l64 279h-471l33 151h641l-111 -501q-221 -226 -513 -226zM725 -248q0 -84 -61 -168
t-148 -129l-55 58q53 27 97 71t58 86h-14q-32 0 -54 23t-22 61t32 70q32 31 73 31t67 -28t27 -75z" />
    <glyph glyph-name="gcommaaccent" unicode="&#x123;" horiz-adv-x="1175" 
d="M518 127q82 0 164 45t139 113l94 428q-41 76 -125 120t-182 44q-162 -1 -264 -137t-102 -294t74 -239q74 -80 202 -80zM434 -401q-303 0 -442 168l98 104q100 -145 342 -145q264 0 332 303l29 129q-133 -168 -336 -168q-166 0 -272 104q-105 104 -105 305q0 246 143 430
t373 185q98 0 194 -50t152 -130l35 155h153l-212 -960q-95 -430 -484 -430zM639 1239q0 84 62 169t149 130l53 -57q-53 -27 -97 -71t-58 -89h14q32 0 54 -23q22 -24 22 -62t-31 -69t-73 -31t-68 28q-26 26 -27 75z" />
    <glyph glyph-name="Hcircumflex" unicode="&#x124;" horiz-adv-x="1458" 
d="M1188 0h-170l137 627h-799l-137 -627h-170l301 1366h170l-129 -588h799l129 588h170zM1217 1481h-101l-123 217l-211 -217h-108l260 295h147z" />
    <glyph glyph-name="hcircumflex" unicode="&#x125;" horiz-adv-x="1130" 
d="M866 717q0 160 -204 160q-156 0 -306 -158l-159 -719h-154l301 1366h154l-115 -520q176 168 350 168q133 0 214 -65t81 -181q0 -41 -12 -82l-150 -686h-153l141 649q12 55 12 68zM1059 1481h-101l-122 217l-211 -217h-109l260 295h148z" />
    <glyph glyph-name="Hbar" unicode="&#x126;" horiz-adv-x="1497" 
d="M412 778h798l54 248h-799zM1208 0h-170l138 627h-799l-137 -627h-170l225 1026h-158l23 98h157l54 242h170l-54 -242h799l53 242h170l-53 -242h154l-21 -98h-155z" />
    <glyph glyph-name="hbar" unicode="&#x127;" horiz-adv-x="1132" 
d="M868 717q0 160 -204 160q-156 0 -306 -158l-159 -719h-154l242 1096h-137l22 98h135l39 172h154l-39 -172h323l-22 -98h-322l-55 -250q176 168 350 168q133 0 214 -65t81 -181q0 -41 -12 -82l-150 -686h-153l141 649q12 55 12 68z" />
    <glyph glyph-name="Itilde" unicode="&#x128;" horiz-adv-x="489" 
d="M606 1477q-51 -1 -86 29t-50 65t-43 65t-65 29q-86 0 -124 -176h-95q55 274 234 274q51 1 86 -29t50 -65t43 -65t65 -29q84 0 127 176h94q-60 -274 -236 -274zM219 0h-170l301 1366h170z" />
    <glyph glyph-name="itilde" unicode="&#x129;" horiz-adv-x="460" 
d="M518 1135q-51 -1 -86 29t-50 65t-43 65t-65 29q-86 0 -124 -176h-95q55 274 234 274q51 1 86 -29t50 -65t43 -65t64 -29q82 0 127 176h95q-60 -274 -236 -274zM197 0h-154l219 989h154z" />
    <glyph glyph-name="Imacron" unicode="&#x12a;" horiz-adv-x="489" 
d="M840 1513h-742l21 99h741zM219 0h-170l301 1366h170z" />
    <glyph glyph-name="imacron" unicode="&#x12b;" horiz-adv-x="460" 
d="M752 1171h-742l21 99h741zM197 0h-154l219 989h154z" />
    <glyph glyph-name="Ibreve" unicode="&#x12c;" horiz-adv-x="489" 
d="M442 1444q-108 0 -192 48t-129 132l86 66q74 -148 253 -148t314 148l66 -66q-174 -180 -398 -180zM219 0h-170l301 1366h170z" />
    <glyph glyph-name="ibreve" unicode="&#x12d;" horiz-adv-x="460" 
d="M356 1102q-108 0 -192 48t-129 132l86 66q74 -148 253 -148t314 148l66 -66q-174 -180 -398 -180zM197 0h-154l219 989h154z" />
    <glyph glyph-name="Iogonek" unicode="&#x12e;" horiz-adv-x="489" 
d="M90 -381q-72 0 -119 39t-47 109q0 137 144 233h-19l301 1366h170l-301 -1366q-207 -92 -207 -219q0 -82 88 -82q72 0 113 84l63 -49q-70 -115 -186 -115z" />
    <glyph glyph-name="iogonek" unicode="&#x12f;" horiz-adv-x="460" 
d="M382 1130q-42 0 -69 26t-27 71t38 78t78 33t68 -28q28 -26 28 -70t-37 -77t-79 -33zM68 -381q-72 0 -119 39t-47 109q0 137 143 233h-2l219 989h154l-219 -989q-207 -92 -207 -219q0 -82 88 -82q69 0 112 84l64 -49q-70 -115 -186 -115z" />
    <glyph glyph-name="Idotaccent" unicode="&#x130;" horiz-adv-x="489" 
d="M385 1568q0 40 32 72t73 31q42 -1 66 -25t24 -64t-33 -72t-73 -32t-64 26q-24 24 -25 64zM219 0h-170l301 1366h170z" />
    <glyph glyph-name="dotlessi" unicode="&#x131;" horiz-adv-x="460" 
d="M197 0h-154l219 989h154z" />
    <glyph glyph-name="IJ" unicode="&#x132;" horiz-adv-x="1460" 
d="M813 -25q-119 0 -217 44t-152 128l103 123q80 -143 258 -143q123 0 201 77t106 210l211 952h170l-211 -954q-96 -437 -469 -437zM219 0h-170l301 1366h170z" />
    <glyph glyph-name="ij" unicode="&#x133;" horiz-adv-x="923" 
d="M843 1130q-42 0 -69 26q-26 26 -26 71t36 78q37 33 78 33t69 -28q27 -26 27 -70t-36 -77t-79 -33zM322 -401q-162 0 -236 86l74 110q53 -70 141 -69q139 0 180 178l242 1085h154l-242 -1085q-67 -305 -313 -305zM197 0h-154l219 989h154zM382 1130q-42 0 -69 26t-27 71
t38 78t78 33t68 -28q28 -26 28 -70t-37 -77t-79 -33z" />
    <glyph glyph-name="Jcircumflex" unicode="&#x134;" horiz-adv-x="972" 
d="M324 -25q-120 0 -218 44t-151 128l102 123q80 -143 258 -143q123 0 201 77t107 210l211 952h170l-211 -954q-96 -437 -469 -437zM1221 1481h-101l-123 217l-211 -217h-108l260 295h147z" />
    <glyph glyph-name="jcircumflex" unicode="&#x135;" horiz-adv-x="460" 
d="M-139 -401q-162 0 -236 86l74 110q51 -70 141 -69q139 0 180 178l242 1085h154l-242 -1085q-67 -305 -313 -305zM647 1139h-100l-123 217l-211 -217h-109l261 295h147z" />
    <glyph glyph-name="Kcommaaccent" unicode="&#x136;" horiz-adv-x="1230" 
d="M1085 0h-198l-389 623l-179 -164l-100 -459h-170l301 1366h170l-153 -690l747 690h223l-712 -649zM571 -248q0 -84 -61 -168t-148 -129l-55 58q53 27 97 71t59 86h-14q-31 0 -54 23t-23 61t32 70q32 31 73 31t67 -28t27 -75z" />
    <glyph glyph-name="kcommaaccent" unicode="&#x137;" horiz-adv-x="1052" 
d="M913 0h-186l-262 451l-207 -168l-61 -283h-154l301 1366h154l-197 -895l627 518h202l-538 -448zM483 -248q0 -84 -61 -168t-148 -129l-55 58q53 27 97 71t59 86h-15q-32 0 -54 23t-22 61t32 70q32 31 73 31t67 -28t27 -75z" />
    <glyph glyph-name="kgreenlandic" unicode="&#x138;" horiz-adv-x="1052" 
d="M913 0h-186l-262 451l-207 -168l-61 -283h-154l219 989h154l-115 -518l627 518h202l-538 -448z" />
    <glyph glyph-name="Lacute" unicode="&#x139;" horiz-adv-x="1058" 
d="M854 0h-805l301 1366h170l-270 -1214h637zM1188 1776l-412 -295h-121l369 295h164z" />
    <glyph glyph-name="lacute" unicode="&#x13a;" horiz-adv-x="460" 
d="M197 0h-154l301 1366h154zM862 1776l-411 -295h-121l368 295h164z" />
    <glyph glyph-name="Lcommaaccent" unicode="&#x13b;" horiz-adv-x="1058" 
d="M854 0h-805l301 1366h170l-270 -1214h637zM481 -248q0 -84 -61 -168t-148 -129l-55 58q53 27 97 71t59 86h-15q-32 0 -54 23t-22 61t32 70q32 31 73 31t67 -28t27 -75z" />
    <glyph glyph-name="lcommaaccent" unicode="&#x13c;" horiz-adv-x="460" 
d="M197 0h-154l301 1366h154zM164 -248q0 -84 -62 -168t-147 -129l-55 58q53 27 97 71t58 86h-14q-31 0 -53 23t-23 61q0 38 32 70q32 31 73 31q42 0 68 -28t26 -75z" />
    <glyph glyph-name="Lcaron" unicode="&#x13d;" horiz-adv-x="1058" 
d="M854 0h-805l301 1366h170l-270 -1214h637zM891 1290q1 -84 -61 -168t-148 -129l-55 58q53 27 97 71t58 86h-14q-32 0 -54 23t-22 61t32 70q32 31 73 31t67 -28t27 -75z" />
    <glyph glyph-name="lcaron" unicode="&#x13e;" horiz-adv-x="595" 
d="M197 0h-154l301 1366h154zM805 1290q1 -84 -61 -168t-148 -129l-55 58q53 27 97 71t58 86h-14q-32 0 -54 23t-22 61t32 70q32 31 73 31t67 -28t27 -75z" />
    <glyph glyph-name="Ldot" unicode="&#x13f;" horiz-adv-x="1058" 
d="M795 588q-47 0 -77 30t-30 76q0 47 36 83t83 36t77 -31q30 -32 30 -78t-36 -81t-83 -35zM854 0h-805l301 1366h170l-270 -1214h637z" />
    <glyph glyph-name="ldot" unicode="&#x140;" horiz-adv-x="628" 
d="M539 389q-47 0 -77 30t-30 77t36 83q36 35 83 35t77 -30t30 -78q0 -47 -36 -82t-83 -35zM197 0h-154l301 1366h154z" />
    <glyph glyph-name="Lslash" unicode="&#x141;" horiz-adv-x="1120" 
d="M33 453l33 147l198 102l148 664h170l-127 -565l225 114l-31 -147l-227 -117l-111 -499h637l-33 -152h-804l120 555z" />
    <glyph glyph-name="lslash" unicode="&#x142;" horiz-adv-x="587" 
d="M12 467l29 123l219 110l148 666h153l-127 -578l221 113l-28 -123l-219 -112l-148 -666h-154l127 580z" />
    <glyph glyph-name="Nacute" unicode="&#x143;" horiz-adv-x="1449" 
d="M1180 0h-164l-551 1114l-246 -1114h-170l301 1366h174l545 -1094l242 1094h170zM1354 1776l-412 -295h-121l369 295h164z" />
    <glyph glyph-name="nacute" unicode="&#x144;" horiz-adv-x="1128" 
d="M866 717q0 82 -54 121t-140 39q-168 0 -316 -156l-159 -721h-154l219 989h154l-33 -143q176 168 350 168q133 0 214 -65t81 -181q0 -41 -12 -82l-152 -686h-153l143 649q12 55 12 68zM1114 1434l-412 -295h-120l368 295h164z" />
    <glyph glyph-name="Ncommaaccent" unicode="&#x145;" horiz-adv-x="1449" 
d="M1180 0h-164l-551 1114l-246 -1114h-170l301 1366h174l545 -1094l242 1094h170zM655 -248q0 -84 -61 -168t-148 -129l-55 58q53 27 97 71t59 86h-15q-32 0 -54 23t-22 61t32 70q32 31 73 31t67 -28t27 -75z" />
    <glyph glyph-name="ncommaaccent" unicode="&#x146;" horiz-adv-x="1128" 
d="M866 717q0 82 -54 121t-140 39q-168 0 -316 -156l-159 -721h-154l219 989h154l-33 -143q176 168 350 168q133 0 214 -65t81 -181q0 -41 -12 -82l-152 -686h-153l143 649q12 55 12 68zM496 -248q0 -84 -62 -168t-147 -129l-56 58q53 27 98 70q44 44 58 87h-14
q-31 0 -54 23t-23 61t33 70q33 31 73 31t67 -28t27 -75z" />
    <glyph glyph-name="Ncaron" unicode="&#x147;" horiz-adv-x="1449" 
d="M1180 0h-164l-551 1114l-246 -1114h-170l301 1366h174l545 -1094l242 1094h170zM1020 1481h-148l-135 295h101l120 -217l213 217h109z" />
    <glyph glyph-name="ncaron" unicode="&#x148;" horiz-adv-x="1128" 
d="M866 717q0 82 -54 121t-140 39q-168 0 -316 -156l-159 -721h-154l219 989h154l-33 -143q176 168 350 168q133 0 214 -65t81 -181q0 -41 -12 -82l-152 -686h-153l143 649q12 55 12 68zM782 1139h-147l-135 295h100l121 -217l213 217h108z" />
    <glyph glyph-name="napostrophe" unicode="&#x149;" horiz-adv-x="1128" 
d="M866 717q0 82 -54 121t-140 39q-168 0 -316 -156l-159 -721h-154l219 989h154l-33 -143q176 168 350 168q133 0 214 -65t81 -181q0 -41 -12 -82l-152 -686h-153l143 649q12 55 12 68zM524 1419q0 -84 -61 -168t-148 -129l-55 58q53 26 97 70t59 87h-15q-31 0 -53 23
q-22 24 -22 62t31 69q32 31 73 31q42 0 68 -28t26 -75z" />
    <glyph glyph-name="Eng" unicode="&#x14a;" horiz-adv-x="1449" 
d="M717 -401q-256 0 -369 172l101 110q78 -143 258 -143q231 0 305 270l-547 1106l-246 -1114h-170l301 1366h174l545 -1094l242 1094h170l-295 -1339q-94 -428 -469 -428z" />
    <glyph glyph-name="eng" unicode="&#x14b;" horiz-adv-x="1128" 
d="M530 -401q-164 0 -237 86l78 118q53 -68 139 -67q141 0 180 168l164 745q12 53 12 70q0 80 -55 119t-139 39q-168 0 -316 -156l-159 -721h-154l219 989h154l-33 -143q176 168 350 168q129 0 212 -62t83 -184q0 -25 -12 -82l-172 -782q-70 -305 -314 -305z" />
    <glyph glyph-name="Omacron" unicode="&#x14c;" horiz-adv-x="1566" 
d="M764 127q236 0 406 188t171 467q0 211 -131 333t-329 122q-240 0 -409 -187t-169 -468q0 -213 131 -334t330 -121zM754 -25q-272 0 -452 161q-179 161 -179 437q0 342 224 579t544 237q272 0 451 -161t180 -435q0 -344 -224 -581t-544 -237zM1380 1513h-741l20 99h742z
" />
    <glyph glyph-name="omacron" unicode="&#x14d;" 
d="M552 113q152 0 262 138q110 139 110 299t-78 244t-230 83t-262 -139q-111 -138 -110 -318q0 -141 78 -224t230 -83zM547 -25q-221 0 -343 120t-122 319q0 240 159 420t380 180t343 -121t121 -320q-1 -240 -159 -419t-379 -179zM1106 1171h-741l20 99h741z" />
    <glyph glyph-name="Obreve" unicode="&#x14e;" horiz-adv-x="1566" 
d="M981 1444q-109 0 -193 48t-129 132l86 66q74 -148 253 -148t315 148l65 -66q-174 -180 -397 -180zM764 127q236 0 406 188t171 467q0 211 -131 333t-329 122q-240 0 -409 -187t-169 -468q0 -213 131 -334t330 -121zM754 -25q-272 0 -452 161q-179 161 -179 437
q0 342 224 579t544 237q272 0 451 -161t180 -435q0 -344 -224 -581t-544 -237z" />
    <glyph glyph-name="obreve" unicode="&#x14f;" 
d="M709 1102q-109 0 -193 48t-129 132l86 66q74 -148 253 -148t314 148l66 -66q-174 -180 -397 -180zM552 113q152 0 262 138q110 139 110 299t-78 244t-230 83t-262 -139q-111 -138 -110 -318q0 -141 78 -224t230 -83zM547 -25q-221 0 -343 120t-122 319q0 240 159 420
t380 180t343 -121t121 -320q-1 -240 -159 -419t-379 -179z" />
    <glyph glyph-name="Ohungarumlaut" unicode="&#x150;" horiz-adv-x="1566" 
d="M764 127q236 0 406 188t171 467q0 211 -131 333t-329 122q-240 0 -409 -187t-169 -468q0 -213 131 -334t330 -121zM754 -25q-272 0 -452 161q-179 161 -179 437q0 342 224 579t544 237q272 0 451 -161t180 -435q0 -344 -224 -581t-544 -237zM1464 1776l-301 -295h-102
l258 295h145zM1174 1776l-302 -295h-102l258 295h146z" />
    <glyph glyph-name="ohungarumlaut" unicode="&#x151;" 
d="M552 113q152 0 262 138q110 139 110 299t-78 244t-230 83t-262 -139q-111 -138 -110 -318q0 -141 78 -224t230 -83zM547 -25q-221 0 -343 120t-122 319q0 240 159 420t380 180t343 -121t121 -320q-1 -240 -159 -419t-379 -179zM1192 1434l-301 -295h-103l259 295h145z
M901 1434l-301 -295h-102l258 295h145z" />
    <glyph glyph-name="OE" unicode="&#x152;" horiz-adv-x="2263" 
d="M893 1235q-244 0 -417 -188t-173 -465q0 -207 124 -331t323 -124q145 0 276 76t211 209l100 454q-31 176 -148 273q-118 96 -296 96zM123 573q0 353 226 583t544 230q375 0 489 -317l64 297h897l-33 -152h-725l-98 -440h711l-33 -151h-713l-104 -471h727l-33 -152h-897
l45 209q-176 -233 -492 -234q-254 0 -414 168t-161 430z" />
    <glyph glyph-name="oe" unicode="&#x153;" horiz-adv-x="1970" 
d="M915 553q0 170 -82 247q-83 77 -208 77q-158 1 -270 -135t-111 -322q0 -141 77 -224t225 -83t259 135q110 135 110 305zM1745 596q0 127 -77 209t-217 82q-140 -1 -244 -105t-120 -225h656q2 10 2 39zM1067 397q0 -123 88 -209t248 -86t276 97l54 -107
q-143 -117 -329 -117q-186 1 -301 91q-114 90 -136 192q-131 -202 -278 -256q-73 -27 -159 -27q-204 0 -326 118q-122 119 -122 339t157 401t390 181q166 0 269 -92t122 -191q190 283 442 283q186 0 305 -116t119 -316q0 -60 -18 -138h-797q-4 -16 -4 -47z" />
    <glyph glyph-name="Racute" unicode="&#x154;" horiz-adv-x="1245" 
d="M731 692q154 0 241 87t87 216q0 95 -71 157t-161 62h-340l-116 -522h360zM852 1366q156 0 272 -98t115 -273q0 -175 -123 -303t-321 -141l245 -551h-188l-229 543h-287l-117 -543h-170l301 1366h502zM1262 1776l-412 -295h-121l369 295h164z" />
    <glyph glyph-name="racute" unicode="&#x155;" horiz-adv-x="675" 
d="M622 860q-68 0 -144 -47q-77 -47 -128 -115l-153 -698h-154l219 989h154l-35 -151q78 88 162 130t207 42l-35 -158q-25 8 -93 8zM950 1434l-411 -295h-121l368 295h164z" />
    <glyph glyph-name="Rcommaaccent" unicode="&#x156;" horiz-adv-x="1245" 
d="M731 692q154 0 241 87t87 216q0 95 -71 157t-161 62h-340l-116 -522h360zM852 1366q156 0 272 -98t115 -273q0 -175 -123 -303t-321 -141l245 -551h-188l-229 543h-287l-117 -543h-170l301 1366h502zM565 -248q0 -84 -61 -168t-148 -129l-55 58q53 27 97 71t59 86h-15
q-32 0 -54 23t-22 61t32 70q32 31 73 31t67 -28t27 -75z" />
    <glyph glyph-name="rcommaaccent" unicode="&#x157;" horiz-adv-x="675" 
d="M622 860q-68 0 -144 -47q-77 -47 -128 -115l-153 -698h-154l219 989h154l-35 -151q78 88 162 130t207 42l-35 -158q-25 8 -93 8zM332 -248q0 -84 -62 -168t-147 -129l-55 58q53 27 97 71t58 86h-14q-31 0 -53 23t-23 61q0 38 32 70q32 31 73 31q42 0 68 -28t26 -75z" />
    <glyph glyph-name="Rcaron" unicode="&#x158;" horiz-adv-x="1245" 
d="M731 692q154 0 241 87t87 216q0 95 -71 157t-161 62h-340l-116 -522h360zM852 1366q156 0 272 -98t115 -273q0 -175 -123 -303t-321 -141l245 -551h-188l-229 543h-287l-117 -543h-170l301 1366h502zM928 1481h-148l-135 295h100l121 -217l213 217h109z" />
    <glyph glyph-name="rcaron" unicode="&#x159;" horiz-adv-x="675" 
d="M622 860q-68 0 -144 -47q-77 -47 -128 -115l-153 -698h-154l219 989h154l-35 -151q78 88 162 130t207 42l-35 -158q-25 8 -93 8zM616 1139h-147l-135 295h100l121 -217l213 217h109z" />
    <glyph glyph-name="Sacute" unicode="&#x15a;" horiz-adv-x="1200" 
d="M586 -25q-180 0 -331 69t-222 175l117 123q72 -100 190 -158t263 -57q144 0 221 78t77 164t-70 140q-69 54 -169 92t-200 82t-169 121q-70 77 -70 185q0 162 138 280t346 117q157 0 289 -57t204 -158l-117 -118q-66 90 -172 137t-223 47t-200 -68q-82 -69 -82 -147
t70 -128t168 -89q100 -39 200 -84t170 -125t69 -188q0 -174 -134 -304t-363 -129zM1235 1776l-412 -295h-121l369 295h164z" />
    <glyph glyph-name="sacute" unicode="&#x15b;" horiz-adv-x="952" 
d="M424 -25q-279 0 -418 175l98 106q44 -64 134 -110t193 -46t165 52t63 112q0 60 -53 100t-130 68q-78 28 -154 58t-129 86t-54 133q1 129 101 217t274 88q123 0 224 -46t153 -116l-88 -100q-35 55 -120 96t-179 41t-152 -43q-58 -42 -59 -100q0 -58 53 -94t130 -64
t154 -59q77 -32 130 -90t53 -138q1 -135 -105 -231t-284 -95zM1024 1434l-412 -295h-120l368 295h164z" />
    <glyph glyph-name="Scircumflex" unicode="&#x15c;" horiz-adv-x="1200" 
d="M586 -25q-180 0 -331 69t-222 175l117 123q72 -100 190 -158t263 -57q144 0 221 78t77 164t-70 140q-69 54 -169 92t-200 82t-169 121q-70 77 -70 185q0 162 138 280t346 117q157 0 289 -57t204 -158l-117 -118q-66 90 -172 137t-223 47t-200 -68q-82 -69 -82 -147
t70 -128t168 -89q100 -39 200 -84t170 -125t69 -188q0 -174 -134 -304t-363 -129zM1094 1481h-101l-123 217l-211 -217h-108l260 295h147z" />
    <glyph glyph-name="scircumflex" unicode="&#x15d;" horiz-adv-x="952" 
d="M424 -25q-279 0 -418 175l98 106q44 -64 134 -110t193 -46t165 52t63 112q0 60 -53 100t-130 68q-78 28 -154 58t-129 86t-54 133q1 129 101 217t274 88q123 0 224 -46t153 -116l-88 -100q-35 55 -120 96t-179 41t-152 -43q-58 -42 -59 -100q0 -58 53 -94t130 -64
t154 -59q77 -32 130 -90t53 -138q1 -135 -105 -231t-284 -95zM887 1139h-101l-122 217l-211 -217h-109l260 295h148z" />
    <glyph glyph-name="Scedilla" unicode="&#x15e;" horiz-adv-x="1200" 
d="M422 -391q-139 0 -221 78l55 73q68 -72 170 -71q59 1 92 27t33 69q0 61 -76 61q-41 0 -72 -34l-59 38l82 142q-132 25 -236 85t-157 142l117 123q72 -100 190 -158t263 -57q144 0 221 78t77 164t-70 140q-69 54 -169 92t-200 82t-169 121q-70 77 -70 185q0 162 138 280
t346 117q157 0 289 -57t204 -158l-117 -118q-66 90 -172 137t-223 47t-200 -68q-82 -69 -82 -147t70 -128t168 -89q100 -39 200 -84t170 -125t69 -188q0 -174 -134 -304t-363 -129q-27 0 -76 5l-55 -93q31 23 77 23t78 -32q33 -32 33 -100q1 -68 -61 -119q-62 -50 -160 -50z
" />
    <glyph glyph-name="scedilla" unicode="&#x15f;" horiz-adv-x="952" 
d="M297 -391q-139 0 -221 78l55 73q68 -72 170 -71q59 1 92 27t33 69q0 61 -76 61q-41 0 -71 -34l-60 38l80 136q-193 35 -293 164l98 106q44 -64 134 -110t193 -46t165 52t63 112q0 60 -53 100t-130 68q-78 28 -154 58t-129 86t-54 133q1 129 101 217t274 88q123 0 224 -46
t153 -116l-88 -100q-35 55 -120 96t-179 41t-152 -43q-58 -42 -59 -100q0 -58 53 -94t130 -64t154 -59q77 -32 130 -90t53 -138q0 -135 -105 -230t-284 -96q-27 0 -39 2l-55 -90q30 23 76 23t79 -32t33 -100t-62 -119q-62 -50 -159 -50z" />
    <glyph glyph-name="Scaron" unicode="&#x160;" horiz-adv-x="1200" 
d="M586 -25q-180 0 -331 69t-222 175l117 123q72 -100 190 -158t263 -57q144 0 221 78t77 164t-70 140q-69 54 -169 92t-200 82t-169 121q-70 77 -70 185q0 162 138 280t346 117q157 0 289 -57t204 -158l-117 -118q-66 90 -172 137t-223 47t-200 -68q-82 -69 -82 -147
t70 -128t168 -89q100 -39 200 -84t170 -125t69 -188q0 -174 -134 -304t-363 -129zM901 1481h-147l-136 295h101l121 -217l213 217h108z" />
    <glyph glyph-name="scaron" unicode="&#x161;" horiz-adv-x="952" 
d="M424 -25q-279 0 -418 175l98 106q44 -64 134 -110t193 -46t165 52t63 112q0 60 -53 100t-130 68q-78 28 -154 58t-129 86t-54 133q1 129 101 217t274 88q123 0 224 -46t153 -116l-88 -100q-35 55 -120 96t-179 41t-152 -43q-58 -42 -59 -100q0 -58 53 -94t130 -64
t154 -59q77 -32 130 -90t53 -138q1 -135 -105 -231t-284 -95zM692 1139h-147l-135 295h100l121 -217l213 217h108z" />
    <glyph glyph-name="Tcommaaccent" unicode="&#x162;" horiz-adv-x="1167" 
d="M557 0h-170l268 1214h-432l33 152h1036l-32 -152h-435zM516 -248q0 -84 -61 -168t-148 -129l-55 58q53 27 97 71t59 86h-15q-31 0 -53 23t-23 61q0 38 32 70q32 31 73 31q42 0 68 -28t26 -75z" />
    <glyph glyph-name="tcommaaccent" unicode="&#x163;" horiz-adv-x="602" 
d="M340 -25q-225 0 -225 181q0 27 6 57l143 643h-164l31 133h164l59 271h154l-59 -271h200l-31 -133h-200l-135 -610q-4 -25 -4 -41q0 -92 98 -92q57 0 94 32l18 -122q-61 -48 -149 -48zM217 -248q0 -84 -61 -168t-148 -129l-55 58q53 27 97 71t59 86h-15q-32 0 -54 23
t-22 61t32 70q32 31 73 31t67 -28t27 -75z" />
    <glyph glyph-name="Tcaron" unicode="&#x164;" horiz-adv-x="1167" 
d="M557 0h-170l268 1214h-432l33 152h1036l-32 -152h-435zM862 1481h-147l-135 295h100l121 -217l213 217h108z" />
    <glyph glyph-name="tcaron" unicode="&#x165;" horiz-adv-x="641" 
d="M340 -25q-225 0 -225 181q0 27 6 57l143 643h-164l31 133h164l59 271h154l-59 -271h200l-31 -133h-200l-135 -610q-4 -25 -4 -41q0 -92 98 -92q57 0 94 32l18 -122q-61 -48 -149 -48zM860 1419q0 -84 -61 -168t-148 -129l-55 58q53 26 97 70t59 87h-15q-31 0 -53 23
q-22 24 -22 62t31 69q32 31 73 31q42 0 68 -28t26 -75z" />
    <glyph glyph-name="Tbar" unicode="&#x166;" horiz-adv-x="1167" 
d="M557 0h-170l133 602h-307l20 98h308l114 514h-432l33 152h1036l-32 -152h-435l-114 -514h309l-23 -98h-307z" />
    <glyph glyph-name="tbar" unicode="&#x167;" horiz-adv-x="602" 
d="M340 -25q-225 0 -225 181q0 27 6 57l55 252h-162l21 98h164l65 293h-164l31 133h164l59 271h154l-59 -271h200l-31 -133h-200l-66 -293h144l-23 -98h-143l-47 -219q-4 -25 -4 -41q0 -92 98 -92q57 0 94 32l18 -122q-61 -48 -149 -48z" />
    <glyph glyph-name="Utilde" unicode="&#x168;" horiz-adv-x="1433" 
d="M1079 1477q-51 -1 -86 29t-50 65t-43 65t-64 29q-86 0 -125 -176h-95q55 274 234 274q51 1 86 -29t50 -65t43 -65t65 -29q82 0 127 176h94q-60 -274 -236 -274zM691 -25q-255 0 -395 123t-140 332q0 39 10 100l184 836h170l-182 -831q-10 -41 -10 -86q0 -143 95 -233
t270 -89q175 0 275 103q99 103 142 305l184 831h170l-182 -834q-60 -272 -198 -414t-393 -143z" />
    <glyph glyph-name="utilde" unicode="&#x169;" horiz-adv-x="1128" 
d="M850 1135q-51 -1 -86 29t-50 65t-43 65t-65 29q-86 0 -125 -176h-94q55 274 234 274q51 1 86 -29t50 -65t43 -65t64 -29q82 0 127 176h94q-59 -274 -235 -274zM262 272q0 -160 205 -159q150 0 305 155l158 721h153l-219 -989h-153l32 143q-176 -168 -348 -168
q-135 0 -215 65t-80 181q0 31 11 82l151 686h154l-144 -647q-10 -51 -10 -70z" />
    <glyph glyph-name="Umacron" unicode="&#x16a;" horiz-adv-x="1433" 
d="M1311 1513h-742l21 99h741zM691 -25q-255 0 -395 123t-140 332q0 39 10 100l184 836h170l-182 -831q-10 -41 -10 -86q0 -143 95 -233t270 -89q175 0 275 103q99 103 142 305l184 831h170l-182 -834q-60 -272 -198 -414t-393 -143z" />
    <glyph glyph-name="umacron" unicode="&#x16b;" horiz-adv-x="1128" 
d="M1085 1171h-741l21 99h741zM262 272q0 -160 205 -159q150 0 305 155l158 721h153l-219 -989h-153l32 143q-176 -168 -348 -168q-135 0 -215 65t-80 181q0 31 11 82l151 686h154l-144 -647q-10 -51 -10 -70z" />
    <glyph glyph-name="Ubreve" unicode="&#x16c;" horiz-adv-x="1433" 
d="M915 1444q-109 0 -193 48t-128 132l86 66q74 -148 253 -148t314 148l66 -66q-174 -180 -398 -180zM691 -25q-255 0 -395 123t-140 332q0 39 10 100l184 836h170l-182 -831q-10 -41 -10 -86q0 -143 95 -233t270 -89q175 0 275 103q99 103 142 305l184 831h170l-182 -834
q-60 -272 -198 -414t-393 -143z" />
    <glyph glyph-name="ubreve" unicode="&#x16d;" horiz-adv-x="1128" 
d="M686 1102q-108 0 -192 48t-129 132l86 66q75 -148 253 -148t314 148l65 -66q-174 -180 -397 -180zM262 272q0 -160 205 -159q150 0 305 155l158 721h153l-219 -989h-153l32 143q-176 -168 -348 -168q-135 0 -215 65t-80 181q0 31 11 82l151 686h154l-144 -647
q-10 -51 -10 -70z" />
    <glyph glyph-name="Uring" unicode="&#x16e;" horiz-adv-x="1433" 
d="M691 -25q-255 0 -395 123t-140 332q0 39 10 100l184 836h170l-182 -831q-10 -41 -10 -86q0 -143 95 -233t270 -89q175 0 275 103q99 103 142 305l184 831h170l-182 -834q-60 -272 -198 -414t-393 -143zM842 1607q0 -50 30 -81t79 -31q50 0 90 39t40 90t-28 81
q-29 30 -80 30t-91 -39t-40 -89zM977 1817q84 1 135 -51t51 -137q1 -85 -65 -151t-151 -65q-85 0 -136 51t-51 135t66 151q67 67 151 67z" />
    <glyph glyph-name="uring" unicode="&#x16f;" horiz-adv-x="1128" 
d="M262 272q0 -160 205 -159q150 0 305 155l158 721h153l-219 -989h-153l32 143q-176 -168 -348 -168q-135 0 -215 65t-80 181q0 31 11 82l151 686h154l-144 -647q-10 -51 -10 -70zM623 1306q-1 -50 29 -81t80 -31t90 39t40 90t-28 81q-29 30 -80 30t-91 -39t-40 -89z
M757 1516q85 0 136 -52t51 -136t-66 -150t-150 -66q-85 0 -136 51t-51 136t65 151q66 66 151 66z" />
    <glyph glyph-name="Uhungarumlaut" unicode="&#x170;" horiz-adv-x="1433" 
d="M1401 1776l-301 -295h-103l258 295h146zM1110 1776l-301 -295h-102l258 295h145zM691 -25q-255 0 -395 123t-140 332q0 39 10 100l184 836h170l-182 -831q-10 -41 -10 -86q0 -143 95 -233t270 -89q175 0 275 103q99 103 142 305l184 831h170l-182 -834
q-60 -272 -198 -414t-393 -143z" />
    <glyph glyph-name="uhungarumlaut" unicode="&#x171;" horiz-adv-x="1128" 
d="M1171 1434l-301 -295h-102l258 295h145zM881 1434l-301 -295h-103l258 295h146zM262 272q0 -160 205 -159q150 0 305 155l158 721h153l-219 -989h-153l32 143q-176 -168 -348 -168q-135 0 -215 65t-80 181q0 31 11 82l151 686h154l-144 -647q-10 -51 -10 -70z" />
    <glyph glyph-name="Uogonek" unicode="&#x172;" horiz-adv-x="1433" 
d="M688 -25q-252 0 -392 123t-140 332q0 39 10 100l184 836h170l-182 -831q-10 -41 -10 -86q0 -143 95 -233t270 -89q175 0 275 103q99 103 142 305l184 831h170l-182 -834q-49 -219 -145 -354t-265 -180q-203 -92 -202 -217q0 -82 88 -82q70 0 112 84l64 -49
q-70 -115 -186 -115q-72 0 -119 39t-47 109q0 121 110 208h-4z" />
    <glyph glyph-name="uogonek" unicode="&#x173;" horiz-adv-x="1128" 
d="M262 272q0 -160 205 -159q150 0 305 155l158 721h153l-219 -989q-207 -92 -207 -219q0 -82 88 -82q70 0 113 84l64 -49q-70 -115 -187 -115q-72 0 -119 39t-47 109q0 139 144 233h-2l32 143q-176 -168 -348 -168q-135 0 -215 65t-80 181q0 31 11 82l151 686h154
l-144 -647q-10 -51 -10 -70z" />
    <glyph glyph-name="Wcircumflex" unicode="&#x174;" horiz-adv-x="1808" 
d="M1278 0h-184l-58 1102l-544 -1102h-185l-88 1366h184l50 -1139l565 1139h143l60 -1139l555 1139h192zM1389 1481h-101l-123 217l-211 -217h-108l260 295h147z" />
    <glyph glyph-name="wcircumflex" unicode="&#x175;" horiz-adv-x="1503" 
d="M1053 0h-154l-82 795l-434 -795h-154l-96 989h154l65 -788l434 788h136l84 -788l413 788h168zM1161 1139h-100l-123 217l-211 -217h-109l261 295h147z" />
    <glyph glyph-name="Ycircumflex" unicode="&#x176;" horiz-adv-x="1282" 
d="M616 0h-170l127 578l-364 788h186l285 -635l563 635h211l-711 -788zM1130 1481h-100l-123 217l-211 -217h-108l260 295h147z" />
    <glyph glyph-name="ycircumflex" unicode="&#x177;" horiz-adv-x="1003" 
d="M911 1139h-100l-123 217l-211 -217h-108l260 295h147zM55 -258q82 0 148 98l100 154l-188 995h161l148 -811l510 811h172l-762 -1190q-129 -201 -309 -200q-74 -1 -129 22l53 137q37 -16 96 -16z" />
    <glyph glyph-name="Ydieresis" unicode="&#x178;" horiz-adv-x="1282" 
d="M616 0h-170l127 578l-364 788h186l285 -635l563 635h211l-711 -788zM766 1586q0 -38 -33 -70t-71 -33t-64 25t-25 64q0 38 33 70t72 31q40 -1 64 -25t24 -62zM1188 1586q0 -38 -32 -70t-71 -33t-63 25t-25 64q0 38 32 70t71 31q40 -1 64 -25t24 -62z" />
    <glyph glyph-name="Zacute" unicode="&#x179;" horiz-adv-x="1198" 
d="M987 0h-999l30 141l994 1073h-756l33 152h985l-29 -141l-997 -1073h774zM1219 1776l-412 -295h-121l369 295h164z" />
    <glyph glyph-name="zacute" unicode="&#x17a;" horiz-adv-x="966" 
d="M750 0h-754l24 119l701 735h-537l31 135h746l-27 -117l-705 -739h549zM1028 1434l-412 -295h-120l368 295h164z" />
    <glyph glyph-name="Zdotaccent" unicode="&#x17b;" horiz-adv-x="1198" 
d="M731 1568q0 40 32 72t73 31q42 -1 66 -25t24 -64t-33 -72t-73 -32t-64 26q-24 24 -25 64zM987 0h-999l30 141l994 1073h-756l33 152h985l-29 -141l-997 -1073h774z" />
    <glyph glyph-name="zdotaccent" unicode="&#x17c;" horiz-adv-x="966" 
d="M737 1240q-1 -40 -33 -72t-72 -32t-65 26q-25 24 -25 64t32 72t73 31q41 0 66 -24q24 -25 24 -65zM750 0h-754l24 119l701 735h-537l31 135h746l-27 -117l-705 -739h549z" />
    <glyph glyph-name="Zcaron" unicode="&#x17d;" horiz-adv-x="1198" 
d="M987 0h-999l30 141l994 1073h-756l33 152h985l-29 -141l-997 -1073h774zM889 1481h-148l-135 295h101l120 -217l213 217h109z" />
    <glyph glyph-name="zcaron" unicode="&#x17e;" horiz-adv-x="966" 
d="M750 0h-754l24 119l701 735h-537l31 135h746l-27 -117l-705 -739h549zM694 1139h-147l-135 295h100l121 -217l213 217h108z" />
    <glyph glyph-name="longs" unicode="&#x17f;" horiz-adv-x="579" 
d="M240 0h-154l188 856h-163l30 133h164l17 76q72 322 329 321q131 0 215 -83l-82 -93q-49 49 -127 50q-139 0 -182 -195z" />
    <glyph glyph-name="florin" unicode="&#x192;" horiz-adv-x="882" 
d="M-10 520v139h168l94 418q66 309 323 309q141 0 224 -83l-74 -119q-39 51 -119 51q-145 0 -188 -188l-86 -388h284v-139h-315l-188 -850h-172l188 850h-139z" />
    <glyph glyph-name="Ohorn" unicode="&#x1a0;" horiz-adv-x="1566" 
d="M764 127q236 0 406 188t171 467q0 211 -131 333t-329 122q-240 0 -409 -187t-169 -468q0 -213 131 -334t330 -121zM754 -25q-272 0 -452 161q-179 161 -179 437q0 342 224 579t548 237t502 -220q102 59 133 148h-14q-29 0 -50 21q-20 22 -20 57t30 65t68 29q38 0 62 -27
q25 -27 24 -71q0 -78 -56 -157t-136 -124q84 -139 84 -317q0 -344 -224 -581t-544 -237z" />
    <glyph glyph-name="ohorn" unicode="&#x1a1;" 
d="M552 113q152 0 262 138q110 139 110 299t-78 244t-230 83t-262 -139q-111 -138 -110 -318q0 -141 78 -224t230 -83zM1178 1104q0 -60 -50 -134t-127 -122q84 -113 84 -275q-1 -241 -159 -419t-379 -178t-343 119q-122 120 -122 319q0 240 159 420t392 180q197 0 319 -111
q96 59 123 139h-12q-29 0 -49 20t-20 58q0 37 28 66q29 29 68 28q88 0 88 -110z" />
    <glyph glyph-name="Uhorn" unicode="&#x1af;" horiz-adv-x="1433" 
d="M1726 1524q0 -102 -85 -194t-216 -140l-143 -658q-60 -272 -198 -414t-393 -142t-395 122q-140 123 -140 332q0 49 10 100l184 836h170l-182 -831q-10 -41 -10 -86q0 -143 95 -233t270 -89q175 0 275 103q99 103 142 305l184 831h170l-20 -90q152 72 180 172h-12
q-29 0 -49 20q-21 20 -21 58t29 66t67 28t64 -26q24 -26 24 -70z" />
    <glyph glyph-name="uhorn" unicode="&#x1b0;" horiz-adv-x="1128" 
d="M1313 1128q0 -94 -75 -179t-196 -140l-178 -809h-153l32 141q-174 -166 -348 -166q-135 -1 -216 63t-81 181q0 39 13 84l151 686h154l-146 -649q-8 -37 -8 -68q0 -160 205 -159q156 0 303 155l160 721h153l-20 -92q123 70 147 158h-12q-28 -1 -50 21t-22 56t30 64
q30 29 69 29t63 -26t25 -71z" />
    <glyph glyph-name="AEacute" unicode="&#x1fc;" horiz-adv-x="1939" 
d="M924 455l157 725l-606 -725h449zM1718 0h-895l66 303h-531l-254 -303h-200l1153 1366h962l-32 -152h-725l-99 -440h711l-33 -151h-713l-104 -471h727zM1647 1776l-412 -295h-121l369 295h164z" />
    <glyph glyph-name="aeacute" unicode="&#x1fd;" horiz-adv-x="1921" 
d="M1694 596q0 129 -75 210t-212 81t-243 -97q-105 -98 -130 -233h656q4 16 4 39zM474 -25q-184 0 -288 109t-104 299q0 254 144 442t374 189q113 0 204 -48t140 -132l35 155h154l-37 -168q61 80 155 136t203 57q184 0 284 -115t99 -309q0 -82 -18 -146h-799q-2 -8 -2 -47
q0 -123 87 -207t246 -84t277 97l53 -111q-157 -117 -319 -117t-261 73t-134 194l-54 -242h-153l31 141q-133 -166 -317 -166zM621 877q-165 1 -271 -139t-106 -326q0 -137 76 -218t200 -81q88 0 170 48t131 120l99 436q-39 70 -118 115t-181 45zM1499 1434l-412 -295h-120
l368 295h164z" />
    <glyph glyph-name="Oslashacute" unicode="&#x1fe;" horiz-adv-x="1566" 
d="M303 582q0 -178 92 -293l770 862q-117 86 -284 86q-240 0 -409 -187t-169 -468zM764 127q236 0 406 188t171 467q0 178 -102 301l-772 -864q119 -92 297 -92zM754 -25q-229 0 -398 117l-84 -92h-135l142 160q-156 162 -156 413q0 342 224 579t544 237q223 0 387 -111
l80 88h135l-137 -152q166 -166 166 -421q0 -344 -224 -581t-544 -237zM1411 1776l-412 -295h-120l368 295h164z" />
    <glyph glyph-name="oslashacute" unicode="&#x1ff;" 
d="M244 420q0 -92 35 -162l552 547q-78 72 -202 72q-165 -1 -275 -139t-110 -318zM539 113q165 0 275 138t110 318q0 98 -41 170l-555 -551q76 -75 211 -75zM82 414q0 240 159 420t392 180q188 0 307 -101l78 76h119l-140 -137q88 -113 88 -279q-1 -241 -159 -419t-391 -179
q-195 0 -318 107l-82 -82h-119l146 143q-80 106 -80 271zM1139 1434l-412 -295h-121l369 295h164z" />
    <glyph glyph-name="Scommaaccent" unicode="&#x218;" horiz-adv-x="1200" 
d="M586 -25q-180 0 -331 69t-222 175l117 123q72 -100 190 -158t263 -57q144 0 221 78t77 164t-70 140q-69 54 -169 92t-200 82t-169 121q-70 77 -70 185q0 162 138 280t346 117q157 0 289 -57t204 -158l-117 -118q-66 90 -172 137t-223 47t-200 -68q-82 -69 -82 -147
t70 -128t168 -89q100 -39 200 -84t170 -125t69 -188q0 -174 -134 -304t-363 -129zM537 -248q1 -84 -61 -168t-148 -129l-56 58q53 27 98 70q44 44 58 87h-14q-31 0 -54 23q-22 23 -22 61t32 70q32 31 72 31t68 -28q27 -28 27 -75z" />
    <glyph glyph-name="scommaaccent" unicode="&#x219;" horiz-adv-x="952" 
d="M424 -25q-279 0 -418 175l98 106q44 -64 134 -110t193 -46t165 52t63 112q0 60 -53 100t-130 68q-78 28 -154 58t-129 86t-54 133q1 129 101 217t274 88q123 0 224 -46t153 -116l-88 -100q-35 55 -120 96t-179 41t-152 -43q-58 -42 -59 -100q0 -58 53 -94t130 -64
t154 -59q77 -32 130 -90t53 -138q1 -135 -105 -231t-284 -95zM406 -248q0 -84 -62 -168t-147 -129l-56 58q53 27 98 70q44 44 58 87h-14q-31 0 -54 23t-23 61t33 70q33 31 73 31t67 -28t27 -75z" />
    <glyph glyph-name="uni021A" unicode="&#x21a;" horiz-adv-x="1167" 
d="M557 0h-170l268 1214h-432l33 152h1036l-32 -152h-435zM516 -248q0 -84 -61 -168t-148 -129l-55 58q53 27 97 71t59 86h-15q-31 0 -53 23t-23 61q0 38 32 70q32 31 73 31q42 0 68 -28t26 -75z" />
    <glyph glyph-name="uni021B" unicode="&#x21b;" horiz-adv-x="602" 
d="M340 -25q-225 0 -225 181q0 27 6 57l143 643h-164l31 133h164l59 271h154l-59 -271h200l-31 -133h-200l-135 -610q-4 -25 -4 -41q0 -92 98 -92q57 0 94 32l18 -122q-61 -48 -149 -48zM203 -248q1 -84 -61 -168t-148 -129l-55 58q53 27 97 71t58 86h-14q-32 0 -54 23
t-22 61t32 70q32 31 73 31t67 -28t27 -75z" />
    <glyph glyph-name="uni0237" unicode="&#x237;" horiz-adv-x="460" 
d="M-139 -401q-162 0 -236 86l74 110q51 -70 141 -69q139 0 180 178l242 1085h154l-242 -1085q-67 -305 -313 -305z" />
    <glyph glyph-name="hsuperior" unicode="&#x2b0;" horiz-adv-x="815" 
d="M698 1118q0 53 -35 82q-36 29 -98 29q-92 0 -194 -103l-101 -458h-118l196 888h119l-74 -337q104 109 230 108q96 0 149 -43t53 -121q0 -23 -8 -63l-96 -432h-117l90 409q4 25 4 41z" />
    <glyph glyph-name="uni02BC" unicode="&#x2bc;" horiz-adv-x="471" 
d="M524 1268q0 -94 -69 -189q-70 -94 -168 -145l-62 67q137 70 172 173h-16q-37 0 -63 26t-26 70q0 45 38 81q37 35 85 35t79 -31q30 -32 30 -87z" />
    <glyph glyph-name="circumflex" unicode="&#x2c6;" horiz-adv-x="542" 
d="M684 1139h-100l-123 217l-211 -217h-109l260 295h148z" />
    <glyph glyph-name="caron" unicode="&#x2c7;" horiz-adv-x="542" 
d="M489 1139h-147l-135 295h100l121 -217l213 217h109z" />
    <glyph glyph-name="uni02C9" unicode="&#x2c9;" horiz-adv-x="743" 
d="M899 1210h-741l20 99h742z" />
    <glyph glyph-name="uni02CB" unicode="&#x2cb;" horiz-adv-x="462" 
d="M604 1139h-117l-280 295h160z" />
    <glyph glyph-name="breve" unicode="&#x2d8;" horiz-adv-x="718" 
d="M492 1102q-109 0 -193 48t-129 132l86 66q74 -148 253 -148t314 148l66 -66q-174 -180 -397 -180z" />
    <glyph glyph-name="dotaccent" unicode="&#x2d9;" horiz-adv-x="227" 
d="M180 1226q0 40 32 72t73 31t65 -25t25 -64q0 -40 -33 -72t-73 -32q-41 0 -65 26q-24 24 -24 64z" />
    <glyph glyph-name="ring" unicode="&#x2da;" horiz-adv-x="401" 
d="M368 1194q50 0 90 39t40 90t-29 81t-80 30t-91 -39t-40 -89t30 -81t80 -31zM392 1516q84 0 136 -52t52 -136t-66 -150t-151 -66t-136 51t-51 136t66 151t150 66z" />
    <glyph glyph-name="ogonek" unicode="&#x2db;" horiz-adv-x="364" 
d="M8 -381q-72 0 -119 39t-47 109q0 176 232 280l63 -47q-207 -92 -207 -219q0 -82 88 -82q72 0 113 84l64 -49q-70 -115 -187 -115z" />
    <glyph glyph-name="tilde" unicode="&#x2dc;" horiz-adv-x="641" 
d="M606 1135q-51 -1 -86 29t-50 65t-43 65t-65 29q-86 0 -124 -176h-95q55 274 234 274q51 1 86 -29t50 -65t43 -65t65 -29q84 0 127 176h94q-60 -274 -236 -274z" />
    <glyph glyph-name="hungarumlaut" unicode="&#x2dd;" horiz-adv-x="624" 
d="M831 1434l-301 -295h-102l258 295h145zM541 1434l-301 -295h-103l258 295h146z" />
    <glyph glyph-name="hookabovecomb" unicode="&#x309;" horiz-adv-x="364" 
d="M526 1618q58 0 98 -33t40 -97t-58 -122h-88q72 61 72 125q0 29 -20 45t-48 16q-53 0 -88 -59l-59 31q53 94 151 94z" />
    <glyph glyph-name="uni037E" unicode="&#x37e;" horiz-adv-x="471" 
d="M315 778q-47 0 -77 31t-29 78q0 47 36 82t83 35q46 0 76 -31t30 -77t-36 -82t-83 -36zM153 205q49 0 79 -32q30 -33 30 -107t-68 -168t-167 -146l-64 68q137 70 172 172h-16q-37 0 -63 24t-26 70q0 45 38 82q37 37 85 37z" />
    <glyph glyph-name="tonos" unicode="&#x384;" horiz-adv-x="1128" 
d="M432 1157h-78l133 410h156z" />
    <glyph glyph-name="dieresistonos" unicode="&#x385;" horiz-adv-x="1128" 
d="M555 1244q0 -38 -33 -70q-34 -32 -72 -33q-38 1 -62 25t-24 63t32 71t71 31t63 -25t25 -62zM1104 1244q0 -38 -33 -70t-72 -33q-39 1 -63 25t-23 63q0 39 32 71t71 31q40 -1 64 -25t24 -62zM727 1157h-78l131 410h156z" />
    <glyph glyph-name="Alphatonos" unicode="&#x386;" horiz-adv-x="1347" 
d="M963 455l-129 735l-451 -735h580zM1219 0h-187l-53 303h-682l-186 -303h-203l850 1366h211zM414 1157h-78l133 410h156z" />
    <glyph glyph-name="Epsilontonos" unicode="&#x388;" horiz-adv-x="1200" 
d="M979 0h-895l301 1366h895l-33 -152h-725l-98 -440h711l-33 -151h-713l-104 -471h727zM201 1157h-78l133 410h156z" />
    <glyph glyph-name="Etatonos" unicode="&#x389;" horiz-adv-x="1492" 
d="M1223 0h-170l137 627h-799l-137 -627h-170l301 1366h170l-129 -588h799l129 588h170zM201 1157h-78l133 410h156z" />
    <glyph glyph-name="Iotatonos" unicode="&#x38a;" horiz-adv-x="522" 
d="M254 0h-170l301 1366h170zM201 1157h-78l133 410h156z" />
    <glyph glyph-name="Omicrontonos" unicode="&#x38c;" horiz-adv-x="1566" 
d="M764 127q236 0 406 188t171 467q0 211 -131 333t-329 122q-240 0 -409 -187t-169 -468q0 -213 131 -334t330 -121zM754 -25q-272 0 -452 161q-179 161 -179 437q0 342 224 579t544 237q272 0 451 -161t180 -435q0 -344 -224 -581t-544 -237zM272 1157h-77l133 410h155z
" />
    <glyph glyph-name="Upsilontonos" unicode="&#x38e;" horiz-adv-x="1400" 
d="M735 0h-170l127 578l-364 788h186l285 -635l563 635h211l-711 -788zM201 1157h-78l133 410h156z" />
    <glyph glyph-name="Omegatonos" unicode="&#x38f;" horiz-adv-x="1574" 
d="M143 625q0 145 55 282q117 297 389 417q144 65 312 65q281 0 456 -159t175 -429q0 -231 -122 -397t-302 -252h250l-33 -152h-492l33 152q207 43 344 219q138 176 138 397t-124 344t-329 123q-252 0 -417 -193t-165 -460q0 -152 70 -262t182 -168l-33 -152h-491l33 152
h311q-240 174 -240 473zM272 1157h-77l133 410h155z" />
    <glyph glyph-name="iotadieresistonos" unicode="&#x390;" horiz-adv-x="487" 
d="M254 -25q-217 0 -166 232l176 782h154l-172 -758q-27 -119 69 -118q20 0 41 4l-18 -133q-45 -9 -84 -9zM240 1244q0 -38 -33 -70t-72 -33q-39 1 -63 25t-23 63q0 39 32 71t71 31q40 -1 64 -25t24 -62zM788 1244q0 -38 -32 -70t-72 -33q-38 1 -62 25t-24 63t32 71t71 31
t63 -25t24 -62zM412 1157h-78l131 410h156z" />
    <glyph glyph-name="Alpha" unicode="&#x391;" horiz-adv-x="1347" 
d="M963 455l-129 735l-451 -735h580zM1219 0h-187l-53 303h-682l-186 -303h-203l850 1366h211z" />
    <glyph glyph-name="Beta" unicode="&#x392;" horiz-adv-x="1288" 
d="M678 152q139 0 218 78t79 178q1 100 -59 157t-160 58h-402l-104 -471h428zM813 774q139 0 204 75t65 167t-61 145q-60 53 -147 53h-387l-98 -440h424zM682 0h-633l301 1366h568q152 0 250 -88t98 -228t-94 -244t-224 -120q88 -23 145 -103q56 -81 56 -177
q0 -166 -121 -286t-346 -120z" />
    <glyph glyph-name="Gamma" unicode="&#x393;" horiz-adv-x="1126" 
d="M219 0h-170l301 1366h895l-33 -152h-725z" />
    <glyph glyph-name="uni0394" unicode="&#x394;" horiz-adv-x="1347" 
d="M1016 152l-182 1038l-639 -1038h821zM1219 0h-1311l850 1366h211z" />
    <glyph glyph-name="Epsilon" unicode="&#x395;" horiz-adv-x="1165" 
d="M944 0h-895l301 1366h895l-33 -152h-725l-98 -440h711l-33 -151h-713l-104 -471h727z" />
    <glyph glyph-name="Zeta" unicode="&#x396;" horiz-adv-x="1198" 
d="M987 0h-999l30 141l994 1073h-756l33 152h985l-29 -141l-997 -1073h774z" />
    <glyph glyph-name="Eta" unicode="&#x397;" horiz-adv-x="1458" 
d="M1188 0h-170l137 627h-799l-137 -627h-170l301 1366h170l-129 -588h799l129 588h170z" />
    <glyph glyph-name="Theta" unicode="&#x398;" horiz-adv-x="1566" 
d="M764 127q236 0 406 188t171 467q0 211 -131 333t-329 122q-240 0 -409 -187t-169 -468q0 -213 131 -334t330 -121zM754 -25q-272 0 -452 161q-179 161 -179 437q0 342 224 579t544 237q272 0 451 -161t180 -435q0 -344 -224 -581t-544 -237zM1182 623h-760l33 151h759z
" />
    <glyph glyph-name="Iota" unicode="&#x399;" horiz-adv-x="489" 
d="M219 0h-170l301 1366h170z" />
    <glyph glyph-name="Kappa" unicode="&#x39a;" horiz-adv-x="1230" 
d="M1085 0h-198l-389 623l-179 -164l-100 -459h-170l301 1366h170l-153 -690l747 690h223l-712 -649z" />
    <glyph glyph-name="Lambda" unicode="&#x39b;" horiz-adv-x="1347" 
d="M1219 0h-187l-198 1190l-723 -1190h-203l850 1366h211z" />
    <glyph glyph-name="Mu" unicode="&#x39c;" horiz-adv-x="1656" 
d="M1386 0h-169l253 1149l-718 -1149h-70l-211 1149l-252 -1149h-170l301 1366h236l192 -1053l658 1053h252z" />
    <glyph glyph-name="Nu" unicode="&#x39d;" horiz-adv-x="1449" 
d="M1180 0h-164l-551 1114l-246 -1114h-170l301 1366h174l545 -1094l242 1094h170z" />
    <glyph glyph-name="Xi" unicode="&#x39e;" horiz-adv-x="1259" 
d="M1163 623h-1009l32 151h1010zM1040 0h-1036l33 152h1034zM1309 1214h-1037l31 152h1036z" />
    <glyph glyph-name="Omicron" unicode="&#x39f;" horiz-adv-x="1566" 
d="M764 127q236 0 406 188t171 467q0 211 -131 333t-329 122q-240 0 -409 -187t-169 -468q0 -213 131 -334t330 -121zM754 -25q-272 0 -452 161q-179 161 -179 437q0 342 224 579t544 237q272 0 451 -161t180 -435q0 -344 -224 -581t-544 -237z" />
    <glyph glyph-name="Pi" unicode="&#x3a0;" horiz-adv-x="1458" 
d="M1188 0h-170l266 1214h-799l-266 -1214h-170l301 1366h1139z" />
    <glyph glyph-name="Rho" unicode="&#x3a1;" horiz-adv-x="1202" 
d="M729 694q156 0 243 88t87 217q0 91 -65 153t-163 62h-344l-116 -520h358zM858 1366q172 0 276 -103t103 -261q0 -158 -116 -302q-57 -72 -163 -114t-243 -43h-377l-119 -543h-170l301 1366h508z" />
    <glyph glyph-name="Sigma" unicode="&#x3a3;" horiz-adv-x="1116" 
d="M483 1214l363 -524l-588 -538h684l-33 -152h-897l33 164l596 549l-356 514l30 139h895l-32 -152h-695z" />
    <glyph glyph-name="Tau" unicode="&#x3a4;" horiz-adv-x="1167" 
d="M557 0h-170l268 1214h-432l33 152h1036l-32 -152h-435z" />
    <glyph glyph-name="Upsilon" unicode="&#x3a5;" horiz-adv-x="1282" 
d="M616 0h-170l127 578l-364 788h186l285 -635l563 635h211l-711 -788z" />
    <glyph glyph-name="Phi" unicode="&#x3a6;" horiz-adv-x="1650" 
d="M313 610q-1 -133 99 -220t282 -103l180 790q-254 -19 -408 -149t-153 -318zM1425 752q0 135 -100 222t-283 103l-180 -792q254 20 409 149q154 130 154 318zM135 610q0 254 219 430t555 191l31 135h170l-33 -139q258 -23 392 -147t135 -328q0 -252 -220 -429t-557 -192
l-28 -131h-170l30 135q-256 25 -390 149t-134 326z" />
    <glyph glyph-name="Chi" unicode="&#x3a7;" horiz-adv-x="1335" 
d="M1198 0h-192l-316 578l-557 -578h-219l688 711l-356 655h194l291 -543l516 543h221l-649 -676z" />
    <glyph glyph-name="Psi" unicode="&#x3a8;" horiz-adv-x="1630" 
d="M219 676q0 76 21 164l120 526h170l-124 -553q-14 -47 -15 -117q0 -120 80 -196t242 -92l219 958h170l-219 -956q199 18 323 122t166 281l127 553h172l-133 -590q-51 -223 -233 -364t-457 -156l-57 -256h-170l59 258q-461 41 -461 418z" />
    <glyph glyph-name="uni03A9" unicode="&#x3a9;" horiz-adv-x="1566" 
d="M135 625q0 145 54 282q117 296 390 417q144 65 312 65q281 0 456 -159t175 -429q0 -231 -122 -397t-302 -252h250l-33 -152h-492l33 152q207 43 344 219t137 397t-124 344t-328 123q-252 0 -417 -193t-165 -460q0 -152 70 -262t182 -168l-33 -152h-491l32 152h312
q-240 174 -240 473z" />
    <glyph glyph-name="Iotadieresis" unicode="&#x3aa;" horiz-adv-x="489" 
d="M182 1607q0 37 33 69t72 32t63 -24t25 -63q0 -38 -33 -71q-33 -32 -71 -32q-37 0 -63 26t-26 63zM606 1607q0 37 32 69t71 32t63 -24t25 -63q0 -38 -32 -71q-32 -32 -71 -32q-40 0 -64 26t-24 63zM219 0h-170l301 1366h170z" />
    <glyph glyph-name="Upsilondieresis" unicode="&#x3ab;" horiz-adv-x="1282" 
d="M684 1708q40 0 64 -24t24 -63q0 -38 -33 -71q-33 -32 -71 -32t-63 26t-25 63t32 69t72 32zM1106 1708q40 0 64 -24t24 -63q0 -38 -32 -71q-32 -32 -71 -32t-63 26t-24 63t32 69t70 32zM616 0h-170l127 578l-364 788h186l285 -635l563 635h211l-711 -788z" />
    <glyph glyph-name="alphatonos" unicode="&#x3ac;" horiz-adv-x="1206" 
d="M520 113q88 0 169 48t132 120l99 436q-39 71 -118 115t-181 45q-165 1 -271 -139t-106 -326q0 -137 76 -218t200 -81zM82 383q0 254 144 442t374 189q113 0 204 -48t140 -132l35 155h154l-168 -758q-27 -119 67 -118q23 0 43 4l-18 -133q-45 -8 -84 -9q-186 0 -170 183
q-145 -182 -329 -182t-288 108q-104 109 -104 299zM764 1157h-78l133 410h156z" />
    <glyph glyph-name="epsilontonos" unicode="&#x3ad;" horiz-adv-x="1052" 
d="M457 -25q-207 0 -313 70q-105 70 -105 186q0 86 63 151q111 114 285 124q-88 14 -153 67t-64 140q0 133 144 217t348 84q268 0 399 -160l-98 -90q-94 123 -301 123q-138 0 -236 -51t-98 -125t72 -111t186 -37h223l-29 -125h-221q-158 0 -255 -45t-97 -143q1 -68 69 -108
t193 -40q219 0 391 136l60 -103q-203 -160 -463 -160zM709 1157h-78l133 410h156z" />
    <glyph glyph-name="etatonos" unicode="&#x3ae;" horiz-adv-x="1128" 
d="M866 717q0 160 -204 160q-158 0 -306 -156l-159 -721h-154l219 989h154l-33 -143q176 168 350 168q133 0 214 -65t81 -181q0 -41 -12 -82l-238 -1063h-153l229 1026q12 55 12 68zM743 1157h-77l133 410h155z" />
    <glyph glyph-name="iotatonos" unicode="&#x3af;" horiz-adv-x="487" 
d="M254 -25q-217 0 -166 232l176 782h154l-172 -758q-27 -119 69 -118q20 0 41 4l-18 -133q-45 -9 -84 -9zM416 1157h-78l133 410h156z" />
    <glyph glyph-name="upsilondieresistonos" unicode="&#x3b0;" horiz-adv-x="1150" 
d="M1081 666q-1 -287 -167 -489t-402 -202q-236 1 -326 133t-41 345l123 536h154l-127 -553q-33 -154 17 -238t188 -85q182 1 305 163t123 388q0 176 -72 294l143 56q82 -139 82 -348zM602 1244q0 -38 -33 -70t-71 -33q-38 1 -63 25q-23 24 -23 63t32 71t70 31q39 0 64 -24
q24 -25 24 -63zM1151 1244q0 -38 -33 -70t-72 -33q-38 1 -62 25t-24 63t32 71t71 31t63 -25t25 -62zM774 1157h-78l131 410h156z" />
    <glyph glyph-name="alpha" unicode="&#x3b1;" horiz-adv-x="1206" 
d="M520 113q88 0 169 48t132 120l99 436q-39 71 -118 115t-181 45q-165 1 -271 -139t-106 -326q0 -137 76 -218t200 -81zM82 383q0 254 144 442t374 189q113 0 204 -48t140 -132l35 155h154l-168 -758q-27 -119 67 -118q23 0 43 4l-18 -133q-45 -8 -84 -9q-186 0 -170 183
q-145 -182 -329 -182t-288 108q-104 109 -104 299z" />
    <glyph glyph-name="beta" unicode="&#x3b2;" horiz-adv-x="1177" 
d="M539 113q164 0 264 89t100 226q0 100 -75 152t-195 51h-72l31 137h67q150 0 252 76t103 209q0 92 -64 144t-179 52q-116 -1 -222 -83t-141 -234l-152 -666q32 -68 106 -110t177 -43zM563 -25q-238 0 -334 172l-118 -524h-154l297 1309q53 229 207 342q154 112 334 112
t283 -80q104 -80 104 -232q0 -153 -115 -250t-252 -119q96 -12 171 -83t75 -200q1 -190 -149 -318t-349 -129z" />
    <glyph glyph-name="gamma" unicode="&#x3b3;" horiz-adv-x="1003" 
d="M383 -377h-154l62 277q67 328 13 614t-204 475h181q102 -137 155 -367t29 -432q150 158 273 377q124 219 169 422h154q-55 -238 -215 -502t-375 -477z" />
    <glyph glyph-name="delta" unicode="&#x3b4;" 
d="M242 406q0 -130 76 -212t230 -81q156 1 268 117t112 259t-98 214q-72 52 -201 106q-14 6 -21 8q-174 -55 -270 -168t-96 -243zM1081 512q1 -211 -155 -374t-386 -163t-346 117t-116 286t109 304q110 135 286 201q-123 77 -123 199t120 215t302 94q240 0 350 -144l-94 -96
q-80 115 -268 115q-111 0 -185 -52q-73 -52 -73 -113t59 -101t145 -72t171 -77q86 -44 145 -131t59 -208z" />
    <glyph glyph-name="epsilon" unicode="&#x3b5;" horiz-adv-x="1052" 
d="M457 -25q-207 0 -313 70q-105 70 -105 186q0 86 63 151q111 114 285 124q-88 14 -153 67t-64 140q0 133 144 217t348 84q268 0 399 -160l-98 -90q-94 123 -301 123q-138 0 -236 -51t-98 -125t72 -111t186 -37h223l-29 -125h-221q-158 0 -255 -45t-97 -143q1 -68 69 -108
t193 -40q219 0 391 136l60 -103q-203 -160 -463 -160z" />
    <glyph glyph-name="zeta" unicode="&#x3b6;" horiz-adv-x="1001" 
d="M629 -80q0 55 -103 55q-214 1 -334 99t-120 270q0 252 214 476t593 411h-582l33 135h782l-29 -117q-846 -432 -845 -874q0 -125 89 -194t227 -69t192 -32q54 -33 55 -105q0 -106 -154 -297h-176q158 162 158 242z" />
    <glyph glyph-name="eta" unicode="&#x3b7;" horiz-adv-x="1128" 
d="M866 717q0 160 -204 160q-158 0 -306 -156l-159 -721h-154l219 989h154l-33 -143q176 168 350 168q133 0 214 -65t81 -181q0 -41 -12 -82l-238 -1063h-153l229 1026q12 55 12 68z" />
    <glyph glyph-name="theta" unicode="&#x3b8;" 
d="M721 1253q-143 0 -255 -145t-165 -354h686q8 86 8 125q0 170 -65 272q-66 102 -209 102zM545 113q143 0 255 147t163 358h-689q-8 -63 -8 -133q0 -170 68 -271t211 -101zM524 -25q-194 -1 -305 141t-111 372t74 431q74 199 220 335t341 136t304 -142q109 -144 109 -374
t-74 -428q-73 -199 -218 -335q-146 -136 -340 -136z" />
    <glyph glyph-name="iota" unicode="&#x3b9;" horiz-adv-x="487" 
d="M254 -25q-217 0 -166 232l176 782h154l-172 -758q-27 -119 69 -118q20 0 41 4l-18 -133q-45 -9 -84 -9z" />
    <glyph glyph-name="kappa" unicode="&#x3ba;" horiz-adv-x="1052" 
d="M913 0h-186l-262 451l-207 -168l-61 -283h-154l219 989h154l-115 -518l627 518h202l-538 -448z" />
    <glyph glyph-name="lambda" unicode="&#x3bb;" horiz-adv-x="1003" 
d="M293 1237l8 137q49 16 115 17q209 -4 246 -201l225 -1190h-162l-147 811l-508 -811h-174l639 997l-31 150q-12 61 -41 84t-80 23t-90 -17z" />
    <glyph glyph-name="uni03BC" unicode="&#x3bc;" horiz-adv-x="1155" 
d="M436 109q90 0 180 45t150 108l162 727h153l-168 -758q-27 -119 70 -118q20 0 41 4l-18 -133q-45 -8 -84 -9q-182 0 -172 177q-172 -176 -355 -177q-141 1 -184 99l-102 -451h-154l309 1366h154l-146 -649q-26 -115 24 -173t140 -58z" />
    <glyph glyph-name="nu" unicode="&#x3bd;" horiz-adv-x="1003" 
d="M461 0h-154l-186 989h166l147 -833q172 184 300 405t173 428h154q-55 -240 -219 -508t-381 -481z" />
    <glyph glyph-name="xi" unicode="&#x3be;" horiz-adv-x="1001" 
d="M539 -25q-238 0 -361 84t-123 243t112 257t255 123q-82 14 -144 72t-62 155q0 99 85 191q86 92 205 131h-205l33 135h760l-33 -135h-383q-117 -27 -205 -109t-88 -171t76 -136t194 -47h291l-31 -133h-282q-178 0 -293 -79t-115 -226q0 -102 91 -160q92 -58 234 -57
q142 0 196 -33t55 -105q0 -106 -154 -297h-166q147 172 148 242q0 55 -90 55z" />
    <glyph glyph-name="omicron" unicode="&#x3bf;" 
d="M552 113q152 0 262 138q110 139 110 299t-78 244t-230 83t-262 -139q-111 -138 -110 -318q0 -141 78 -224t230 -83zM547 -25q-221 0 -343 120t-122 319q0 240 159 420t380 180t343 -121t121 -320q-1 -240 -159 -419t-379 -179z" />
    <glyph glyph-name="pi" unicode="&#x3c0;" horiz-adv-x="1191" 
d="M897 0h-154l195 854h-516l-195 -854h-153l194 854h-164l31 135h1151l-31 -135h-163z" />
    <glyph glyph-name="rho" unicode="&#x3c1;" 
d="M555 113q164 0 270 139t107 326q0 127 -64 213t-194 86q-132 -1 -230 -107t-137 -274l-51 -224q39 -72 118 -116t181 -43zM575 -25q-113 -1 -203 49t-141 132l-120 -533h-154l197 873q51 236 197 376t343 142q197 0 298 -118t102 -302q0 -244 -146 -432t-373 -187z" />
    <glyph glyph-name="sigma1" unicode="&#x3c2;" horiz-adv-x="989" 
d="M530 -25q-200 0 -324 118t-124 325q0 246 162 421t408 175t358 -185l-117 -88q-76 135 -253 135t-288 -134q-110 -136 -110 -305q1 -326 350 -324q209 0 209 -142q0 -100 -152 -293h-170q160 168 160 240q0 57 -109 57z" />
    <glyph glyph-name="sigma" unicode="&#x3c3;" 
d="M926 561q0 215 -133 291h-97q-202 0 -326 -131t-124 -287t78 -238q78 -83 228 -83t262 136t112 312zM1075 563q-1 -233 -155 -410t-374 -177t-341 119q-121 120 -121 319q0 238 177 406t454 169h520l-31 -137h-239q110 -107 110 -289z" />
    <glyph glyph-name="tau" unicode="&#x3c4;" horiz-adv-x="958" 
d="M550 -25q-104 1 -170 59t-38 179l143 641h-348l31 135h852l-31 -135h-350l-137 -621q-12 -61 16 -91t84 -30q55 0 92 33l17 -122q-57 -48 -161 -48z" />
    <glyph glyph-name="upsilon" unicode="&#x3c5;" horiz-adv-x="1150" 
d="M1081 666q-1 -287 -167 -489t-402 -202q-236 1 -326 133t-41 345l123 536h154l-127 -553q-33 -154 17 -238t188 -85q182 1 305 163t123 388q0 176 -72 294l143 56q82 -139 82 -348z" />
    <glyph glyph-name="phi" unicode="&#x3c6;" horiz-adv-x="1523" 
d="M1280 546q0 156 -86 238t-268 90l-174 -759q262 14 395 144q133 131 133 287zM881 1014q271 0 417 -121t146 -345t-195 -394t-528 -177l-80 -354h-154l80 359q-237 26 -359 144t-122 314t135 343q135 146 361 231l41 -123q-373 -147 -373 -449q0 -291 348 -325l205 897
h78z" />
    <glyph glyph-name="chi" unicode="&#x3c7;" horiz-adv-x="995" 
d="M776 -377h-164l-176 559l-432 -559h-176l539 703l-207 663h164l161 -520l400 520h180l-510 -663z" />
    <glyph glyph-name="psi" unicode="&#x3c8;" horiz-adv-x="1523" 
d="M135 346q0 68 19 141l114 502h154l-119 -522q-14 -61 -14 -102q0 -102 79 -168t232 -80l285 1249h153l-286 -1251q180 12 302 101t154 239l123 534h154l-129 -559q-47 -201 -214 -324t-421 -131l-80 -352h-154l82 359q-434 39 -434 364z" />
    <glyph glyph-name="omega" unicode="&#x3c9;" horiz-adv-x="1654" 
d="M1585 668q0 -283 -145 -488t-342 -205q-287 0 -307 301q-145 -301 -383 -301q-160 0 -245 110t-85 281t90 355t248 293l98 -103q-133 -94 -206 -237q-72 -142 -72 -278q1 -284 198 -283q115 -1 197 107t121 276l57 252h154l-58 -252q-37 -164 7 -274t173 -109
q150 0 249 167t100 386q0 170 -82 270l125 78q108 -115 108 -346z" />
    <glyph glyph-name="iotadieresis" unicode="&#x3ca;" horiz-adv-x="487" 
d="M254 -25q-217 0 -166 232l176 782h154l-172 -758q-27 -119 69 -118q20 0 41 4l-18 -133q-45 -9 -84 -9zM283 1244q0 -38 -33 -70t-71 -33q-37 -1 -63 25t-26 64t33 70t72 31t63 -25t25 -62zM705 1244q0 -38 -32 -70t-71 -33q-40 -1 -64 25t-24 64t32 70t71 31t63 -25
t25 -62z" />
    <glyph glyph-name="upsilondieresis" unicode="&#x3cb;" horiz-adv-x="1150" 
d="M1081 666q-1 -287 -167 -489t-402 -202q-236 1 -326 133t-41 345l123 536h154l-127 -553q-33 -154 17 -238t188 -85q182 1 305 163t123 388q0 176 -72 294l143 56q82 -139 82 -348zM647 1244q0 -38 -33 -70q-32 -32 -70 -33t-64 25t-26 64t34 70q32 32 71 31q39 0 64 -24
q24 -25 24 -63zM1069 1244q0 -38 -32 -70q-33 -32 -71 -33t-63 25t-25 64t32 70t71 31t63 -25t25 -62z" />
    <glyph glyph-name="omicrontonos" unicode="&#x3cc;" 
d="M552 113q152 0 262 138q110 139 110 299t-78 244t-230 83t-262 -139q-111 -138 -110 -318q0 -141 78 -224t230 -83zM547 -25q-221 0 -343 120t-122 319q0 240 159 420t380 180t343 -121t121 -320q-1 -240 -159 -419t-379 -179zM764 1157h-78l133 410h156z" />
    <glyph glyph-name="upsilontonos" unicode="&#x3cd;" horiz-adv-x="1150" 
d="M1081 666q-1 -287 -167 -489t-402 -202q-236 1 -326 133t-41 345l123 536h154l-127 -553q-33 -154 17 -238t188 -85q182 1 305 163t123 388q0 176 -72 294l143 56q82 -139 82 -348zM774 1157h-78l133 410h156z" />
    <glyph glyph-name="omegatonos" unicode="&#x3ce;" horiz-adv-x="1654" 
d="M1585 668q0 -283 -145 -488t-342 -205q-287 0 -307 301q-145 -301 -383 -301q-160 0 -245 110t-85 281t90 355t248 293l98 -103q-133 -94 -206 -237q-72 -142 -72 -278q1 -284 198 -283q115 -1 197 107t121 276l57 252h154l-58 -252q-37 -164 7 -274t173 -109
q150 0 249 167t100 386q0 170 -82 270l125 78q108 -115 108 -346zM1006 1157h-78l133 410h156z" />
    <glyph glyph-name="afii10023" unicode="&#x401;" horiz-adv-x="1165" 
d="M944 0h-895l301 1366h895l-33 -152h-725l-98 -440h711l-33 -151h-713l-104 -471h727zM729 1586q0 -38 -33 -70q-32 -32 -70 -33t-64 25t-26 64t34 70q32 32 71 31q39 0 64 -24q24 -25 24 -63zM1151 1586q0 -38 -32 -70t-71 -33q-40 -1 -64 25t-24 64t32 70t71 31t63 -25
t25 -62z" />
    <glyph glyph-name="afii10051" unicode="&#x402;" horiz-adv-x="1574" 
d="M1024 727q-162 0 -319 -47l-148 -680h-170l268 1214h-434l33 152h1036l-33 -152h-432l-86 -383q180 47 338 48q231 0 328 -129t45 -340q-46 -213 -196 -324t-345 -111l33 152q127 0 218 76t120 207q40 160 -28 238q-66 79 -228 79z" />
    <glyph glyph-name="afii10052" unicode="&#x403;" horiz-adv-x="1126" 
d="M219 0h-170l301 1366h895l-33 -152h-725zM1249 1776l-411 -295h-121l368 295h164z" />
    <glyph glyph-name="afii10053" unicode="&#x404;" horiz-adv-x="1384" 
d="M768 -25q-288 0 -467 165q-178 165 -178 433q0 180 64 335q125 299 417 422q138 58 312 58t317 -85q143 -86 215 -236l-162 -63q-119 233 -405 233q-186 0 -343 -127t-210 -336h772l-33 -151h-764v-41q0 -203 125 -329t331 -126t371 156l125 -95q-199 -213 -487 -213z
" />
    <glyph glyph-name="afii10054" unicode="&#x405;" horiz-adv-x="1200" 
d="M586 -25q-180 0 -331 69t-222 175l117 123q72 -100 190 -158t263 -57q144 0 221 78t77 164t-70 140q-69 54 -169 92t-200 82t-169 121q-70 77 -70 185q0 162 138 280t346 117q157 0 289 -57t204 -158l-117 -118q-66 90 -172 137t-223 47t-200 -68q-82 -69 -82 -147
t70 -128t168 -89q100 -39 200 -84t170 -125t69 -188q0 -174 -134 -304t-363 -129z" />
    <glyph glyph-name="afii10055" unicode="&#x406;" horiz-adv-x="489" 
d="M219 0h-170l301 1366h170z" />
    <glyph glyph-name="afii10056" unicode="&#x407;" horiz-adv-x="489" 
d="M219 0h-170l301 1366h170zM367 1586q0 -38 -33 -70t-71 -33q-37 -1 -63 25t-26 64t33 70t72 31t63 -25t25 -62zM788 1586q0 -38 -32 -70t-70 -33q-40 -1 -64 25t-24 64t32 70t71 31t63 -25t24 -62z" />
    <glyph glyph-name="afii10057" unicode="&#x408;" horiz-adv-x="972" 
d="M324 -25q-120 0 -218 44t-151 128l102 123q80 -143 258 -143q123 0 201 77t107 210l211 952h170l-211 -954q-96 -437 -469 -437z" />
    <glyph glyph-name="afii10058" unicode="&#x409;" horiz-adv-x="2170" 
d="M1688 672h-353l-114 -520h354q139 0 229 80t102 192t-47 180q-60 68 -171 68zM1718 823q184 0 283 -108q98 -109 84 -277q-13 -168 -147 -303t-373 -135h-547l266 1214h-514l-188 -546q-152 -437 -303 -573q-80 -71 -155 -95t-175 -25l35 152q86 0 149 41q138 90 283 512
l235 686h836l-119 -543h350z" />
    <glyph glyph-name="afii10059" unicode="&#x40a;" horiz-adv-x="2170" 
d="M1704 627h-379l-104 -475h381q126 0 208 72t94 176q12 102 -42 164q-56 62 -158 63zM1587 0h-569l137 627h-801l-135 -627h-170l299 1366h170l-129 -588h799l129 588h170l-129 -588h373q176 0 269 -102t80 -262q-14 -160 -140 -287t-353 -127z" />
    <glyph glyph-name="afii10060" unicode="&#x40b;" horiz-adv-x="1607" 
d="M1280 412q71 315 -255 315q-163 0 -320 -47l-148 -680h-170l268 1214h-434l33 152h1036l-33 -152h-432l-86 -383q180 47 338 48q233 0 327 -126t46 -343l-90 -410h-170z" />
    <glyph glyph-name="afii10061" unicode="&#x40c;" horiz-adv-x="1230" 
d="M1085 0h-198l-389 623l-179 -164l-100 -459h-170l301 1366h170l-153 -690l747 690h223l-712 -649zM1260 1776l-412 -295h-121l369 295h164z" />
    <glyph glyph-name="afii10062" unicode="&#x40e;" horiz-adv-x="1282" 
d="M827 1444q-109 0 -193 48t-128 132l86 66q74 -148 253 -148t314 148l66 -66q-174 -180 -398 -180zM180 -25q-84 0 -148 31t-93 78l102 135q63 -92 164 -92q72 0 123 40t135 150l47 62l-303 987h182l244 -848l614 848h205l-842 -1124q-102 -135 -198 -201t-232 -66z" />
    <glyph glyph-name="afii10145" unicode="&#x40f;" horiz-adv-x="1458" 
d="M475 -260l57 260h-483l299 1366h170l-268 -1214h801l266 1214h170l-299 -1366h-486l-57 -260h-170z" />
    <glyph glyph-name="afii10017" unicode="&#x410;" horiz-adv-x="1347" 
d="M963 455l-129 735l-451 -735h580zM1219 0h-187l-53 303h-682l-186 -303h-203l850 1366h211z" />
    <glyph glyph-name="afii10018" unicode="&#x411;" horiz-adv-x="1202" 
d="M713 672h-346l-117 -520h360q154 0 242 88t88 217q0 87 -66 151t-161 64zM739 823q171 0 275 -103t104 -263t-117 -299q-59 -72 -163 -115t-240 -43h-549l299 1366h887l-31 -152h-719l-86 -391h340z" />
    <glyph glyph-name="afii10019" unicode="&#x412;" horiz-adv-x="1288" 
d="M678 152q139 0 218 78t79 178q1 100 -59 157t-160 58h-402l-104 -471h428zM813 774q139 0 204 75t65 167t-61 145q-60 53 -147 53h-387l-98 -440h424zM682 0h-633l301 1366h568q152 0 250 -88t98 -228t-94 -244t-224 -120q88 -23 145 -103q56 -81 56 -177
q0 -166 -121 -286t-346 -120z" />
    <glyph glyph-name="afii10020" unicode="&#x413;" horiz-adv-x="1126" 
d="M219 0h-170l301 1366h895l-33 -152h-725z" />
    <glyph glyph-name="afii10021" unicode="&#x414;" horiz-adv-x="1480" 
d="M770 1214l-188 -546q-139 -397 -324 -516h793l233 1062h-514zM-100 -252l84 389q68 7 114 27q118 52 207 238q51 108 111 278l235 686h836l-266 -1214h122l-88 -404h-170l56 252h-1018l-55 -252h-168z" />
    <glyph glyph-name="afii10022" unicode="&#x415;" horiz-adv-x="1165" 
d="M944 0h-895l301 1366h895l-33 -152h-725l-98 -440h711l-33 -151h-713l-104 -471h727z" />
    <glyph glyph-name="afii10024" unicode="&#x416;" horiz-adv-x="1861" 
d="M150 0h-226l776 717l-428 649h199l418 -664l145 664h170l-137 -625l672 625h229l-713 -649l463 -717h-198l-390 623l-112 -103l-113 -520h-170l113 520l-53 84z" />
    <glyph glyph-name="afii10025" unicode="&#x417;" horiz-adv-x="1196" 
d="M1059 399q-1 -178 -145 -301t-346 -123t-352 78q-148 78 -204 207l123 96q51 -106 164 -168t259 -61q146 0 240 81q93 81 93 206q0 94 -85 152t-237 59h-254l33 151h311q141 0 243 62t104 168q0 106 -92 168t-238 61q-211 0 -361 -135l-71 117q80 77 198 123t246 46
q219 0 354 -91q136 -91 136 -245t-118 -249q-118 -96 -263 -109q113 -20 187 -98t75 -195z" />
    <glyph glyph-name="afii10026" unicode="&#x418;" horiz-adv-x="1449" 
d="M213 0h-164l301 1366h170l-241 -1094l1028 1094h174l-301 -1366h-172l247 1114z" />
    <glyph glyph-name="afii10027" unicode="&#x419;" horiz-adv-x="1449" 
d="M922 1444q-109 0 -193 48t-129 132l86 66q74 -148 253 -148t314 148l66 -66q-174 -180 -397 -180zM213 0h-164l301 1366h170l-241 -1094l1028 1094h174l-301 -1366h-172l247 1114z" />
    <glyph glyph-name="afii10028" unicode="&#x41a;" horiz-adv-x="1230" 
d="M1085 0h-198l-389 623l-179 -164l-100 -459h-170l301 1366h170l-153 -690l747 690h223l-712 -649z" />
    <glyph glyph-name="afii10029" unicode="&#x41b;" horiz-adv-x="1458" 
d="M-51 -25l33 152q88 0 151 41q138 90 283 512l235 686h836l-299 -1366h-170l266 1214h-514l-188 -546q-152 -437 -303 -573q-80 -71 -155 -95t-175 -25z" />
    <glyph glyph-name="afii10030" unicode="&#x41c;" horiz-adv-x="1656" 
d="M1386 0h-169l253 1149l-718 -1149h-70l-211 1149l-252 -1149h-170l301 1366h236l192 -1053l658 1053h252z" />
    <glyph glyph-name="afii10031" unicode="&#x41d;" horiz-adv-x="1458" 
d="M1188 0h-170l137 627h-799l-137 -627h-170l301 1366h170l-129 -588h799l129 588h170z" />
    <glyph glyph-name="afii10032" unicode="&#x41e;" horiz-adv-x="1566" 
d="M764 127q236 0 406 188t171 467q0 211 -131 333t-329 122q-240 0 -409 -187t-169 -468q0 -213 131 -334t330 -121zM754 -25q-272 0 -452 161q-179 161 -179 437q0 342 224 579t544 237q272 0 451 -161t180 -435q0 -344 -224 -581t-544 -237z" />
    <glyph glyph-name="afii10033" unicode="&#x41f;" horiz-adv-x="1458" 
d="M1188 0h-170l266 1214h-799l-266 -1214h-170l301 1366h1139z" />
    <glyph glyph-name="afii10034" unicode="&#x420;" horiz-adv-x="1202" 
d="M729 694q156 0 243 88t87 217q0 91 -65 153t-163 62h-344l-116 -520h358zM858 1366q172 0 276 -103t103 -261q0 -158 -116 -302q-57 -72 -163 -114t-243 -43h-377l-119 -543h-170l301 1366h508z" />
    <glyph glyph-name="afii10035" unicode="&#x421;" horiz-adv-x="1384" 
d="M768 -25q-288 0 -467 165q-178 165 -178 433q0 180 64 335q125 299 417 422q138 58 312 58t317 -85q143 -86 215 -236l-162 -63q-119 233 -405 233q-229 0 -403 -184t-175 -471q0 -203 125 -329t331 -126t371 156l125 -95q-199 -213 -487 -213z" />
    <glyph glyph-name="afii10036" unicode="&#x422;" horiz-adv-x="1167" 
d="M557 0h-170l268 1214h-432l33 152h1036l-32 -152h-435z" />
    <glyph glyph-name="afii10037" unicode="&#x423;" horiz-adv-x="1282" 
d="M180 -25q-84 0 -148 31t-93 78l102 135q63 -92 164 -92q72 0 123 40t135 150l47 62l-303 987h182l244 -848l614 848h205l-842 -1124q-102 -135 -198 -201t-232 -66z" />
    <glyph glyph-name="afii10038" unicode="&#x424;" horiz-adv-x="1650" 
d="M313 610q-1 -133 99 -220t282 -103l180 790q-254 -19 -408 -149t-153 -318zM1425 752q0 135 -100 222t-283 103l-180 -792q254 20 409 149q154 130 154 318zM135 610q0 254 219 430t555 191l31 135h170l-33 -139q258 -23 392 -147t135 -328q0 -252 -220 -429t-557 -192
l-28 -131h-170l30 135q-256 25 -390 149t-134 326z" />
    <glyph glyph-name="afii10039" unicode="&#x425;" horiz-adv-x="1335" 
d="M1198 0h-192l-316 578l-557 -578h-219l688 711l-356 655h194l291 -543l516 543h221l-649 -676z" />
    <glyph glyph-name="afii10040" unicode="&#x426;" horiz-adv-x="1480" 
d="M1085 -252l56 252h-1092l299 1366h170l-268 -1214h801l266 1214h170l-266 -1214h122l-88 -404h-170z" />
    <glyph glyph-name="afii10041" unicode="&#x427;" horiz-adv-x="1251" 
d="M600 543q-236 0 -328 126t-45 343l80 354h170l-80 -356q-68 -315 252 -316q166 0 324 47l137 625h170l-299 -1366h-170l129 590q-184 -47 -340 -47z" />
    <glyph glyph-name="afii10042" unicode="&#x428;" horiz-adv-x="1961" 
d="M1821 1366h170l-299 -1366h-1643l299 1366h170l-268 -1214h567l268 1214h170l-268 -1214h567z" />
    <glyph glyph-name="afii10043" unicode="&#x429;" horiz-adv-x="1986" 
d="M1821 1366h170l-267 -1214h125l-88 -404h-170l56 252h-1598l299 1366h170l-268 -1214h567l268 1214h170l-268 -1214h567z" />
    <glyph glyph-name="afii10044" unicode="&#x42a;" horiz-adv-x="1540" 
d="M1049 672h-344l-115 -520h354q158 0 246 88t88 217q0 87 -66 151t-163 64zM934 0h-547l268 1214h-434l33 152h602l-119 -543h340q171 0 275 -103q104 -104 104 -262t-116 -300q-58 -72 -164 -115t-242 -43z" />
    <glyph glyph-name="afii10045" unicode="&#x42b;" horiz-adv-x="1613" 
d="M711 672h-344l-117 -520h356q156 0 245 88t89 217q0 87 -66 151t-163 64zM739 823q171 0 275 -103t104 -263t-117 -299q-59 -72 -164 -115t-241 -43h-547l299 1366h170l-119 -543h340zM1343 0h-169l299 1366h169z" />
    <glyph glyph-name="afii10046" unicode="&#x42c;" horiz-adv-x="1202" 
d="M711 672h-344l-117 -520h356q156 0 245 88t89 217q0 87 -66 151t-163 64zM739 823q171 0 275 -103t104 -263t-117 -299q-59 -72 -164 -115t-241 -43h-547l299 1366h170l-119 -543h340z" />
    <glyph glyph-name="afii10047" unicode="&#x42d;" horiz-adv-x="1384" 
d="M696 1389q288 0 466 -165q177 -165 177 -433q-1 -180 -65 -335q-124 -299 -416 -422q-140 -58 -312 -58t-315 85q-143 86 -217 236l162 63q119 -233 406 -233q196 0 356 136t207 360h-766l33 151h749v8q0 203 -126 329t-333 126t-368 -156l-127 95q201 213 489 213z" />
    <glyph glyph-name="afii10048" unicode="&#x42e;" horiz-adv-x="2031" 
d="M1207 127q222 0 395 173q172 173 196 433q25 225 -95 365t-342 139q-222 0 -392 -172t-195 -434q-25 -227 93 -365t340 -139zM1200 -25q-299 1 -465 181t-139 467v4h-242l-135 -627h-170l299 1366h170l-129 -588h234q70 266 279 439q210 172 490 172q280 1 445 -179
q166 -180 139 -467q-27 -326 -252 -547t-524 -221z" />
    <glyph glyph-name="afii10049" unicode="&#x42f;" horiz-adv-x="1245" 
d="M623 692h335l115 522h-358q-152 0 -241 -88t-89 -217q0 -93 69 -155t169 -62zM207 895q0 187 134 329t390 142h547l-303 -1366h-170l121 543h-254l-469 -543h-219l495 555q-109 27 -191 116t-81 224z" />
    <glyph glyph-name="afii10065" unicode="&#x430;" horiz-adv-x="1177" 
d="M621 877q-165 1 -271 -139t-106 -326q0 -137 76 -218t200 -81q88 0 170 48t131 120l99 436q-39 70 -118 115t-181 45zM600 1014q113 0 204 -48t140 -132l35 155h154l-220 -989h-153l31 141q-133 -166 -317 -166t-288 109t-104 299q0 255 144 443t374 188z" />
    <glyph glyph-name="afii10066" unicode="&#x431;" horiz-adv-x="1181" 
d="M547 -25q-221 0 -343 120q-122 119 -122 313t90 380q98 225 250 338t389 142q143 24 203 46t67 52h150q-39 -176 -438 -227q-213 -29 -325 -113t-173 -223q162 211 387 211q188 0 296 -120t107 -321q-1 -240 -159 -419t-379 -179zM552 113q152 0 262 138q110 139 110 299
t-78 244t-230 83t-262 -139q-111 -138 -110 -318q0 -141 78 -224t230 -83z" />
    <glyph glyph-name="afii10067" unicode="&#x432;" horiz-adv-x="1134" 
d="M696 575q76 -1 122 47t46 109t-42 92t-113 31h-326l-61 -279h374zM600 135q84 0 136 49q52 50 52 116t-40 103q-41 37 -115 37h-340l-68 -305h375zM616 0h-573l217 989h504q118 0 190 -57q72 -56 72 -158t-60 -176t-163 -96q63 -25 101 -78t38 -127q0 -125 -88 -211
t-238 -86z" />
    <glyph glyph-name="afii10068" unicode="&#x433;" horiz-adv-x="892" 
d="M952 989l-30 -135h-539l-186 -854h-154l217 989h692z" />
    <glyph glyph-name="afii10069" unicode="&#x434;" horiz-adv-x="1148" 
d="M500 854l-127 -371q-92 -262 -219 -348h587l158 719h-399zM-127 -252l80 379q76 14 137 92t133 283l172 487h688l-188 -854h115l-86 -387h-154l57 252h-747l-55 -252h-152z" />
    <glyph glyph-name="afii10070" unicode="&#x435;" horiz-adv-x="1153" 
d="M926 596q0 127 -79 209t-217 82t-243 -97q-104 -98 -129 -233h664q4 16 4 39zM578 102q162 0 282 97l51 -107q-147 -117 -358 -117t-341 119t-130 320q0 248 162 424t395 176q193 0 309 -121t117 -311q0 -61 -16 -138h-807l-2 -47q0 -123 88 -209t250 -86z" />
    <glyph glyph-name="afii10072" unicode="&#x436;" horiz-adv-x="1456" 
d="M125 0h-207l559 541l-340 448h185l337 -446l99 446h153l-92 -422l506 422h207l-539 -448l324 -541h-187l-262 451l-92 -76l-82 -375h-153l82 375l-52 63z" />
    <glyph glyph-name="afii10073" unicode="&#x437;" horiz-adv-x="1052" 
d="M614 1014q201 0 299 -67q99 -67 99 -187t-108 -190q-108 -71 -224 -78q90 -12 160 -68t69 -143q0 -133 -138 -219t-327 -87q-305 0 -438 168l94 93q121 -133 344 -134q128 0 218 54t90 129q0 77 -71 115t-185 38h-238l29 125h221q154 0 246 45t92 137q0 141 -244 142
q-209 0 -385 -125l-65 100q198 152 462 152z" />
    <glyph glyph-name="afii10074" unicode="&#x438;" horiz-adv-x="1130" 
d="M190 0h-147l217 989h154l-166 -756l684 756h151l-217 -989h-153l168 770z" />
    <glyph glyph-name="afii10075" unicode="&#x439;" horiz-adv-x="1130" 
d="M686 1102q-108 0 -192 48t-129 132l86 66q75 -148 253 -148t314 148l65 -66q-174 -180 -397 -180zM190 0h-147l217 989h154l-166 -756l684 756h151l-217 -989h-153l168 770z" />
    <glyph glyph-name="afii10076" unicode="&#x43a;" horiz-adv-x="1052" 
d="M913 0h-186l-262 451l-207 -168l-61 -283h-154l219 989h154l-115 -518l627 518h202l-538 -448z" />
    <glyph glyph-name="afii10077" unicode="&#x43b;" horiz-adv-x="1130" 
d="M-80 -25l29 127q71 0 135 92t139 308l172 487h688l-217 -989h-153l186 854h-399l-127 -371q-92 -272 -200 -390t-253 -118z" />
    <glyph glyph-name="afii10078" unicode="&#x43c;" horiz-adv-x="1316" 
d="M1053 0h-154l168 776l-489 -776h-58l-153 776l-170 -776h-154l217 989h197l139 -733l461 733h213z" />
    <glyph glyph-name="afii10079" unicode="&#x43d;" horiz-adv-x="1128" 
d="M197 0h-154l225 989h154l-92 -405h516l92 405h154l-226 -989h-153l102 449h-516z" />
    <glyph glyph-name="afii10080" unicode="&#x43e;" 
d="M552 113q152 0 262 138q110 139 110 299t-78 244t-230 83t-262 -139q-111 -138 -110 -318q0 -141 78 -224t230 -83zM547 -25q-221 0 -343 120t-122 319q0 240 159 420t380 180t343 -121t121 -320q-1 -240 -159 -419t-379 -179z" />
    <glyph glyph-name="afii10081" unicode="&#x43f;" horiz-adv-x="1128" 
d="M866 0h-153l194 854h-516l-194 -854h-154l225 989h824z" />
    <glyph glyph-name="afii10082" unicode="&#x440;" 
d="M555 113q164 0 270 139t107 326q0 137 -76 218t-201 81q-90 -1 -170 -49t-133 -121l-96 -435q39 -72 118 -116t181 -43zM575 -25q-115 1 -203 49t-141 132l-118 -533h-154l303 1366h154l-33 -141q135 166 317 166t288 -109q105 -109 106 -299q0 -252 -145 -442t-374 -189
z" />
    <glyph glyph-name="afii10083" unicode="&#x441;" horiz-adv-x="1013" 
d="M538 -25q-204 0 -330 119t-126 324q0 246 162 421t408 175t358 -185l-117 -88q-76 135 -253 135t-288 -134q-111 -136 -110 -322q0 -147 87 -227t228 -80t244 116l88 -102q-147 -152 -351 -152z" />
    <glyph glyph-name="afii10084" unicode="&#x442;" horiz-adv-x="823" 
d="M377 0h-154l187 854h-287l31 135h729l-31 -135h-289z" />
    <glyph glyph-name="afii10085" unicode="&#x443;" horiz-adv-x="1003" 
d="M55 -258q82 0 148 98l100 154l-188 995h161l148 -811l510 811h172l-762 -1190q-129 -201 -309 -200q-74 -1 -129 22l53 137q37 -16 96 -16z" />
    <glyph glyph-name="afii10086" unicode="&#x444;" horiz-adv-x="1634" 
d="M1061 113q135 1 227 157t92 342q0 121 -51 193t-145 72q-131 0 -244 -158l-98 -447q20 -66 80 -112t139 -47zM567 877q-135 0 -227 -157t-92 -343q0 -121 51 -193t145 -71q131 0 244 157l98 447q-20 66 -80 113t-139 47zM539 1014q93 0 165 -47t109 -127l117 526h153
l-114 -520q119 168 271 168t225 -108t73 -270t-55 -310q-55 -150 -159 -250t-234 -101q-90 -1 -164 47t-111 128l-115 -527h-153l112 520q-115 -168 -282 -168q-141 0 -214 108q-73 107 -73 269t55 312t160 250t234 100z" />
    <glyph glyph-name="afii10087" unicode="&#x445;" horiz-adv-x="995" 
d="M862 0h-170l-209 406l-387 -406h-182l489 508l-249 481h170l190 -377l360 377h185l-467 -481z" />
    <glyph glyph-name="afii10088" unicode="&#x446;" horiz-adv-x="1148" 
d="M770 -252l57 252h-784l217 989h154l-189 -854h516l189 854h153l-188 -854h115l-86 -387h-154z" />
    <glyph glyph-name="afii10089" unicode="&#x447;" horiz-adv-x="1107" 
d="M548 475q144 0 257 53l102 461h154l-217 -989h-154l88 403q-146 -65 -328 -65t-250 78t-32 248l72 325h153l-61 -278q-29 -133 21 -185q51 -52 195 -51z" />
    <glyph glyph-name="afii10090" unicode="&#x448;" horiz-adv-x="1603" 
d="M1403 989h153l-217 -989h-1296l217 989h154l-189 -854h418l188 854h154l-188 -854h417z" />
    <glyph glyph-name="afii10091" unicode="&#x449;" horiz-adv-x="1634" 
d="M1403 989h153l-188 -854h115l-86 -387h-154l57 252h-1257l217 989h154l-189 -854h418l188 854h154l-188 -854h417z" />
    <glyph glyph-name="afii10092" unicode="&#x44a;" horiz-adv-x="1249" 
d="M815 471h-336l-73 -336h358q86 0 140 50t64 126t-30 118q-39 42 -123 42zM760 0h-537l187 854h-287l31 135h440l-86 -383h336q141 0 217 -78q77 -78 65 -206t-111 -226q-99 -96 -255 -96z" />
    <glyph glyph-name="afii10093" unicode="&#x44b;" horiz-adv-x="1458" 
d="M623 471h-324l-74 -336h367q88 0 142 56q54 55 54 131q0 148 -165 149zM649 606q137 0 217 -72t80 -201t-99 -231t-261 -102h-543l217 989h154l-86 -383h321zM1194 0h-154l217 989h154z" />
    <glyph glyph-name="afii10094" unicode="&#x44c;" horiz-adv-x="1069" 
d="M623 471h-324l-74 -336h367q88 0 142 56q54 55 54 131q0 148 -165 149zM649 606q137 0 217 -72t80 -201t-99 -231t-261 -102h-543l217 989h154l-86 -383h321z" />
    <glyph glyph-name="afii10095" unicode="&#x44d;" horiz-adv-x="1013" 
d="M508 1014q203 0 330 -119t127 -324q0 -247 -162 -421q-163 -174 -409 -174t-357 184l108 82q39 -66 108 -103t148 -37q145 0 249 94t138 238h-503l30 133h490q-2 150 -88 234q-87 84 -233 84t-244 -119l-82 96q147 152 350 152z" />
    <glyph glyph-name="afii10096" unicode="&#x44e;" horiz-adv-x="1570" 
d="M950 113q150 0 262 138q112 139 111 299q0 160 -78 244q-77 84 -229 83t-264 -139t-111 -298q0 -160 79 -244q80 -83 230 -83zM1485 573q0 -240 -159 -419t-381 -179t-344 120t-122 319v28h-186l-96 -442h-154l217 989h154l-90 -411h176q51 188 196 312t345 124t322 -121
t122 -320z" />
    <glyph glyph-name="afii10097" unicode="&#x44f;" horiz-adv-x="1120" 
d="M479 518h336l74 336h-367q-88 0 -142 -56t-54 -130t40 -112t113 -38zM168 645q0 141 99 243t261 101h545l-217 -989h-154l84 383h-262l-327 -383h-187l355 397q-90 23 -144 86q-53 63 -53 162z" />
    <glyph glyph-name="afii10071" unicode="&#x451;" horiz-adv-x="1153" 
d="M926 596q0 127 -79 209t-217 82t-243 -97q-104 -98 -129 -233h664q4 16 4 39zM578 102q162 0 282 97l51 -107q-147 -117 -358 -117t-341 119t-130 320q0 248 162 424t395 176q193 0 309 -121t117 -311q0 -61 -16 -138h-807l-2 -47q0 -123 88 -209t250 -86zM631 1244
q0 -38 -33 -70t-71 -33q-37 -1 -63 25t-26 64t33 70t72 31t63 -25t25 -62zM1053 1244q0 -38 -32 -70t-71 -33q-40 -1 -64 25t-24 64t32 70t71 31t63 -25t25 -62z" />
    <glyph glyph-name="afii10099" unicode="&#x452;" horiz-adv-x="1134" 
d="M776 1014q315 0 246 -316l-174 -794q-33 -146 -126 -226q-94 -80 -226 -80t-209 74l80 117q49 -63 127 -63q160 0 200 178l164 747q29 123 -18 174q-48 51 -144 51t-186 -44q-90 -46 -152 -109l-157 -723h-154l240 1096h-140l21 98h139l39 172h154l-39 -172h319l-20 -98
h-320l-55 -250q74 70 180 119t211 49z" />
    <glyph glyph-name="afii10100" unicode="&#x453;" horiz-adv-x="892" 
d="M952 989l-30 -135h-539l-186 -854h-154l217 989h692zM1065 1434l-412 -295h-121l369 295h164z" />
    <glyph glyph-name="afii10101" unicode="&#x454;" horiz-adv-x="1013" 
d="M538 -25q-204 0 -330 119t-126 324q0 246 162 421t408 175t358 -185l-111 -81q-80 139 -254 139q-143 0 -245 -90t-140 -230h504l-31 -133h-491v-8q0 -152 86 -237t232 -85t247 119l82 -96q-147 -152 -351 -152z" />
    <glyph glyph-name="afii10102" unicode="&#x455;" horiz-adv-x="952" 
d="M424 -25q-279 0 -418 175l98 106q44 -64 134 -110t193 -46t165 52t63 112q0 60 -53 100t-130 68q-78 28 -154 58t-129 86t-54 133q1 129 101 217t274 88q123 0 224 -46t153 -116l-88 -100q-35 55 -120 96t-179 41t-152 -43q-58 -42 -59 -100q0 -58 53 -94t130 -64
t154 -59q77 -32 130 -90t53 -138q1 -135 -105 -231t-284 -95z" />
    <glyph glyph-name="afii10103" unicode="&#x456;" horiz-adv-x="460" 
d="M197 0h-154l219 989h154zM382 1130q-42 0 -69 26t-27 71t38 78t78 33t68 -28q28 -26 28 -70t-37 -77t-79 -33z" />
    <glyph glyph-name="afii10104" unicode="&#x457;" horiz-adv-x="460" 
d="M197 0h-154l219 989h154zM279 1244q0 -38 -33 -70t-71 -33q-37 -1 -63 25t-26 64t33 70t72 31t63 -25t25 -62zM700 1244q0 -38 -32 -70t-70 -33q-40 -1 -64 25t-24 64t32 70t70 31q38 0 64 -24q24 -25 24 -63z" />
    <glyph glyph-name="afii10105" unicode="&#x458;" horiz-adv-x="460" 
d="M382 1130q-42 0 -69 26t-27 71t38 78t78 33t68 -28q28 -26 28 -70t-37 -77t-79 -33zM-139 -401q-162 0 -236 86l74 110q51 -70 141 -69q139 0 180 178l242 1085h154l-242 -1085q-67 -305 -313 -305z" />
    <glyph glyph-name="afii10106" unicode="&#x459;" horiz-adv-x="1738" 
d="M1290 471h-321l-74 -336h367q88 0 142 56q54 55 54 131q0 148 -168 149zM1319 606q137 0 217 -72t80 -201t-99 -231t-262 -102h-542l186 854h-399l-127 -371q-92 -272 -200 -390t-253 -118l29 127q71 0 135 92t139 308l172 487h688l-86 -383h322z" />
    <glyph glyph-name="afii10107" unicode="&#x45a;" horiz-adv-x="1738" 
d="M1303 442h-340l-68 -307h381q82 0 130 51q48 52 48 120q0 136 -151 136zM1331 578q131 0 207 -68t76 -192t-94 -222q-94 -96 -248 -96h-559l96 442h-516l-96 -442h-154l217 989h154l-90 -411h514l92 411h153l-92 -411h340z" />
    <glyph glyph-name="afii10108" unicode="&#x45b;" horiz-adv-x="1132" 
d="M868 717q0 160 -204 160q-156 0 -306 -158l-159 -719h-154l242 1096h-137l22 98h135l39 172h154l-39 -172h323l-22 -98h-322l-55 -250q176 168 350 168q133 0 214 -65t81 -181q0 -41 -12 -82l-150 -686h-153l141 649q12 55 12 68z" />
    <glyph glyph-name="afii10109" unicode="&#x45c;" horiz-adv-x="1052" 
d="M913 0h-186l-262 451l-207 -168l-61 -283h-154l219 989h154l-115 -518l627 518h202l-538 -448zM1098 1434l-412 -295h-121l369 295h164z" />
    <glyph glyph-name="afii10110" unicode="&#x45e;" horiz-adv-x="1003" 
d="M618 1102q-108 0 -192 48t-129 132l86 66q74 -148 253 -148t314 148l66 -66q-174 -180 -398 -180zM55 -258q82 0 148 98l100 154l-188 995h161l148 -811l510 811h172l-762 -1190q-129 -201 -309 -200q-74 -1 -129 22l53 137q37 -16 96 -16z" />
    <glyph glyph-name="afii10193" unicode="&#x45f;" horiz-adv-x="1130" 
d="M322 -258l55 258h-334l217 989h154l-189 -854h516l189 854h153l-217 -989h-336l-55 -258h-153z" />
    <glyph glyph-name="afii10050" unicode="&#x490;" horiz-adv-x="1126" 
d="M219 0h-170l299 1366h725l55 252h170l-86 -404h-727z" />
    <glyph glyph-name="afii10098" unicode="&#x491;" horiz-adv-x="892" 
d="M383 854l-186 -854h-154l217 989h539l57 258h154l-88 -393h-539z" />
    <glyph glyph-name="uni1E02" unicode="&#x1e02;" horiz-adv-x="1288" 
d="M782 1568q0 40 32 72t73 31t65 -25t25 -64q0 -40 -33 -72t-73 -32q-41 0 -65 26q-24 24 -24 64zM678 152q139 0 218 78t79 178q1 100 -59 157t-160 58h-402l-104 -471h428zM813 774q139 0 204 75t65 167t-61 145q-60 53 -147 53h-387l-98 -440h424zM682 0h-633l301 1366
h568q152 0 250 -88t98 -228t-94 -244t-224 -120q88 -23 145 -103q56 -81 56 -177q0 -166 -121 -286t-346 -120z" />
    <glyph glyph-name="uni1E03" unicode="&#x1e03;" horiz-adv-x="1177" 
d="M944 1582q0 -40 -33 -72t-73 -32t-64 26q-24 24 -24 64t32 72t72 31q41 0 66 -24q24 -25 24 -65zM555 113q164 0 270 139t107 326q0 137 -76 218t-201 81q-90 -1 -170 -49t-133 -121l-96 -435q39 -72 118 -116t181 -43zM575 -25q-115 1 -203 49t-141 132l-34 -156h-154
l301 1366h154l-115 -518q135 166 317 166t288 -109q105 -109 106 -299q0 -252 -145 -442t-374 -189z" />
    <glyph glyph-name="uni1E0A" unicode="&#x1e0a;" horiz-adv-x="1433" 
d="M866 1568q0 40 32 72t73 31t65 -25t25 -64q0 -40 -33 -72t-73 -32q-41 0 -65 26q-24 24 -24 64zM543 152q293 0 473 181t180 441q0 188 -121 314t-301 126h-287l-237 -1062h293zM514 0h-465l301 1366h457q233 0 400 -166t167 -418q0 -299 -206 -529q-101 -113 -271 -183
t-383 -70z" />
    <glyph glyph-name="uni1E0B" unicode="&#x1e0b;" horiz-adv-x="1177" 
d="M909 1582q-1 -40 -33 -72t-72 -32t-65 26q-25 24 -25 64t32 72t73 31q41 0 66 -24q24 -25 24 -65zM621 877q-165 1 -271 -139t-106 -326q0 -137 76 -218t200 -81q88 0 170 48t131 120l99 436q-39 70 -118 115t-181 45zM600 1014q113 0 204 -48t140 -132l119 532h154
l-304 -1366h-153l31 141q-133 -166 -317 -166t-288 109t-104 299q0 255 144 443t374 188z" />
    <glyph glyph-name="uni1E1E" unicode="&#x1e1e;" horiz-adv-x="1126" 
d="M219 0h-170l301 1366h895l-33 -152h-725l-98 -440h711l-33 -151h-713zM745 1568q0 40 32 72t73 31q42 -1 66 -25t24 -64t-33 -72t-73 -32t-64 26q-24 24 -25 64z" />
    <glyph glyph-name="uni1E1F" unicode="&#x1e1f;" horiz-adv-x="579" 
d="M240 0h-154l188 856h-163l30 133h164l17 76q72 322 329 321q131 0 215 -83l-82 -93q-49 49 -127 50q-141 0 -182 -195l-16 -76h200l-30 -133h-201zM788 1582q0 -40 -32 -72t-73 -32q-40 0 -65 26q-24 24 -24 64t32 72t72 31q40 0 66 -24q24 -25 24 -65z" />
    <glyph glyph-name="uni1E22" unicode="&#x1e22;" horiz-adv-x="1458" 
d="M866 1568q0 40 32 72t73 31t65 -25t25 -64q0 -40 -33 -72t-73 -32q-41 0 -65 26q-24 24 -24 64zM1188 0h-170l137 627h-799l-137 -627h-170l301 1366h170l-129 -588h799l129 588h170z" />
    <glyph glyph-name="uni1E23" unicode="&#x1e23;" horiz-adv-x="1130" 
d="M905 1582q0 -40 -33 -72q-32 -32 -72 -32t-65 26q-25 24 -25 64t32 72t73 31q41 0 66 -24q24 -25 24 -65zM866 717q0 160 -204 160q-156 0 -306 -158l-159 -719h-154l301 1366h154l-115 -520q176 168 350 168q133 0 214 -65t81 -181q0 -41 -12 -82l-150 -686h-153
l141 649q12 55 12 68z" />
    <glyph glyph-name="uni1E56" unicode="&#x1e56;" horiz-adv-x="1202" 
d="M768 1568q0 40 32 72t73 31t65 -25t25 -64q0 -40 -33 -72t-73 -32q-41 0 -65 26q-24 24 -24 64zM729 694q156 0 243 88t87 217q0 91 -65 153t-163 62h-344l-116 -520h358zM858 1366q172 0 276 -103t103 -261q0 -158 -116 -302q-57 -72 -163 -114t-243 -43h-377l-119 -543
h-170l301 1366h508z" />
    <glyph glyph-name="uni1E57" unicode="&#x1e57;" 
d="M868 1240q0 -40 -32 -72t-73 -32q-40 0 -65 26q-24 24 -24 64t32 72t72 31q40 0 66 -24q24 -25 24 -65zM555 113q164 0 270 139t107 326q0 137 -76 218t-201 81q-90 -1 -170 -49t-133 -121l-96 -435q39 -72 118 -116t181 -43zM575 -25q-115 1 -203 49t-141 132l-118 -533
h-154l303 1366h154l-33 -141q135 166 317 166t288 -109q105 -109 106 -299q0 -252 -145 -442t-374 -189z" />
    <glyph glyph-name="uni1E60" unicode="&#x1e60;" horiz-adv-x="1200" 
d="M942 1582q0 -40 -33 -72t-73 -32t-64 26q-24 24 -24 64t32 72t72 31q41 0 66 -24q24 -25 24 -65zM586 -25q-180 0 -331 69t-222 175l117 123q72 -100 190 -158t263 -57q144 0 221 78t77 164t-70 140q-69 54 -169 92t-200 82t-169 121q-70 77 -70 185q0 162 138 280
t346 117q157 0 289 -57t204 -158l-117 -118q-66 90 -172 137t-223 47t-200 -68q-82 -69 -82 -147t70 -128t168 -89q100 -39 200 -84t170 -125t69 -188q0 -174 -134 -304t-363 -129z" />
    <glyph glyph-name="uni1E61" unicode="&#x1e61;" horiz-adv-x="952" 
d="M733 1240q0 -40 -33 -72q-32 -32 -72 -32t-65 26q-25 24 -25 64t32 72t73 31q41 0 66 -24q24 -25 24 -65zM424 -25q-279 0 -418 175l98 106q44 -64 134 -110t193 -46t165 52t63 112q0 60 -53 100t-130 68q-78 28 -154 58t-129 86t-54 133q1 129 101 217t274 88
q123 0 224 -46t153 -116l-88 -100q-35 55 -120 96t-179 41t-152 -43q-58 -42 -59 -100q0 -58 53 -94t130 -64t154 -59q77 -32 130 -90t53 -138q1 -135 -105 -231t-284 -95z" />
    <glyph glyph-name="uni1E6A" unicode="&#x1e6a;" horiz-adv-x="1167" 
d="M725 1568q0 40 32 72t73 31q42 -1 66 -25t24 -64t-33 -72t-73 -32t-64 26q-24 24 -25 64zM557 0h-170l268 1214h-432l33 152h1036l-32 -152h-435z" />
    <glyph glyph-name="uni1E6B" unicode="&#x1e6b;" horiz-adv-x="602" 
d="M510 1671q42 -1 66 -25t24 -64t-33 -72t-73 -32t-64 26q-24 24 -24 64t32 72t72 31zM340 -25q-225 0 -225 181q0 27 6 57l143 643h-164l31 133h164l59 271h154l-59 -271h200l-31 -133h-200l-135 -610q-4 -25 -4 -41q0 -92 98 -92q57 0 94 32l18 -122q-61 -48 -149 -48z
" />
    <glyph glyph-name="Wgrave" unicode="&#x1e80;" horiz-adv-x="1808" 
d="M1231 1481h-117l-280 295h159zM1278 0h-184l-58 1102l-544 -1102h-185l-88 1366h184l50 -1139l565 1139h143l60 -1139l555 1139h192z" />
    <glyph glyph-name="wgrave" unicode="&#x1e81;" horiz-adv-x="1503" 
d="M1004 1139h-117l-281 295h160zM1053 0h-154l-82 795l-434 -795h-154l-96 989h154l65 -788l434 788h136l84 -788l413 788h168z" />
    <glyph glyph-name="Wacute" unicode="&#x1e82;" horiz-adv-x="1808" 
d="M1278 0h-184l-58 1102l-544 -1102h-185l-88 1366h184l50 -1139l565 1139h143l60 -1139l555 1139h192zM1522 1776l-412 -295h-121l369 295h164z" />
    <glyph glyph-name="wacute" unicode="&#x1e83;" horiz-adv-x="1503" 
d="M1053 0h-154l-82 795l-434 -795h-154l-96 989h154l65 -788l434 788h136l84 -788l413 788h168zM1300 1434l-411 -295h-121l369 295h163z" />
    <glyph glyph-name="Wdieresis" unicode="&#x1e84;" horiz-adv-x="1808" 
d="M1278 0h-184l-58 1102l-544 -1102h-185l-88 1366h184l50 -1139l565 1139h143l60 -1139l555 1139h192zM1020 1586q0 -38 -33 -70t-71 -33t-64 25t-25 64q0 38 33 70t72 31q40 -1 64 -25t24 -62zM1442 1586q0 -38 -32 -70t-71 -33t-63 25t-25 64q0 38 32 70t71 31
q40 -1 64 -25t24 -62z" />
    <glyph glyph-name="wdieresis" unicode="&#x1e85;" horiz-adv-x="1503" 
d="M1053 0h-154l-82 795l-434 -795h-154l-96 989h154l65 -788l434 788h136l84 -788l413 788h168zM795 1244q0 -38 -33 -70t-71 -33q-37 -1 -63 25t-26 64t33 70t72 31t63 -25t25 -62zM1217 1244q0 -38 -32 -70t-71 -33q-40 -1 -64 25t-24 64t32 70t71 31t63 -25t25 -62z" />
    <glyph glyph-name="uni1EA0" unicode="&#x1ea0;" horiz-adv-x="1347" 
d="M506 -184q42 0 66 -24t24 -65q0 -40 -33 -72t-73 -32t-64 25q-24 24 -25 64q0 40 32 72t73 32zM963 455l-129 735l-451 -735h580zM1219 0h-187l-53 303h-682l-186 -303h-203l850 1366h211z" />
    <glyph glyph-name="uni1EA1" unicode="&#x1ea1;" horiz-adv-x="1177" 
d="M412 -184q42 0 66 -24t24 -65q0 -40 -33 -72t-73 -32t-64 25q-24 24 -25 64q0 40 32 72t73 32zM621 877q-165 1 -271 -139t-106 -326q0 -137 76 -218t200 -81q88 0 170 48t131 120l99 436q-39 70 -118 115t-181 45zM600 1014q113 0 204 -48t140 -132l35 155h154
l-220 -989h-153l31 141q-133 -166 -317 -166t-288 109t-104 299q0 255 144 443t374 188z" />
    <glyph glyph-name="uni1EA2" unicode="&#x1ea2;" horiz-adv-x="1347" 
d="M911 1679q57 0 98 -32q40 -33 40 -97t-58 -123h-88q72 61 72 125q-1 29 -21 45t-47 17q-53 -1 -88 -60l-59 31q53 94 151 94zM963 455l-129 735l-451 -735h580zM1219 0h-187l-53 303h-682l-186 -303h-203l850 1366h211z" />
    <glyph glyph-name="uni1EA3" unicode="&#x1ea3;" horiz-adv-x="1177" 
d="M741 1331q57 0 97 -33q40 -34 41 -98q0 -64 -58 -121h-88q72 61 72 125q-1 29 -21 45t-47 17q-53 -1 -88 -60l-59 31q53 94 151 94zM621 877q-165 1 -271 -139t-106 -326q0 -137 76 -218t200 -81q88 0 170 48t131 120l99 436q-39 70 -118 115t-181 45zM600 1014
q113 0 204 -48t140 -132l35 155h154l-220 -989h-153l31 141q-133 -166 -317 -166t-288 109t-104 299q0 255 144 443t374 188z" />
    <glyph glyph-name="uni1EA4" unicode="&#x1ea4;" horiz-adv-x="1347" 
d="M1608 1729l-412 -222h-121l369 222h164zM963 455l-129 735l-451 -735h580zM1219 0h-187l-53 303h-682l-186 -303h-203l850 1366h211zM1128 1397h-100l-123 162l-211 -162h-108l260 221h147z" />
    <glyph glyph-name="uni1EA5" unicode="&#x1ea5;" horiz-adv-x="1177" 
d="M1470 1577l-411 -295h-121l369 295h163zM989 1139h-100l-123 217l-211 -217h-109l261 295h147zM621 877q-165 1 -271 -139t-106 -326q0 -137 76 -218t200 -81q88 0 170 48t131 120l99 436q-39 70 -118 115t-181 45zM600 1014q113 0 204 -48t140 -132l35 155h154
l-220 -989h-153l31 141q-133 -166 -317 -166t-288 109t-104 299q0 255 144 443t374 188z" />
    <glyph glyph-name="uni1EA6" unicode="&#x1ea6;" horiz-adv-x="1347" 
d="M696 1507h-116l-281 222h160zM963 455l-129 735l-451 -735h580zM1219 0h-187l-53 303h-682l-186 -303h-203l850 1366h211zM1128 1397h-100l-123 162l-211 -162h-108l260 221h147z" />
    <glyph glyph-name="uni1EA7" unicode="&#x1ea7;" horiz-adv-x="1177" 
d="M557 1282h-117l-280 295h159zM989 1139h-100l-123 217l-211 -217h-109l261 295h147zM621 877q-165 1 -271 -139t-106 -326q0 -137 76 -218t200 -81q88 0 170 48t131 120l99 436q-39 70 -118 115t-181 45zM600 1014q113 0 204 -48t140 -132l35 155h154l-220 -989h-153
l31 141q-133 -166 -317 -166t-288 109t-104 299q0 255 144 443t374 188z" />
    <glyph glyph-name="uni1EA8" unicode="&#x1ea8;" horiz-adv-x="1347" 
d="M1092 1737q57 0 97 -24q40 -23 40 -71t-58 -94h-88q72 47 72 94q-1 46 -81 46q-40 0 -75 -43l-59 22q53 70 152 70zM963 455l-129 735l-451 -735h580zM1219 0h-187l-53 303h-682l-186 -303h-203l850 1366h211zM1130 1397h-100l-123 162l-211 -162h-108l260 221h147z" />
    <glyph glyph-name="uni1EA9" unicode="&#x1ea9;" horiz-adv-x="1177" 
d="M934 1618q57 0 97 -33t40 -97t-57 -122h-88q72 61 71 125q0 29 -20 45t-47 16q-53 0 -88 -59l-60 31q53 94 152 94zM989 1139h-100l-123 217l-211 -217h-109l261 295h147zM621 877q-165 1 -271 -139t-106 -326q0 -137 76 -218t200 -81q88 0 170 48t131 120l99 436
q-39 70 -118 115t-181 45zM600 1014q113 0 204 -48t140 -132l35 155h154l-220 -989h-153l31 141q-133 -166 -317 -166t-288 109t-104 299q0 255 144 443t374 188z" />
    <glyph glyph-name="uni1EAA" unicode="&#x1eaa;" horiz-adv-x="1347" 
d="M1034 1550q-80 0 -136 47t-107 48q-86 0 -125 -89h-95q55 137 234 138q80 0 136 -47t108 -48q82 0 127 89h94q-60 -138 -236 -138zM963 455l-129 735l-451 -735h580zM1219 0h-187l-53 303h-682l-186 -303h-203l850 1366h211zM1124 1389h-100l-123 108l-211 -108h-108
l260 147h147z" />
    <glyph glyph-name="uni1EAB" unicode="&#x1eab;" horiz-adv-x="1177" 
d="M922 1397q-51 -1 -86 29t-51 65q-15 35 -43 65t-64 29q-86 0 -125 -176h-94q55 274 233 274q51 1 86 -29t50 -65t43 -65t65 -29q84 0 127 176h94q-59 -274 -235 -274zM973 1071h-101l-122 217l-211 -217h-109l260 295h148zM621 877q-165 1 -271 -139t-106 -326
q0 -137 76 -218t200 -81q88 0 170 48t131 120l99 436q-39 70 -118 115t-181 45zM600 1014q113 0 204 -48t140 -132l35 155h154l-220 -989h-153l31 141q-133 -166 -317 -166t-288 109t-104 299q0 255 144 443t374 188z" />
    <glyph glyph-name="uni1EAC" unicode="&#x1eac;" horiz-adv-x="1347" 
d="M506 -184q42 0 66 -24t24 -65q0 -40 -33 -72t-73 -32t-64 25q-24 24 -25 64q0 40 32 72t73 32zM1159 1481h-100l-123 217l-211 -217h-109l261 295h147zM963 455l-129 735l-451 -735h580zM1219 0h-187l-53 303h-682l-186 -303h-203l850 1366h211z" />
    <glyph glyph-name="uni1EAD" unicode="&#x1ead;" horiz-adv-x="1177" 
d="M412 -184q42 0 66 -24t24 -65q0 -40 -33 -72t-73 -32t-64 25q-24 24 -25 64q0 40 32 72t73 32zM989 1139h-100l-123 217l-211 -217h-109l261 295h147zM621 877q-165 1 -271 -139t-106 -326q0 -137 76 -218t200 -81q88 0 170 48t131 120l99 436q-39 70 -118 115t-181 45z
M600 1014q113 0 204 -48t140 -132l35 155h154l-220 -989h-153l31 141q-133 -166 -317 -166t-288 109t-104 299q0 255 144 443t374 188z" />
    <glyph glyph-name="uni1EAE" unicode="&#x1eae;" horiz-adv-x="1347" 
d="M871 1479q179 0 315 125l65 -56q-174 -154 -397 -153q-108 0 -192 41t-130 112l86 56q74 -125 253 -125zM1280 1722l-412 -200h-120l368 200h164zM963 455l-129 735l-451 -735h580zM1219 0h-187l-53 303h-682l-186 -303h-203l850 1366h211z" />
    <glyph glyph-name="uni1EAF" unicode="&#x1eaf;" horiz-adv-x="1177" 
d="M690 1061q-108 0 -192 48t-129 132l86 66q74 -147 253 -147t314 147l65 -66q-174 -180 -397 -180zM1110 1569l-412 -295h-120l368 295h164zM621 877q-165 1 -271 -139t-106 -326q0 -137 76 -218t200 -81q88 0 170 48t131 120l99 436q-39 70 -118 115t-181 45zM600 1014
q113 0 204 -48t140 -132l35 155h154l-220 -989h-153l31 141q-133 -166 -317 -166t-288 109t-104 299q0 255 144 443t374 188z" />
    <glyph glyph-name="uni1EB0" unicode="&#x1eb0;" horiz-adv-x="1347" 
d="M874 1479q178 0 314 125l65 -56q-174 -154 -397 -153q-108 0 -192 41t-129 112l86 56q75 -125 253 -125zM1038 1532h-116l-281 201h160zM963 455l-129 735l-451 -735h580zM1219 0h-187l-53 303h-682l-186 -303h-203l850 1366h211z" />
    <glyph glyph-name="uni1EB1" unicode="&#x1eb1;" horiz-adv-x="1177" 
d="M692 1071q-108 0 -192 48t-129 132l86 66q74 -147 253 -147t314 147l66 -66q-174 -180 -398 -180zM899 1274h-117l-280 295h160zM621 877q-165 1 -271 -139t-106 -326q0 -137 76 -218t200 -81q88 0 170 48t131 120l99 436q-39 70 -118 115t-181 45zM600 1014
q113 0 204 -48t140 -132l35 155h154l-220 -989h-153l31 141q-133 -166 -317 -166t-288 109t-104 299q0 255 144 443t374 188z" />
    <glyph glyph-name="uni1EB2" unicode="&#x1eb2;" horiz-adv-x="1347" 
d="M874 1479q178 0 314 125l65 -56q-174 -154 -397 -153q-108 0 -192 41t-129 112l86 56q75 -125 253 -125zM1061 1606q0 -44 -57 -82h-89q72 43 72 84q-1 42 -81 42q-40 0 -75 -40l-59 20q53 63 152 64q57 0 97 -22t40 -66zM963 455l-129 735l-451 -735h580zM1219 0h-187
l-53 303h-682l-186 -303h-203l850 1366h211z" />
    <glyph glyph-name="uni1EB3" unicode="&#x1eb3;" horiz-adv-x="1177" 
d="M694 1071q-108 0 -192 48t-129 132l86 66q74 -147 253 -147t314 147l66 -66q-174 -180 -398 -180zM776 1532q57 0 97 -33t40 -97t-57 -122h-88q72 61 72 125q0 29 -20 45t-48 16q-53 0 -88 -59l-59 31q53 94 151 94zM621 877q-165 1 -271 -139t-106 -326q0 -137 76 -218
t200 -81q88 0 170 48t131 120l99 436q-39 70 -118 115t-181 45zM600 1014q113 0 204 -48t140 -132l35 155h154l-220 -989h-153l31 141q-133 -166 -317 -166t-288 109t-104 299q0 255 144 443t374 188z" />
    <glyph glyph-name="uni1EB4" unicode="&#x1eb4;" horiz-adv-x="1347" 
d="M1034 1559q-80 0 -136 47t-107 47q-86 0 -125 -88h-95q55 137 234 137q80 0 136 -47t108 -47q82 0 127 88h94q-60 -137 -236 -137zM867 1456q181 0 313 90l65 -41q-174 -111 -398 -111t-321 111l86 41q74 -90 255 -90zM963 455l-129 735l-451 -735h580zM1219 0h-187
l-53 303h-682l-186 -303h-203l850 1366h211z" />
    <glyph glyph-name="uni1EB5" unicode="&#x1eb5;" horiz-adv-x="1177" 
d="M922 1391q-51 -1 -86 29t-51 65q-15 35 -43 65t-64 29q-86 0 -125 -176h-94q55 274 233 274q51 1 86 -29t50 -65t43 -65t65 -29q84 0 127 176h94q-59 -274 -235 -274zM714 1178q179 0 314 147l66 -65q-174 -180 -398 -181q-108 0 -192 48t-129 133l86 65
q74 -147 253 -147zM621 877q-165 1 -271 -139t-106 -326q0 -137 76 -218t200 -81q88 0 170 48t131 120l99 436q-39 70 -118 115t-181 45zM600 1014q113 0 204 -48t140 -132l35 155h154l-220 -989h-153l31 141q-133 -166 -317 -166t-288 109t-104 299q0 255 144 443t374 188z
" />
    <glyph glyph-name="uni1EB6" unicode="&#x1eb6;" horiz-adv-x="1347" 
d="M868 1444q-108 0 -192 48t-129 132l86 66q74 -148 253 -148t314 148l66 -66q-174 -180 -398 -180zM506 -184q42 0 66 -24t24 -65q0 -40 -33 -72t-73 -32t-64 25q-24 24 -25 64q0 40 32 72t73 32zM963 455l-129 735l-451 -735h580zM1219 0h-187l-53 303h-682l-186 -303
h-203l850 1366h211z" />
    <glyph glyph-name="uni1EB7" unicode="&#x1eb7;" horiz-adv-x="1177" 
d="M700 1102q-108 0 -192 48t-129 132l86 66q74 -148 253 -148t314 148l66 -66q-174 -180 -398 -180zM412 -184q42 0 66 -24t24 -65q0 -40 -33 -72t-73 -32t-64 25q-24 24 -25 64q0 40 32 72t73 32zM621 877q-165 1 -271 -139t-106 -326q0 -137 76 -218t200 -81q88 0 170 48
t131 120l99 436q-39 70 -118 115t-181 45zM600 1014q113 0 204 -48t140 -132l35 155h154l-220 -989h-153l31 141q-133 -166 -317 -166t-288 109t-104 299q0 255 144 443t374 188z" />
    <glyph glyph-name="uni1EB8" unicode="&#x1eb8;" horiz-adv-x="1165" 
d="M440 -184q40 0 66 -24q24 -24 24 -65q0 -40 -32 -72t-73 -32q-40 0 -65 25q-24 24 -24 64t32 72t72 32zM944 0h-895l301 1366h895l-33 -152h-725l-98 -440h711l-33 -151h-713l-104 -471h727z" />
    <glyph glyph-name="uni1EB9" unicode="&#x1eb9;" horiz-adv-x="1153" 
d="M418 -184q42 0 66 -24t24 -65q0 -40 -33 -72t-73 -32t-64 25q-24 24 -25 64q0 40 32 72t73 32zM926 596q0 127 -79 209t-217 82t-243 -97q-104 -98 -129 -233h664q4 16 4 39zM578 102q162 0 282 97l51 -107q-147 -117 -358 -117t-341 119t-130 320q0 248 162 424t395 176
q193 0 309 -121t117 -311q0 -61 -16 -138h-807l-2 -47q0 -123 88 -209t250 -86z" />
    <glyph glyph-name="uni1EBA" unicode="&#x1eba;" horiz-adv-x="1165" 
d="M846 1679q57 -1 97 -33t40 -96t-57 -123h-88q72 61 71 125q0 29 -20 45t-47 17q-53 -1 -88 -60l-60 31q53 94 152 94zM944 0h-895l301 1366h895l-33 -152h-725l-98 -440h711l-33 -151h-713l-104 -471h727z" />
    <glyph glyph-name="uni1EBB" unicode="&#x1ebb;" horiz-adv-x="1153" 
d="M748 1331q57 0 97 -33q40 -34 40 -98t-58 -121h-88q72 61 72 125q0 29 -20 45t-48 17q-53 -1 -88 -60l-59 31q53 94 152 94zM926 596q0 127 -79 209t-217 82t-243 -97q-104 -98 -129 -233h664q4 16 4 39zM578 102q162 0 282 97l51 -107q-147 -117 -358 -117t-341 119
t-130 320q0 248 162 424t395 176q193 0 309 -121t117 -311q0 -61 -16 -138h-807l-2 -47q0 -123 88 -209t250 -86z" />
    <glyph glyph-name="uni1EBC" unicode="&#x1ebc;" horiz-adv-x="1165" 
d="M969 1477q-51 -1 -86 29t-50 65t-43 65t-65 29q-86 0 -125 -176h-94q55 274 233 274q51 1 86 -29t51 -65t43 -65q28 -30 64 -29q82 0 127 176h94q-59 -274 -235 -274zM944 0h-895l301 1366h895l-33 -152h-725l-98 -440h711l-33 -151h-713l-104 -471h727z" />
    <glyph glyph-name="uni1EBD" unicode="&#x1ebd;" horiz-adv-x="1153" 
d="M868 1135q-51 -1 -86 29t-50 65t-43 65t-64 29q-86 0 -125 -176h-94q55 274 233 274q51 1 86 -29t50 -65t43 -65t65 -29q84 0 127 176h94q-60 -274 -236 -274zM926 596q0 127 -79 209t-217 82t-243 -97q-104 -98 -129 -233h664q4 16 4 39zM578 102q162 0 282 97l51 -107
q-147 -117 -358 -117t-341 119t-130 320q0 248 162 424t395 176q193 0 309 -121t117 -311q0 -61 -16 -138h-807l-2 -47q0 -123 88 -209t250 -86z" />
    <glyph glyph-name="uni1EBE" unicode="&#x1ebe;" horiz-adv-x="1165" 
d="M944 0h-895l301 1366h895l-33 -152h-725l-98 -440h711l-33 -151h-713l-104 -471h727zM1542 1729l-412 -222h-120l368 222h164zM1063 1397h-100l-123 162l-211 -162h-109l260 221h148z" />
    <glyph glyph-name="uni1EBF" unicode="&#x1ebf;" horiz-adv-x="1153" 
d="M926 596q0 127 -79 209t-217 82t-243 -97q-104 -98 -129 -233h664q4 16 4 39zM578 102q162 0 282 97l51 -107q-147 -117 -358 -117t-341 119t-130 320q0 248 162 424t395 176q193 0 309 -121t117 -311q0 -61 -16 -138h-807l-2 -47q0 -123 88 -209t250 -86zM1475 1577
l-412 -295h-121l369 295h164zM993 1139h-100l-123 217l-211 -217h-108l260 295h147z" />
    <glyph glyph-name="uni1EC0" unicode="&#x1ec0;" horiz-adv-x="1165" 
d="M629 1507h-117l-281 222h160zM944 0h-895l301 1366h895l-33 -152h-725l-98 -440h711l-33 -151h-713l-104 -471h727zM1063 1397h-100l-123 162l-211 -162h-109l260 221h148z" />
    <glyph glyph-name="uni1EC1" unicode="&#x1ec1;" horiz-adv-x="1153" 
d="M565 1282h-116l-281 295h160zM926 596q0 127 -79 209t-217 82t-243 -97q-104 -98 -129 -233h664q4 16 4 39zM578 102q162 0 282 97l51 -107q-147 -117 -358 -117t-341 119t-130 320q0 248 162 424t395 176q193 0 309 -121t117 -311q0 -61 -16 -138h-807l-2 -47
q0 -123 88 -209t250 -86zM997 1139h-100l-123 217l-211 -217h-108l260 295h147z" />
    <glyph glyph-name="uni1EC2" unicode="&#x1ec2;" horiz-adv-x="1165" 
d="M1024 1737q57 0 97 -24q40 -23 40 -71t-57 -94h-88q72 47 71 94q0 44 -80 46q-40 0 -75 -43l-60 22q53 70 152 70zM944 0h-895l301 1366h895l-33 -152h-725l-98 -440h711l-33 -151h-713l-104 -471h727zM1063 1397h-100l-123 162l-211 -162h-109l260 221h148z" />
    <glyph glyph-name="uni1EC3" unicode="&#x1ec3;" horiz-adv-x="1153" 
d="M940 1618q57 0 97 -33t40 -97t-57 -122h-88q72 61 72 125q0 29 -20 45t-48 16q-53 0 -88 -59l-60 31q53 94 152 94zM926 596q0 127 -79 209t-217 82t-243 -97q-104 -98 -129 -233h664q4 16 4 39zM578 102q162 0 282 97l51 -107q-147 -117 -358 -117t-341 119t-130 320
q0 248 162 424t395 176q193 0 309 -121t117 -311q0 -61 -16 -138h-807l-2 -47q0 -123 88 -209t250 -86zM995 1139h-100l-123 217l-211 -217h-108l260 295h147z" />
    <glyph glyph-name="uni1EC4" unicode="&#x1ec4;" horiz-adv-x="1165" 
d="M969 1550q-80 0 -136 47t-108 48q-86 0 -125 -89h-94q55 137 233 138q81 0 137 -47t107 -48q82 0 127 89h94q-59 -138 -235 -138zM944 0h-895l301 1366h895l-33 -152h-725l-98 -440h711l-33 -151h-713l-104 -471h727zM1071 1389h-100l-123 108l-211 -108h-109l260 147
h148z" />
    <glyph glyph-name="uni1EC5" unicode="&#x1ec5;" horiz-adv-x="1153" 
d="M928 1397q-51 -1 -86 29t-50 65t-43 65t-65 29q-86 0 -125 -176h-94q55 274 233 274q51 1 86 -29q34 -30 50 -65t44 -65t64 -29q82 0 127 176h94q-59 -274 -235 -274zM926 596q0 127 -79 209t-217 82t-243 -97q-104 -98 -129 -233h664q4 16 4 39zM578 102q162 0 282 97
l51 -107q-147 -117 -358 -117t-341 119t-130 320q0 248 162 424t395 176q193 0 309 -121t117 -311q0 -61 -16 -138h-807l-2 -47q0 -123 88 -209t250 -86zM983 1071h-100l-123 217l-211 -217h-109l260 295h148z" />
    <glyph glyph-name="uni1EC6" unicode="&#x1ec6;" horiz-adv-x="1165" 
d="M440 -184q40 0 66 -24q24 -24 24 -65q0 -40 -32 -72t-73 -32q-40 0 -65 25q-24 24 -24 64t32 72t72 32zM944 0h-895l301 1366h895l-33 -152h-725l-98 -440h711l-33 -151h-713l-104 -471h727zM1094 1481h-101l-123 217l-211 -217h-108l260 295h147z" />
    <glyph glyph-name="uni1EC7" unicode="&#x1ec7;" horiz-adv-x="1153" 
d="M418 -184q42 0 66 -24t24 -65q0 -40 -33 -72t-73 -32t-64 25q-24 24 -25 64q0 40 32 72t73 32zM926 596q0 127 -79 209t-217 82t-243 -97q-104 -98 -129 -233h664q4 16 4 39zM578 102q162 0 282 97l51 -107q-147 -117 -358 -117t-341 119t-130 320q0 248 162 424t395 176
q193 0 309 -121t117 -311q0 -61 -16 -138h-807l-2 -47q0 -123 88 -209t250 -86zM997 1139h-100l-123 217l-211 -217h-108l260 295h147z" />
    <glyph glyph-name="uni1EC8" unicode="&#x1ec8;" horiz-adv-x="489" 
d="M483 1679q57 0 98 -32q40 -33 40 -97t-58 -123h-88q72 61 72 125q-1 29 -21 45t-47 17q-53 -1 -88 -60l-59 31q53 94 151 94zM219 0h-170l301 1366h170z" />
    <glyph glyph-name="uni1EC9" unicode="&#x1ec9;" horiz-adv-x="460" 
d="M395 1331q57 0 97 -33q40 -34 40 -98t-57 -121h-88q72 61 72 125q-1 29 -21 45t-47 17q-53 -1 -88 -60l-59 31q53 94 151 94zM197 0h-154l219 989h154z" />
    <glyph glyph-name="uni1ECA" unicode="&#x1eca;" horiz-adv-x="489" 
d="M78 -184q42 0 66 -24t24 -65q0 -40 -33 -72t-73 -32t-64 25q-24 24 -25 64q0 40 32 72t73 32zM219 0h-170l301 1366h170z" />
    <glyph glyph-name="uni1ECB" unicode="&#x1ecb;" horiz-adv-x="460" 
d="M68 -184q42 0 66 -24t24 -65q0 -40 -33 -72t-73 -32t-64 25q-24 24 -25 64q0 40 32 72t73 32zM197 0h-154l219 989h154zM382 1130q-42 0 -69 26t-27 71t38 78t78 33t68 -28q28 -26 28 -70t-37 -77t-79 -33z" />
    <glyph glyph-name="uni1ECC" unicode="&#x1ecc;" horiz-adv-x="1566" 
d="M619 -184q41 0 65 -24t25 -65q0 -40 -33 -72t-73 -32q-41 0 -65 25q-24 24 -24 64t32 72t73 32zM764 127q236 0 406 188t171 467q0 211 -131 333t-329 122q-240 0 -409 -187t-169 -468q0 -213 131 -334t330 -121zM754 -25q-272 0 -452 161q-179 161 -179 437
q0 342 224 579t544 237q272 0 451 -161t180 -435q0 -344 -224 -581t-544 -237z" />
    <glyph glyph-name="uni1ECD" unicode="&#x1ecd;" 
d="M420 -184q42 0 66 -24t24 -65q0 -40 -33 -72t-73 -32t-64 25q-24 24 -25 64q0 40 32 72t73 32zM552 113q152 0 262 138q110 139 110 299t-78 244t-230 83t-262 -139q-111 -138 -110 -318q0 -141 78 -224t230 -83zM547 -25q-221 0 -343 120t-122 319q0 240 159 420
t380 180t343 -121t121 -320q-1 -240 -159 -419t-379 -179z" />
    <glyph glyph-name="uni1ECE" unicode="&#x1ece;" horiz-adv-x="1566" 
d="M1026 1679q57 -1 97 -33t40 -96t-57 -123h-88q72 61 72 125q0 29 -20 45t-48 17q-53 -1 -88 -60l-60 31q53 94 152 94zM764 127q236 0 406 188t171 467q0 211 -131 333t-329 122q-240 0 -409 -187t-169 -468q0 -213 131 -334t330 -121zM754 -25q-272 0 -452 161
q-179 161 -179 437q0 342 224 579t544 237q272 0 451 -161t180 -435q0 -344 -224 -581t-544 -237z" />
    <glyph glyph-name="uni1ECF" unicode="&#x1ecf;" 
d="M748 1331q57 0 97 -33q40 -34 40 -98t-58 -121h-88q72 61 72 125q0 29 -20 45t-48 17q-53 -1 -88 -60l-59 31q53 94 152 94zM552 113q152 0 262 138q110 139 110 299t-78 244t-230 83t-262 -139q-111 -138 -110 -318q0 -141 78 -224t230 -83zM547 -25q-221 0 -343 120
t-122 319q0 240 159 420t380 180t343 -121t121 -320q-1 -240 -159 -419t-379 -179z" />
    <glyph glyph-name="uni1ED0" unicode="&#x1ed0;" horiz-adv-x="1566" 
d="M764 127q236 0 406 188t171 467q0 211 -131 333t-329 122q-240 0 -409 -187t-169 -468q0 -213 131 -334t330 -121zM754 -25q-272 0 -452 161q-179 161 -179 437q0 342 224 579t544 237q272 0 451 -161t180 -435q0 -344 -224 -581t-544 -237zM1718 1729l-411 -222h-121
l368 222h164zM1241 1397h-100l-123 162l-211 -162h-109l260 221h148z" />
    <glyph glyph-name="uni1ED1" unicode="&#x1ed1;" 
d="M552 113q152 0 262 138q110 139 110 299t-78 244t-230 83t-262 -139q-111 -138 -110 -318q0 -141 78 -224t230 -83zM547 -25q-221 0 -343 120t-122 319q0 240 159 420t380 180t343 -121t121 -320q-1 -240 -159 -419t-379 -179zM1479 1577l-412 -295h-121l369 295h164z
M997 1139h-100l-123 217l-211 -217h-108l260 295h147z" />
    <glyph glyph-name="uni1ED2" unicode="&#x1ed2;" horiz-adv-x="1566" 
d="M805 1507h-117l-280 222h159zM764 127q236 0 406 188t171 467q0 211 -131 333t-329 122q-240 0 -409 -187t-169 -468q0 -213 131 -334t330 -121zM754 -25q-272 0 -452 161q-179 161 -179 437q0 342 224 579t544 237q272 0 451 -161t180 -435q0 -344 -224 -581t-544 -237z
M1239 1397h-100l-123 162l-211 -162h-109l260 221h148z" />
    <glyph glyph-name="uni1ED3" unicode="&#x1ed3;" 
d="M567 1282h-116l-281 295h160zM552 113q152 0 262 138q110 139 110 299t-78 244t-230 83t-262 -139q-111 -138 -110 -318q0 -141 78 -224t230 -83zM547 -25q-221 0 -343 120t-122 319q0 240 159 420t380 180t343 -121t121 -320q-1 -240 -159 -419t-379 -179zM999 1139
h-100l-123 217l-211 -217h-108l260 295h147z" />
    <glyph glyph-name="uni1ED4" unicode="&#x1ed4;" horiz-adv-x="1566" 
d="M1200 1737q57 0 97 -24q40 -23 40 -71t-57 -94h-88q72 47 72 94q0 44 -81 46q-40 0 -75 -43l-59 22q53 70 151 70zM764 127q236 0 406 188t171 467q0 211 -131 333t-329 122q-240 0 -409 -187t-169 -468q0 -213 131 -334t330 -121zM754 -25q-272 0 -452 161
q-179 161 -179 437q0 342 224 579t544 237q272 0 451 -161t180 -435q0 -344 -224 -581t-544 -237zM1241 1397h-100l-123 162l-211 -162h-109l260 221h148z" />
    <glyph glyph-name="uni1ED5" unicode="&#x1ed5;" 
d="M942 1618q57 0 97 -33t40 -97t-57 -122h-88q72 61 72 125q0 29 -20 45t-48 16q-53 0 -88 -59l-59 31q53 94 151 94zM552 113q152 0 262 138q110 139 110 299t-78 244t-230 83t-262 -139q-111 -138 -110 -318q0 -141 78 -224t230 -83zM547 -25q-221 0 -343 120t-122 319
q0 240 159 420t380 180t343 -121t121 -320q-1 -240 -159 -419t-379 -179zM997 1139h-100l-123 217l-211 -217h-108l260 295h147z" />
    <glyph glyph-name="uni1ED6" unicode="&#x1ed6;" horiz-adv-x="1566" 
d="M1145 1550q-80 0 -136 47t-108 48q-86 0 -125 -89h-94q55 137 233 138q81 0 137 -47t107 -48q82 0 127 89h94q-59 -138 -235 -138zM764 127q236 0 406 188t171 467q0 211 -131 333t-329 122q-240 0 -409 -187t-169 -468q0 -213 131 -334t330 -121zM754 -25
q-272 0 -452 161q-179 161 -179 437q0 342 224 579t544 237q272 0 451 -161t180 -435q0 -344 -224 -581t-544 -237zM1231 1389h-101l-122 108l-211 -108h-109l260 147h148z" />
    <glyph glyph-name="uni1ED7" unicode="&#x1ed7;" 
d="M932 1397q-51 -1 -86 29t-50 65t-43 65t-65 29q-86 0 -125 -176h-94q55 274 233 274q51 1 86 -29q34 -30 50 -65t44 -65t64 -29q82 0 127 176h94q-59 -274 -235 -274zM552 113q152 0 262 138q110 139 110 299t-78 244t-230 83t-262 -139q-111 -138 -110 -318
q0 -141 78 -224t230 -83zM547 -25q-221 0 -343 120t-122 319q0 240 159 420t380 180t343 -121t121 -320q-1 -240 -159 -419t-379 -179zM983 1071h-100l-123 217l-211 -217h-109l260 295h148z" />
    <glyph glyph-name="uni1ED8" unicode="&#x1ed8;" horiz-adv-x="1566" 
d="M619 -184q41 0 65 -24t25 -65q0 -40 -33 -72t-73 -32q-41 0 -65 25q-24 24 -24 64t32 72t73 32zM764 127q236 0 406 188t171 467q0 211 -131 333t-329 122q-240 0 -409 -187t-169 -468q0 -213 131 -334t330 -121zM754 -25q-272 0 -452 161q-179 161 -179 437
q0 342 224 579t544 237q272 0 451 -161t180 -435q0 -344 -224 -581t-544 -237zM1270 1481h-101l-122 217l-211 -217h-109l260 295h148z" />
    <glyph glyph-name="uni1ED9" unicode="&#x1ed9;" 
d="M420 -184q42 0 66 -24t24 -65q0 -40 -33 -72t-73 -32t-64 25q-24 24 -25 64q0 40 32 72t73 32zM552 113q152 0 262 138q110 139 110 299t-78 244t-230 83t-262 -139q-111 -138 -110 -318q0 -141 78 -224t230 -83zM547 -25q-221 0 -343 120t-122 319q0 240 159 420
t380 180t343 -121t121 -320q-1 -240 -159 -419t-379 -179zM995 1139h-100l-123 217l-211 -217h-108l260 295h147z" />
    <glyph glyph-name="uni1EDA" unicode="&#x1eda;" horiz-adv-x="1566" 
d="M764 127q236 0 406 188t171 467q0 211 -131 333t-329 122q-240 0 -409 -187t-169 -468q0 -213 131 -334t330 -121zM754 -25q-272 0 -452 161q-179 161 -179 437q0 342 224 579t548 237t502 -220q102 59 133 148h-14q-29 0 -50 21q-20 22 -20 57t30 65t68 29q38 0 62 -27
q25 -27 24 -71q0 -78 -56 -157t-136 -124q84 -139 84 -317q0 -344 -224 -581t-544 -237zM1411 1776l-412 -295h-120l368 295h164z" />
    <glyph glyph-name="uni1EDB" unicode="&#x1edb;" 
d="M552 113q152 0 262 138q110 139 110 299t-78 244t-230 83t-262 -139q-111 -138 -110 -318q0 -141 78 -224t230 -83zM1178 1104q0 -60 -50 -134t-127 -122q84 -113 84 -275q-1 -241 -159 -419t-379 -178t-343 119q-122 120 -122 319q0 240 159 420t392 180q197 0 319 -111
q96 59 123 139h-12q-29 0 -49 20t-20 58q0 37 28 66q29 29 68 28q88 0 88 -110zM1137 1434l-412 -295h-121l369 295h164z" />
    <glyph glyph-name="uni1EDC" unicode="&#x1edc;" horiz-adv-x="1566" 
d="M1118 1481h-117l-280 295h160zM764 127q236 0 406 188t171 467q0 211 -131 333t-329 122q-240 0 -409 -187t-169 -468q0 -213 131 -334t330 -121zM754 -25q-272 0 -452 161q-179 161 -179 437q0 342 224 579t548 237t502 -220q102 59 133 148h-14q-29 0 -50 21
q-20 22 -20 57t30 65t68 29q38 0 62 -27q25 -27 24 -71q0 -78 -56 -157t-136 -124q84 -139 84 -317q0 -344 -224 -581t-544 -237z" />
    <glyph glyph-name="uni1EDD" unicode="&#x1edd;" 
d="M846 1139h-117l-280 295h159zM552 113q152 0 262 138q110 139 110 299t-78 244t-230 83t-262 -139q-111 -138 -110 -318q0 -141 78 -224t230 -83zM1178 1104q0 -60 -50 -134t-127 -122q84 -113 84 -275q-1 -241 -159 -419t-379 -178t-343 119q-122 120 -122 319
q0 240 159 420t392 180q197 0 319 -111q96 59 123 139h-12q-29 0 -49 20t-20 58q0 37 28 66q29 29 68 28q88 0 88 -110z" />
    <glyph glyph-name="uni1EDE" unicode="&#x1ede;" horiz-adv-x="1566" 
d="M1024 1679q57 -1 97 -33t40 -96t-57 -123h-88q72 61 71 125q0 29 -20 45t-47 17q-53 -1 -88 -60l-60 31q53 94 152 94zM764 127q236 0 406 188t171 467q0 211 -131 333t-329 122q-240 0 -409 -187t-169 -468q0 -213 131 -334t330 -121zM754 -25q-272 0 -452 161
q-179 161 -179 437q0 342 224 579t548 237t502 -220q102 59 133 148h-14q-29 0 -50 21q-20 22 -20 57t30 65t68 29q38 0 62 -27q25 -27 24 -71q0 -78 -56 -157t-136 -124q84 -139 84 -317q0 -344 -224 -581t-544 -237z" />
    <glyph glyph-name="uni1EDF" unicode="&#x1edf;" 
d="M750 1331q57 0 97 -33q40 -34 40 -98t-58 -121h-88q72 61 72 125q0 29 -20 45t-48 17q-53 -1 -88 -60l-59 31q53 94 152 94zM552 113q152 0 262 138q110 139 110 299t-78 244t-230 83t-262 -139q-111 -138 -110 -318q0 -141 78 -224t230 -83zM1178 1104q0 -60 -50 -134
t-127 -122q84 -113 84 -275q-1 -241 -159 -419t-379 -178t-343 119q-122 120 -122 319q0 240 159 420t392 180q197 0 319 -111q96 59 123 139h-12q-29 0 -49 20t-20 58q0 37 28 66q29 29 68 28q88 0 88 -110z" />
    <glyph glyph-name="uni1EE0" unicode="&#x1ee0;" horiz-adv-x="1566" 
d="M1147 1477q-51 -1 -86 29t-50 65t-43 65t-65 29q-86 0 -125 -176h-94q55 274 234 274q51 1 86 -29t50 -65t43 -65t64 -29q84 0 127 176h94q-59 -274 -235 -274zM764 127q236 0 406 188t171 467q0 211 -131 333t-329 122q-240 0 -409 -187t-169 -468q0 -213 131 -334
t330 -121zM754 -25q-272 0 -452 161q-179 161 -179 437q0 342 224 579t548 237t502 -220q102 59 133 148h-14q-29 0 -50 21q-20 22 -20 57t30 65t68 29q38 0 62 -27q25 -27 24 -71q0 -78 -56 -157t-136 -124q84 -139 84 -317q0 -344 -224 -581t-544 -237z" />
    <glyph glyph-name="uni1EE1" unicode="&#x1ee1;" 
d="M840 1135q-51 -1 -86 29t-51 65q-15 35 -43 65t-64 29q-86 0 -125 -176h-94q55 274 233 274q51 1 86 -29t50 -65q16 -35 44 -65t64 -29q84 0 127 176h94q-59 -274 -235 -274zM552 113q152 0 262 138q110 139 110 299t-78 244t-230 83t-262 -139q-111 -138 -110 -318
q0 -141 78 -224t230 -83zM1178 1104q0 -60 -50 -134t-127 -122q84 -113 84 -275q-1 -241 -159 -419t-379 -178t-343 119q-122 120 -122 319q0 240 159 420t392 180q197 0 319 -111q96 59 123 139h-12q-29 0 -49 20t-20 58q0 37 28 66q29 29 68 28q88 0 88 -110z" />
    <glyph glyph-name="uni1EE2" unicode="&#x1ee2;" horiz-adv-x="1566" 
d="M619 -184q41 0 65 -24t25 -65q0 -40 -33 -72t-73 -32q-41 0 -65 25q-24 24 -24 64t32 72t73 32zM764 127q236 0 406 188t171 467q0 211 -131 333t-329 122q-240 0 -409 -187t-169 -468q0 -213 131 -334t330 -121zM754 -25q-272 0 -452 161q-179 161 -179 437
q0 342 224 579t548 237t502 -220q102 59 133 148h-14q-29 0 -50 21q-20 22 -20 57t30 65t68 29q38 0 62 -27q25 -27 24 -71q0 -78 -56 -157t-136 -124q84 -139 84 -317q0 -344 -224 -581t-544 -237z" />
    <glyph glyph-name="uni1EE3" unicode="&#x1ee3;" 
d="M420 -184q42 0 66 -24t24 -65q0 -40 -33 -72t-73 -32t-64 25q-24 24 -25 64q0 40 32 72t73 32zM552 113q152 0 262 138q110 139 110 299t-78 244t-230 83t-262 -139q-111 -138 -110 -318q0 -141 78 -224t230 -83zM1178 1104q0 -60 -50 -134t-127 -122q84 -113 84 -275
q-1 -241 -159 -419t-379 -178t-343 119q-122 120 -122 319q0 240 159 420t392 180q197 0 319 -111q96 59 123 139h-12q-29 0 -49 20t-20 58q0 37 28 66q29 29 68 28q88 0 88 -110z" />
    <glyph glyph-name="uni1EE4" unicode="&#x1ee4;" horiz-adv-x="1433" 
d="M551 -184q41 0 65 -24t25 -65q0 -40 -33 -72t-73 -32q-41 0 -65 25q-24 24 -24 64t32 72t73 32zM691 -25q-255 0 -395 123t-140 332q0 39 10 100l184 836h170l-182 -831q-10 -41 -10 -86q0 -143 95 -233t270 -89q175 0 275 103q99 103 142 305l184 831h170l-182 -834
q-60 -272 -198 -414t-393 -143z" />
    <glyph glyph-name="uni1EE5" unicode="&#x1ee5;" horiz-adv-x="1128" 
d="M398 -184q40 0 64 -24t25 -65q-1 -40 -33 -72t-72 -32t-65 25q-25 24 -25 64t33 72t73 32zM262 272q0 -160 205 -159q150 0 305 155l158 721h153l-219 -989h-153l32 143q-176 -168 -348 -168q-135 0 -215 65t-80 181q0 31 11 82l151 686h154l-144 -647q-10 -51 -10 -70z
" />
    <glyph glyph-name="uni1EE6" unicode="&#x1ee6;" horiz-adv-x="1433" 
d="M956 1679q57 0 98 -32q40 -33 40 -97t-58 -123h-88q72 61 72 125q0 29 -20 45t-48 17q-53 -1 -88 -60l-59 31q53 94 151 94zM691 -25q-255 0 -395 123t-140 332q0 39 10 100l184 836h170l-182 -831q-10 -41 -10 -86q0 -143 95 -233t270 -89q175 0 275 103q99 103 142 305
l184 831h170l-182 -834q-60 -272 -198 -414t-393 -143z" />
    <glyph glyph-name="uni1EE7" unicode="&#x1ee7;" horiz-adv-x="1128" 
d="M729 1331q57 0 97 -33q40 -34 40 -98t-57 -121h-88q72 61 72 125q-1 29 -21 45t-47 17q-53 -1 -88 -60l-59 31q53 94 151 94zM262 272q0 -160 205 -159q150 0 305 155l158 721h153l-219 -989h-153l32 143q-176 -168 -348 -168q-135 0 -215 65t-80 181q0 31 11 82l151 686
h154l-144 -647q-10 -51 -10 -70z" />
    <glyph glyph-name="uni1EE8" unicode="&#x1ee8;" horiz-adv-x="1433" 
d="M1726 1524q0 -102 -85 -194t-216 -140l-143 -658q-60 -272 -198 -414t-393 -142t-395 122q-140 123 -140 332q0 49 10 100l184 836h170l-182 -831q-10 -41 -10 -86q0 -143 95 -233t270 -89q175 0 275 103q99 103 142 305l184 831h170l-20 -90q152 72 180 172h-12
q-29 0 -49 20q-21 20 -21 58t29 66t67 28t64 -26q24 -26 24 -70zM1346 1776l-412 -295h-121l369 295h164z" />
    <glyph glyph-name="uni1EE9" unicode="&#x1ee9;" horiz-adv-x="1128" 
d="M1313 1128q0 -94 -75 -179t-196 -140l-178 -809h-153l32 141q-174 -166 -348 -166q-135 -1 -216 63t-81 181q0 39 13 84l151 686h154l-146 -649q-8 -37 -8 -68q0 -160 205 -159q156 0 303 155l160 721h153l-20 -92q123 70 147 158h-12q-28 -1 -50 21t-22 56t30 64
q30 29 69 29t63 -26t25 -71zM1116 1434l-411 -295h-121l368 295h164z" />
    <glyph glyph-name="uni1EEA" unicode="&#x1eea;" horiz-adv-x="1433" 
d="M1726 1524q0 -102 -85 -194t-216 -140l-143 -658q-60 -272 -198 -414t-393 -142t-395 122q-140 123 -140 332q0 49 10 100l184 836h170l-182 -831q-10 -41 -10 -86q0 -143 95 -233t270 -89q175 0 275 103q99 103 142 305l184 831h170l-20 -90q152 72 180 172h-12
q-29 0 -49 20q-21 20 -21 58t29 66t67 28t64 -26q24 -26 24 -70zM1051 1481h-117l-281 295h160z" />
    <glyph glyph-name="uni1EEB" unicode="&#x1eeb;" horiz-adv-x="1128" 
d="M1313 1128q0 -94 -75 -179t-196 -140l-178 -809h-153l32 141q-174 -166 -348 -166q-135 -1 -216 63t-81 181q0 39 13 84l151 686h154l-146 -649q-8 -37 -8 -68q0 -160 205 -159q156 0 303 155l160 721h153l-20 -92q123 70 147 158h-12q-28 -1 -50 21t-22 56t30 64
q30 29 69 29t63 -26t25 -71zM823 1139h-116l-281 295h160z" />
    <glyph glyph-name="uni1EEC" unicode="&#x1eec;" horiz-adv-x="1433" 
d="M1726 1524q0 -102 -85 -194t-216 -140l-143 -658q-60 -272 -198 -414t-393 -142t-395 122q-140 123 -140 332q0 49 10 100l184 836h170l-182 -831q-10 -41 -10 -86q0 -143 95 -233t270 -89q175 0 275 103q99 103 142 305l184 831h170l-20 -90q152 72 180 172h-12
q-29 0 -49 20q-21 20 -21 58t29 66t67 28t64 -26q24 -26 24 -70zM956 1679q57 0 98 -32q40 -33 40 -97t-58 -123h-88q72 61 72 125q0 29 -20 45t-48 17q-53 -1 -88 -60l-59 31q53 94 151 94z" />
    <glyph glyph-name="uni1EED" unicode="&#x1eed;" horiz-adv-x="1128" 
d="M1313 1128q0 -94 -75 -179t-196 -140l-178 -809h-153l32 141q-174 -166 -348 -166q-135 -1 -216 63t-81 181q0 39 13 84l151 686h154l-146 -649q-8 -37 -8 -68q0 -160 205 -159q156 0 303 155l160 721h153l-20 -92q123 70 147 158h-12q-28 -1 -50 21t-22 56t30 64
q30 29 69 29t63 -26t25 -71zM729 1331q57 0 97 -33q40 -34 40 -98t-57 -121h-88q72 61 72 125q-1 29 -21 45t-47 17q-53 -1 -88 -60l-59 31q53 94 151 94z" />
    <glyph glyph-name="uni1EEE" unicode="&#x1eee;" horiz-adv-x="1433" 
d="M1079 1477q-51 -1 -86 29t-50 65t-43 65t-64 29q-86 0 -125 -176h-95q55 274 234 274q51 1 86 -29t50 -65t43 -65t65 -29q82 0 127 176h94q-60 -274 -236 -274zM1726 1524q0 -102 -85 -194t-216 -140l-143 -658q-60 -272 -198 -414t-393 -142t-395 122q-140 123 -140 332
q0 49 10 100l184 836h170l-182 -831q-10 -41 -10 -86q0 -143 95 -233t270 -89q175 0 275 103q99 103 142 305l184 831h170l-20 -90q152 72 180 172h-12q-29 0 -49 20q-21 20 -21 58t29 66t67 28t64 -26q24 -26 24 -70z" />
    <glyph glyph-name="uni1EEF" unicode="&#x1eef;" horiz-adv-x="1128" 
d="M850 1135q-51 -1 -86 29t-50 65t-43 65t-65 29q-86 0 -125 -176h-94q55 274 234 274q51 1 86 -29t50 -65t43 -65t64 -29q82 0 127 176h94q-59 -274 -235 -274zM1313 1128q0 -94 -75 -179t-196 -140l-178 -809h-153l32 141q-174 -166 -348 -166q-135 -1 -216 63t-81 181
q0 39 13 84l151 686h154l-146 -649q-8 -37 -8 -68q0 -160 205 -159q156 0 303 155l160 721h153l-20 -92q123 70 147 158h-12q-28 -1 -50 21t-22 56t30 64q30 29 69 29t63 -26t25 -71z" />
    <glyph glyph-name="uni1EF0" unicode="&#x1ef0;" horiz-adv-x="1433" 
d="M1726 1524q0 -102 -85 -194t-216 -140l-143 -658q-60 -272 -198 -414t-393 -142t-395 122q-140 123 -140 332q0 49 10 100l184 836h170l-182 -831q-10 -41 -10 -86q0 -143 95 -233t270 -89q175 0 275 103q99 103 142 305l184 831h170l-20 -90q152 72 180 172h-12
q-29 0 -49 20q-21 20 -21 58t29 66t67 28t64 -26q24 -26 24 -70zM551 -184q41 0 65 -24t25 -65q0 -40 -33 -72t-73 -32q-41 0 -65 25q-24 24 -24 64t32 72t73 32z" />
    <glyph glyph-name="uni1EF1" unicode="&#x1ef1;" horiz-adv-x="1128" 
d="M1313 1128q0 -94 -75 -179t-196 -140l-178 -809h-153l32 141q-174 -166 -348 -166q-135 -1 -216 63t-81 181q0 39 13 84l151 686h154l-146 -649q-8 -37 -8 -68q0 -160 205 -159q156 0 303 155l160 721h153l-20 -92q123 70 147 158h-12q-28 -1 -50 21t-22 56t30 64
q30 29 69 29t63 -26t25 -71zM398 -184q40 0 64 -24t25 -65q-1 -40 -33 -72t-72 -32t-65 25q-25 24 -25 64t33 72t73 32z" />
    <glyph glyph-name="Ygrave" unicode="&#x1ef2;" horiz-adv-x="1282" 
d="M975 1481h-117l-280 295h159zM616 0h-170l127 578l-364 788h186l285 -635l563 635h211l-711 -788z" />
    <glyph glyph-name="ygrave" unicode="&#x1ef3;" horiz-adv-x="1003" 
d="M756 1139h-117l-281 295h160zM55 -258q82 0 148 98l100 154l-188 995h161l148 -811l510 811h172l-762 -1190q-129 -201 -309 -200q-74 -1 -129 22l53 137q37 -16 96 -16z" />
    <glyph glyph-name="thinspace" unicode="&#x2009;" horiz-adv-x="104" 
 />
    <glyph glyph-name="endash" unicode="&#x2013;" horiz-adv-x="1214" 
d="M1137 428h-1092l29 135h1091z" />
    <glyph glyph-name="emdash" unicode="&#x2014;" horiz-adv-x="1705" 
d="M1628 428h-1583l29 135h1583z" />
    <glyph glyph-name="afii00208" unicode="&#x2015;" horiz-adv-x="1214" 
d="M1137 428h-1092l29 135h1091z" />
    <glyph glyph-name="quoteleft" unicode="&#x2018;" horiz-adv-x="471" 
d="M221 1055q0 94 70 188t168 143l63 -67q-137 -70 -172 -172q2 2 28 2t52 -26q26 -27 25 -71q0 -44 -38 -80t-85 -36t-79 31t-32 88z" />
    <glyph glyph-name="quoteright" unicode="&#x2019;" horiz-adv-x="471" 
d="M524 1268q0 -94 -69 -189q-70 -94 -168 -145l-62 67q137 70 172 173h-16q-37 0 -63 26t-26 70q0 45 38 81q37 35 85 35t79 -31q30 -32 30 -87z" />
    <glyph glyph-name="quotesinglbase" unicode="&#x201a;" horiz-adv-x="471" 
d="M153 205q49 0 79 -32q30 -33 30 -107t-68 -168t-167 -146l-64 68q137 70 172 172h-16q-37 0 -63 24t-26 70q0 45 38 82q37 37 85 37z" />
    <glyph glyph-name="quotereversed" unicode="&#x201b;" horiz-adv-x="471" 
d="M289 1174q0 104 46 158t99 54t82 -28t29 -75q0 -46 -35 -78t-82 -31q-14 0 -47 8q-7 -48 19 -108t69 -101l-74 -49q-106 105 -106 250z" />
    <glyph glyph-name="quotedblleft" unicode="&#x201c;" horiz-adv-x="798" 
d="M238 1055q0 94 70 188t167 143l62 -67q-137 -70 -172 -172q1 2 27 2t52 -26q26 -27 25 -71q0 -44 -37 -80t-85 -36t-79 31q-30 31 -30 88zM563 1055q0 94 70 188t168 143l61 -67q-133 -68 -172 -172q4 2 29 2t51 -26q26 -27 25 -71q0 -44 -37 -80t-85 -36t-79 31t-31 88z
" />
    <glyph glyph-name="quotedblright" unicode="&#x201d;" horiz-adv-x="798" 
d="M852 1268q0 -94 -70 -188t-168 -146l-61 67q133 68 172 173h-18q-35 0 -61 26t-26 70q0 45 37 81q37 35 85 35t79 -32t31 -86zM524 1268q0 -94 -69 -189q-70 -94 -168 -145l-62 67q137 70 172 173h-16q-37 0 -63 26t-26 70q0 45 38 81q37 35 85 35t79 -31q30 -32 30 -87z
" />
    <glyph glyph-name="quotedblbase" unicode="&#x201e;" horiz-adv-x="798" 
d="M590 84q0 -92 -70 -186t-168 -146l-63 68q59 29 107 76t65 96h-17q-38 0 -62 24t-24 70q0 45 37 82t84 37t79 -32t32 -89zM153 205q49 0 79 -32q30 -33 30 -107t-68 -168t-167 -146l-64 68q137 70 172 172h-16q-37 0 -63 24t-26 70q0 45 38 82q37 37 85 37z" />
    <glyph glyph-name="dagger" unicode="&#x2020;" horiz-adv-x="538" 
d="M623 1087l-181 9l-88 -426h-98l104 426l-184 -9l19 89l180 -7l41 217h98l-57 -217l184 7z" />
    <glyph glyph-name="daggerdbl" unicode="&#x2021;" horiz-adv-x="538" 
d="M641 1176l-18 -89l-181 9l-98 -437l184 9l-18 -88l-180 6l-43 -217h-99l58 217l-183 -6l19 88l180 -9l96 437l-182 -9l19 89l180 -7l41 217h98l-57 -217z" />
    <glyph glyph-name="bullet" unicode="&#x2022;" horiz-adv-x="733" 
d="M384 717q90 1 148 -57t58 -149t-75 -163t-166 -72t-148 58t-57 148q0 91 74 163q75 72 166 72z" />
    <glyph glyph-name="ellipsis" unicode="&#x2026;" horiz-adv-x="1415" 
d="M1094 205q46 0 76 -31t30 -78q0 -48 -36 -82t-83 -34t-77 30t-29 76q0 47 36 83t83 36zM623 205q47 0 77 -31t29 -78q0 -48 -36 -82t-83 -34q-46 0 -76 30t-30 76q0 47 36 83t83 36zM152 205q46 0 76 -31t30 -77q0 -45 -37 -81t-84 -36t-77 30t-30 76q0 47 38 83
q37 36 84 36z" />
    <glyph glyph-name="perthousand" unicode="&#x2030;" horiz-adv-x="2217" 
d="M1764 78q89 0 161 82t72 202q0 78 -52 130q-53 52 -143 53q-90 0 -161 -81t-70 -202q0 -78 52 -131t141 -53zM1764 -25q-138 0 -227 77t-89 200q0 174 108 286q109 112 247 112q137 0 227 -78q90 -77 90 -199q0 -174 -109 -286t-247 -112zM494 815q89 0 161 82t72 203
q0 78 -53 130t-142 52t-160 -81t-71 -202q0 -78 52 -131t141 -53zM848 1110q0 -174 -108 -286t-246 -111q-140 0 -228 77t-88 199q0 174 108 286q108 111 247 111t227 -76t88 -200zM1043 78q89 0 161 82t72 202q0 78 -53 130t-143 53q-90 0 -160 -81t-70 -202q0 -78 52 -131
t141 -53zM1043 -25q-138 0 -227 77t-89 200q0 174 109 286t247 112t227 -78q89 -77 89 -199q0 -174 -109 -286t-247 -112zM262 0h-110l1173 1366h113z" />
    <glyph glyph-name="guilsinglleft" unicode="&#x2039;" horiz-adv-x="604" 
d="M451 129h-146l-246 369l410 362h162l-418 -373z" />
    <glyph glyph-name="guilsinglright" unicode="&#x203a;" horiz-adv-x="604" 
d="M158 860h145l246 -368l-410 -363h-162l418 373z" />
    <glyph glyph-name="uni203E" unicode="&#x203e;" horiz-adv-x="743" 
d="M891 1171h-741l20 99h741z" />
    <glyph glyph-name="fraction" unicode="&#x2044;" horiz-adv-x="282" 
d="M825 1366l-1175 -1366h-113l1174 1366h114z" />
    <glyph glyph-name="zerosuperior" unicode="&#x2070;" horiz-adv-x="794" 
d="M766 1378q0 215 -168 215q-94 0 -159 -80q-111 -137 -110 -351t169 -214q72 0 126 45q92 77 128 254q14 70 14 131zM494 848q-139 0 -214 88t-75 241t87 321q44 85 125 140q81 56 203 56t196 -88q75 -88 75 -240q0 -151 -87 -323q-44 -85 -125 -140t-185 -55z" />
    <glyph glyph-name="foursuperior" unicode="&#x2074;" horiz-adv-x="794" 
d="M608 1167l88 398l-364 -398h276zM827 1067h-118l-45 -205h-121l45 205h-402l19 90l469 524h170l-113 -514h117z" />
    <glyph glyph-name="fivesuperior" unicode="&#x2075;" horiz-adv-x="794" 
d="M827 1159q0 -133 -92 -222q-93 -89 -217 -89q-245 0 -332 147l88 74q72 -121 224 -121q90 0 147 54t57 130t-51 116q-51 38 -140 38t-171 -76l-82 33l98 438h535l-25 -100h-409l-58 -266q77 65 179 65t176 -61q73 -62 73 -160z" />
    <glyph glyph-name="sixsuperior" unicode="&#x2076;" horiz-adv-x="794" 
d="M519 948q87 0 141 58t53 130q0 74 -50 112q-51 38 -141 38t-188 -115q-4 -10 -4 -43q0 -82 51 -131t138 -49zM838 1147q0 -117 -87 -208t-235 -91t-226 82q-79 82 -79 219q0 221 121 383t297 162t264 -101l-76 -84q-59 84 -187 84q-128 1 -208 -119t-80 -206v-8
q111 124 230 124q118 0 192 -60t74 -177z" />
    <glyph glyph-name="sevensuperior" unicode="&#x2077;" horiz-adv-x="741" 
d="M885 1595l-502 -733h-139l497 719h-456l24 100h594z" />
    <glyph glyph-name="eightsuperior" unicode="&#x2078;" horiz-adv-x="794" 
d="M698 1081q0 55 -45 97t-112 61q-101 -8 -165 -52q-64 -43 -64 -105t56 -100q58 -38 136 -38t136 41t58 96zM770 1464q0 66 -51 98q-51 34 -128 34t-129 -38t-52 -96t52 -94q52 -35 99 -45q81 7 145 41t64 100zM819 1077q0 -100 -86 -165q-86 -64 -223 -64t-230 57
q-94 57 -94 151t73 161q73 66 185 77q-154 54 -154 168t89 172q88 58 208 60q120 0 214 -54t94 -143q0 -90 -60 -150t-180 -75q70 -27 117 -77t47 -118z" />
    <glyph glyph-name="ninesuperior" unicode="&#x2079;" horiz-adv-x="794" 
d="M581 1595q-87 0 -141 -58t-55 -131q0 -73 50 -111t143 -38t186 113q4 10 4 45q0 82 -50 131t-137 49zM528 1159q-122 0 -194 59q-74 59 -74 176q0 118 87 210t235 92t226 -82q79 -82 79 -219q0 -223 -120 -384t-299 -161t-261 100l74 84q57 -84 190 -84q88 0 158 67
q71 67 99 139t28 120v8q-106 -125 -228 -125z" />
    <glyph glyph-name="parenleftsuperior" unicode="&#x207d;" horiz-adv-x="329" 
d="M201 1092q0 397 325 723l66 -33q-272 -367 -273 -735q1 -160 48 -285l-80 -33q-86 152 -86 363z" />
    <glyph glyph-name="parenrightsuperior" unicode="&#x207e;" horiz-adv-x="329" 
d="M494 1452q0 -401 -326 -723l-66 33q272 367 273 735q0 160 -47 285l80 33q86 -154 86 -363z" />
    <glyph glyph-name="nsuperior" unicode="&#x207f;" horiz-adv-x="815" 
d="M698 1136q0 34 -34 64q-35 29 -93 29q-94 0 -200 -103l-101 -458h-118l141 643h119l-19 -92q104 109 230 108q94 0 148 -45t54 -123q0 -18 -8 -59l-96 -432h-117l90 409q4 25 4 59z" />
    <glyph glyph-name="zeroinferior" unicode="&#x2080;" horiz-adv-x="794" 
d="M528 217q0 215 -168 215q-94 0 -158 -80q-110 -136 -110 -350q0 -215 168 -215q72 0 126 45q92 77 128 254q14 70 14 131zM256 -313q-139 0 -214 88t-75 239t87 323q44 85 125 140t203 55t196 -88t75 -241q0 -153 -87 -321q-44 -85 -125 -140t-185 -55z" />
    <glyph glyph-name="oneinferior" unicode="&#x2081;" horiz-adv-x="481" 
d="M182 -299h-123l142 651l-160 -135l-59 78l272 225h108z" />
    <glyph glyph-name="twoinferior" unicode="&#x2082;" horiz-adv-x="794" 
d="M526 301q0 63 -51 97t-123 34q-139 0 -229 -96l-57 82q111 115 290 114q121 0 208 -56t87 -173t-130 -231t-388 -271h412l-23 -100h-596l23 100q317 189 447 293t130 207z" />
    <glyph glyph-name="threeinferior" unicode="&#x2083;" horiz-adv-x="794" 
d="M578 -79q0 -83 -83 -159t-219 -75q-240 0 -327 149l82 70q82 -119 241 -119q84 0 132 46q48 47 48 109t-54 96q-56 34 -126 34t-84 -2l23 102q57 -4 134 -4t127 37t50 98t-55 95t-133 34q-119 0 -221 -88l-47 80q119 108 264 108t231 -54t86 -149t-63 -153t-164 -65
q66 -11 112 -59t46 -131z" />
    <glyph glyph-name="fourinferior" unicode="&#x2084;" horiz-adv-x="794" 
d="M371 6l88 397l-365 -397h277zM590 -94h-119l-45 -205h-121l45 205h-401l18 90l469 524h170l-112 -514h116z" />
    <glyph glyph-name="fiveinferior" unicode="&#x2085;" horiz-adv-x="794" 
d="M590 -2q0 -133 -92 -222t-236 -89q-106 0 -189 39t-124 108l88 74q72 -121 223 -121q90 0 148 54q57 54 57 130t-51 115t-140 39t-172 -76l-82 33l99 438h534l-24 -100h-410l-57 -266q76 66 178 66t176 -62t74 -160z" />
    <glyph glyph-name="sixinferior" unicode="&#x2086;" horiz-adv-x="794" 
d="M475 -26q0 73 -50 112t-140 39t-189 -115q-4 -10 -4 -43q0 -82 51 -131t139 -49t140 57q53 57 53 130zM334 223q118 0 192 -60t74 -177t-87 -208t-234 -91t-227 82q-79 82 -79 219q0 221 121 383q121 161 297 161t264 -100l-75 -84q-60 84 -188 84t-208 -120t-80 -206v-8
q111 125 230 125z" />
    <glyph glyph-name="seveninferior" unicode="&#x2087;" horiz-adv-x="741" 
d="M647 434l-502 -733h-139l498 719h-457l25 100h594z" />
    <glyph glyph-name="eightinferior" unicode="&#x2088;" horiz-adv-x="794" 
d="M266 -217q78 0 136 41t59 96q0 55 -45 97t-113 61q-101 -8 -165 -52t-64 -106t57 -99q57 -38 135 -38zM532 302q0 66 -51 99t-128 33t-129 -38t-52 -96t52 -93t100 -45q80 6 144 40t64 100zM582 -84q0 -100 -86 -165t-224 -65t-230 58q-93 58 -93 152t73 160t185 77
q-154 55 -154 169t88 172t208 58t214 -53t94 -143t-60 -150t-179 -75q70 -27 117 -77t47 -118z" />
    <glyph glyph-name="nineinferior" unicode="&#x2089;" horiz-adv-x="794" 
d="M343 434q-87 0 -141 -58t-55 -131q1 -73 51 -111t143 -38t185 113q4 10 4 45q0 82 -50 131t-137 49zM23 233q0 117 87 209t234 92t226 -81q79 -82 79 -220q0 -223 -120 -384t-299 -161t-261 101l74 84q57 -84 190 -84q88 0 158 67q71 68 99 140t28 119v8
q-106 -125 -227 -125t-195 59q-73 59 -73 176z" />
    <glyph glyph-name="parenleftinferior" unicode="&#x208d;" horiz-adv-x="329" 
d="M-55 -70q0 397 325 723l66 -32q-272 -367 -273 -736q1 -159 48 -284l-80 -33q-86 150 -86 362z" />
    <glyph glyph-name="parenrightinferior" unicode="&#x208e;" horiz-adv-x="329" 
d="M238 291q0 -401 -326 -723l-66 33q272 367 273 735q0 160 -47 285l80 32q86 -154 86 -362z" />
    <glyph glyph-name="colonmonetary" unicode="&#x20a1;" horiz-adv-x="1392" 
d="M502 201q59 -41 137 -60l553 996q-59 49 -131 73zM313 582q0 -193 115 -318l537 967q-37 6 -74 6q-229 0 -403 -184t-175 -471zM764 -25q-37 0 -107 9l-102 -189h-109l115 207q-63 16 -139 55l-146 -262h-108l174 316q-209 166 -209 462q0 180 65 335q125 299 416 422
q139 58 287 59q66 0 143 -15l111 199h109l-125 -223q63 -20 135 -68l162 291h106l-194 -350q66 -66 110 -156l-162 -63l-36 59l-521 -936h35q201 0 367 156l125 -95q-199 -213 -502 -213z" />
    <glyph glyph-name="frenchfranc" unicode="&#x20a3;" horiz-adv-x="1148" 
d="M240 0h-170l61 281h-160l23 98h158l219 987h895l-33 -152h-725l-98 -440h710l-33 -151h-712l-53 -244h413l-22 -98h-414z" />
    <glyph glyph-name="lira" unicode="&#x20a4;" horiz-adv-x="1060" 
d="M197 946q0 176 145 308t352 132q150 0 270 -68t152 -177l-155 -66q-17 74 -91 121t-188 47t-207 -86q-94 -86 -94 -225q0 -82 47 -166h383l-20 -94h-310q35 -70 35 -140v-4h242l-21 -94h-239q-27 -76 -85 -140t-120 -101q53 16 107 16t156 -42q101 -42 159 -42
q109 0 186 82l43 -137q-111 -96 -222 -96q-110 0 -238 46q-128 48 -217 48t-226 -82l-33 127q123 51 217 138t121 183h-321l20 94h309q-4 66 -51 144h-225l20 94h150q-51 92 -51 180z" />
    <glyph glyph-name="uni20A6" unicode="&#x20a6;" horiz-adv-x="1492" 
d="M979 494l111 -222l49 222h-160zM485 1114l-51 -229h164zM834 786l96 -194h229l43 194h-368zM412 786l-43 -194h374l-96 194h-235zM1200 0h-164l-243 494h-445l-108 -494h-170l108 494h-160l23 98h158l43 194h-158l20 99h160l107 481h174l239 -481h441l106 481h170
l-106 -481h155l-20 -99h-158l-43 -194h158l-23 -98h-155z" />
    <glyph glyph-name="peseta" unicode="&#x20a7;" horiz-adv-x="1310" 
d="M852 1214h-344l-47 -208h618q-4 86 -67 147t-160 61zM750 694q122 0 204 58t111 151h-627l-47 -209h359zM901 1366q152 0 255 -104t104 -250v-6h149l-23 -103h-139q-37 -154 -164 -257t-348 -103h-375l-120 -543h-170l198 903h-159l24 103h158l80 360h530z" />
    <glyph glyph-name="rupee" unicode="&#x20a8;" horiz-adv-x="2086" 
d="M731 692q154 0 241 87t87 216q0 95 -71 157t-161 62h-340l-116 -522h360zM852 1366q156 0 272 -98t115 -273q0 -175 -123 -303t-321 -141l245 -551h-188l-229 543h-287l-117 -543h-170l301 1366h502zM1559 -25q-279 0 -418 175l98 106q43 -64 133 -110t194 -46t166 52
t62 112t-53 100t-130 68t-154 58t-130 86t-53 133q0 129 100 217t275 88q123 0 224 -46t152 -116l-88 -100q-35 55 -119 96t-180 41q-94 0 -152 -43q-58 -42 -58 -100t52 -94q54 -36 131 -64t153 -59q76 -32 130 -90q53 -58 54 -138q0 -135 -106 -231t-283 -95z" />
    <glyph glyph-name="uni20A9" unicode="&#x20a9;" horiz-adv-x="1808" 
d="M1036 1102l-108 -217h119zM1206 494l15 -267l129 267h-144zM440 494l13 -267l131 267h-144zM881 786l-97 -194h279l-10 194h-172zM1192 786l10 -194h197l94 194h-301zM428 786l8 -194h197l96 194h-301zM1278 0h-184l-27 494h-332l-243 -494h-185l-33 494h-235l22 98h207
l-12 194h-152l21 99h125l-31 481h184l21 -481h354l240 481h143l25 -481h354l236 481h192l-244 -481h119l-18 -99h-150l-98 -194h205l-23 -98h-231z" />
    <glyph glyph-name="afii57636" unicode="&#x20aa;" horiz-adv-x="1679" 
d="M735 1126q187 0 311 -83t123 -263q0 -59 -18 -133l-68 -315h-149l72 321q12 53 12 95q0 121 -76 182t-205 61h-325l-219 -991h-150l248 1126h444zM1038 0h-589l174 793h149l-145 -658h411q137 0 214 76t112 233l149 682h150l-154 -692q-49 -221 -154 -328
q-106 -106 -317 -106z" />
    <glyph glyph-name="dong" unicode="&#x20ab;" horiz-adv-x="1185" 
d="M621 877q-165 1 -271 -139t-106 -326q0 -137 76 -218t200 -81q88 0 170 48t131 120l99 436q-39 70 -118 115t-181 45zM600 1014q113 0 204 -48t140 -132l57 262h-344l17 98h350l39 172h154l-39 -172h108l-16 -98h-115l-242 -1096h-153l31 141q-133 -166 -317 -166
t-288 109t-104 299q0 255 144 443t374 188zM809 -293h-741l20 98h741z" />
    <glyph glyph-name="Euro" unicode="&#x20ac;" horiz-adv-x="1423" 
d="M803 -25q-252 1 -424 139t-203 371h-117l25 107h88q0 86 21 184h-70l24 107h78q88 231 286 368t413 137t358 -85q143 -86 215 -236l-162 -63q-119 233 -405 233q-160 0 -301 -95t-215 -259h645l-25 -107h-657q-25 -86 -25 -184h641l-24 -107h-609q29 -164 149 -261
q121 -97 313 -97t358 156l125 -95q-199 -213 -502 -213z" />
    <glyph glyph-name="afii61289" unicode="&#x2113;" horiz-adv-x="972" 
d="M244 180q0 -28 26 -52t77 -24q52 0 91 35l19 -116q-53 -47 -153 -47t-162 43q-60 44 -60 124q0 37 8 70l184 834q37 163 148 251q110 88 270 88t258 -68t99 -171q0 -159 -308 -330l-417 -242l-76 -335q-4 -33 -4 -60zM899 1142q0 52 -58 92q-57 40 -151 40t-166 -62
t-98 -180l-70 -303l336 193q72 41 108 65q99 69 99 155z" />
    <glyph glyph-name="afii61352" unicode="&#x2116;" horiz-adv-x="2279" 
d="M1180 0h-164l-551 1114l-246 -1114h-170l301 1366h174l545 -1094l242 1094h170zM1986 1290q-98 0 -168 -85t-69 -185q0 -100 51 -152q52 -52 150 -53q98 0 167 85q69 86 69 186t-52 152q-50 52 -148 52zM1942 717q-148 0 -232 81q-84 82 -84 226t110 256t257 113
q147 0 231 -81q84 -82 84 -226t-109 -257q-109 -112 -257 -112z" />
    <glyph glyph-name="published" unicode="&#x2117;" horiz-adv-x="1593" 
d="M928 694q92 0 148 54t57 127q1 75 -49 113t-132 38h-198l-72 -332h246zM961 1098q105 0 177 -58t72 -162q0 -106 -84 -180t-211 -73h-251l-76 -357h-76l182 830h267zM1481 684q-1 264 -191 454t-454 189q-264 0 -452 -189q-188 -188 -189 -454q0 -266 187 -454
q186 -188 452 -189t456 189t191 454zM1544 684q0 -291 -208 -499t-500 -208t-498 207q-207 207 -207 500t207 500t499 207q291 0 499 -208t208 -499z" />
    <glyph glyph-name="servicemark" unicode="&#x2120;" horiz-adv-x="974" 
d="M506 1036q0 -56 -47 -96q-47 -41 -127 -41q-141 0 -197 82l45 39q47 -68 148 -68q49 0 78 23q28 23 28 57q-1 59 -117 94q-43 14 -79 43t-37 79q0 50 48 90t124 40q129 0 176 -71l-47 -35q-41 57 -133 57q-45 -1 -72 -23t-27 -53t37 -53t81 -35t81 -43t37 -86zM991 915
h-57l82 373l-236 -373h-16l-72 373l-82 -373h-57l98 451h86l60 -328l202 328h91z" />
    <glyph glyph-name="trademark" unicode="&#x2122;" horiz-adv-x="929" 
d="M526 1313h-127l-88 -398h-57l88 398h-127l10 53h312zM950 915h-57l82 373l-236 -373h-16l-72 373l-82 -373h-57l98 451h88l60 -328l203 328h88z" />
    </font>
</defs>
</svg>
